<svg width="500" height="700" viewBox="0 0 500 700" fill="none" xmlns="http://www.w3.org/2000/svg">
<rect x="0.000976562" width="500" height="700" fill="white"/>
<g filter="url(#filter0_i_426_11)">
<rect x="114" y="233" width="271" height="94" rx="10" fill="#FBFBFB"/>
</g>
<path d="M178 584.129V587.257H182.58H187.161V589.044V590.832H183.754H180.346V592.508V594.183H181.53H182.715L182.145 594.809C180.491 596.619 179.709 598.563 179.452 601.49C179.229 604.048 179.62 606.405 180.57 608.316C181.575 610.327 183.005 611.768 184.982 612.74C186.558 613.511 187.53 613.745 189.563 613.812C191.484 613.879 192.401 613.768 193.898 613.287C195.261 612.852 196.478 612.114 197.573 611.075C199.014 609.701 199.986 608.036 200.467 606.126C200.768 604.908 200.88 602.093 200.679 600.63C200.366 598.295 199.484 596.373 198.02 594.82L197.406 594.183H198.813H200.232V592.508V590.832H196.769H193.305V589.044V587.257H257.153H321V584.129V581.001H249.5H178V584.129ZM191.797 594.742C192.557 595.099 193.607 596.194 194.11 597.144C195.562 599.915 195.652 604.674 194.311 607.388C193.272 609.489 191.976 610.416 190.121 610.427C189.384 610.427 189.105 610.371 188.524 610.103C187.608 609.69 186.647 608.673 186.1 607.545C184.748 604.718 184.759 600.149 186.133 597.323C186.681 596.194 187.854 594.988 188.725 594.641C189.574 594.317 190.993 594.351 191.797 594.742Z" fill="black"/>
<path d="M224.699 589.222C222.263 589.669 220.52 590.529 219.012 592.038C216.409 594.652 215.091 598.864 215.526 603.198C216.063 608.438 219.034 612.326 223.414 613.521C224.542 613.823 227.112 613.935 228.341 613.733C232.709 613.03 235.96 609.633 236.999 604.684C237.312 603.165 237.334 600.361 237.055 598.763C236.362 594.92 234.172 591.669 231.279 590.217C229.826 589.479 228.776 589.245 226.765 589.211C225.782 589.189 224.855 589.2 224.699 589.222ZM227.905 592.563C229.86 593.434 231.011 596.372 231.145 600.83C231.268 604.964 230.53 607.924 228.977 609.611C228.207 610.438 227.503 610.751 226.408 610.751C223.95 610.739 222.308 608.438 221.805 604.293C221.649 602.997 221.649 599.892 221.805 598.596C221.973 597.199 222.386 595.657 222.81 594.786C223.894 592.585 225.939 591.691 227.905 592.563Z" fill="black"/>
<path d="M203.025 603.344V616.973H190.512H178V620.101V623.229H249.5H321V620.101V616.973H301.952H282.904V603.344V589.714H280.111H277.318V603.344V616.973H276.312H275.307V603.344V589.714H272.626H269.945V593.624V597.534H268.045H266.146V598.372V599.21H262.404H258.661V596.249V593.289L263.308 593.267L267.945 593.233V591.613V589.993H260.538H253.131V601.556V613.119L261.543 613.152L269.945 613.175V615.074V616.973L258.437 616.951L246.93 616.917V603.31V589.714H243.914H240.898V603.344V616.973H224.978H209.058V608.65V600.327H211.292H213.527V598.596V596.864H211.292H209.058V593.289V589.714H206.041H203.025V603.344ZM269.922 605.377L269.945 609.823H264.303H258.661V606.192V602.562H262.906H267.152V601.802C267.152 601.377 267.185 600.997 267.23 600.953C267.274 600.919 267.889 600.897 268.593 600.908L269.889 600.942L269.922 605.377Z" fill="black"/>
<path d="M290.166 592.116V593.736H300.388H310.61V596.138V598.54H300.612H290.613V600.16V601.779H300.612H310.61V606.36V610.94H299.438H288.267V612.616V614.292H303.572H318.889L318.855 612.639L318.822 610.996L317.738 610.963L316.643 610.929V600.718V590.496H303.404H290.166V592.116Z" fill="black"/>
<path d="M180.409 166.636H194.372C194.372 174.061 189.408 179.091 180.665 181.242L179 178.091C185.565 176.545 189.152 173.485 189.761 169.818H180.409V166.636ZM187.551 184.848V189.485H198.376V184.848H187.551ZM183.42 192.606V181.697H202.539V192.606H183.42ZM206.446 171.091V174.364H202.539V180.576H198.312V165.03H202.539V171.091H206.446Z" fill="black"/>
<path d="M224.314 171.758H228.734V165.03H232.961V181.636H228.734V175H224.314V171.758ZM226.076 177.758L224.026 180.879C220.823 179.879 218.614 177.909 217.332 175.455C216.051 178.273 213.714 180.545 210.287 181.636L208.141 178.485C212.817 176.939 214.963 173.394 215.091 169.909H209.294V166.697H225.147V169.909H219.414C219.542 173.091 221.592 176.364 226.076 177.758ZM223.001 189.939C226.844 189.939 228.862 189.182 228.862 187.606C228.862 186.03 226.844 185.273 223.001 185.273C219.126 185.273 217.108 186.03 217.108 187.606C217.108 189.182 219.126 189.939 223.001 189.939ZM223.001 182.242C229.246 182.242 233.089 184.212 233.089 187.606C233.089 191 229.246 192.97 223.001 192.97C216.724 192.97 212.881 191 212.881 187.606C212.881 184.212 216.724 182.242 223.001 182.242Z" fill="black"/>
<path d="M257.715 182.091V177.939H254.256V174.758H257.715V172.727H254.256V169.515H257.715V165.03H261.942V182.091H257.715ZM244.424 170.061V177.727C245.321 177.727 246.249 177.667 247.178 177.636V170.061H244.424ZM253.936 177.152L254.192 180.091C248.715 180.97 242.374 181.061 237.73 181.061L237.282 177.818C238.243 177.818 239.268 177.818 240.357 177.818V170.061H238.019V166.879H253.583V170.061H251.245V177.394C252.174 177.333 253.071 177.242 253.936 177.152ZM251.95 189.939C255.857 189.939 257.843 189.212 257.843 187.758C257.843 186.273 255.857 185.576 251.95 185.576C248.075 185.576 246.089 186.273 246.089 187.758C246.089 189.212 248.075 189.939 251.95 189.939ZM251.95 182.545C258.259 182.545 262.07 184.455 262.07 187.758C262.07 191.03 258.259 192.97 251.95 192.97C245.673 192.97 241.862 191.03 241.862 187.758C241.862 184.455 245.673 182.545 251.95 182.545Z" fill="black"/>
<path d="M267.608 167.879H281.507C281.507 176.242 278.145 183.424 268.345 188.121L265.975 185.061C272.828 181.727 276.479 177.303 277.248 171.121H267.608V167.879ZM293.485 175.667V178.97H289.354V192.879H285.126V165H289.354V175.667H293.485Z" fill="black"/>
<path d="M306.325 167.182V171.212C306.325 176.485 308.471 181.606 313.339 183.667L310.841 186.848C307.606 185.364 305.46 182.636 304.243 179.273C302.962 182.848 300.752 185.758 297.454 187.333L294.828 184.121C299.824 181.939 302.066 176.515 302.066 171.212V167.182H306.325ZM315.773 165H320V193H315.773V176.97H310.104V173.758H315.773V165Z" fill="black"/>
<path d="M182.513 206.262H185.155L184.825 205.312C184.479 204.41 184.179 203.414 183.849 202.477H183.789C183.504 203.426 183.173 204.41 182.843 205.312L182.513 206.262ZM186.416 209.836L185.635 207.609H182.032L181.252 209.836H179L182.558 201.164H185.17L188.743 209.836H186.416Z" fill="black"/>
<path d="M189.818 209.836V201.164H193.466C195.928 201.164 197.82 201.832 197.82 203.883C197.82 205.863 195.913 206.754 193.526 206.754H192.04V209.836H189.818ZM192.04 205.383H193.376C194.907 205.383 195.643 204.879 195.643 203.883C195.643 202.875 194.832 202.535 193.301 202.535H192.04V205.383Z" fill="black"/>
<path d="M199.606 209.836V201.164H203.254C205.716 201.164 207.607 201.832 207.607 203.883C207.607 205.863 205.701 206.754 203.314 206.754H201.828V209.836H199.606ZM201.828 205.383H203.164C204.695 205.383 205.431 204.879 205.431 203.883C205.431 202.875 204.62 202.535 203.089 202.535H201.828V205.383Z" fill="black"/>
<path d="M211.616 202.535V205.184H213.057C214.483 205.184 215.264 204.715 215.264 203.789C215.264 202.852 214.483 202.535 213.057 202.535H211.616ZM217.921 209.836H215.444L213.162 206.555H211.616V209.836H209.394V201.164H213.267C215.594 201.164 217.44 201.797 217.44 203.789C217.44 205.09 216.6 205.898 215.324 206.285L217.921 209.836Z" fill="black"/>
<path d="M221.371 206.262H224.013L223.683 205.312C223.338 204.41 223.037 203.414 222.707 202.477H222.647C222.362 203.426 222.031 204.41 221.701 205.312L221.371 206.262ZM225.274 209.836L224.493 207.609H220.891L220.11 209.836H217.858L221.416 201.164H224.028L227.601 209.836H225.274Z" fill="black"/>
<path d="M228.676 209.836V201.164H230.898V209.836H228.676Z" fill="black"/>
<path d="M236.724 210C235.238 210 233.752 209.543 232.671 208.734L233.947 207.539C234.742 208.113 235.793 208.5 236.769 208.5C237.925 208.5 238.54 208.113 238.54 207.504C238.54 206.859 237.865 206.66 236.874 206.332L235.388 205.84C234.262 205.477 233.136 204.773 233.136 203.508C233.136 202.09 234.727 201 236.979 201C238.27 201 239.561 201.398 240.462 202.113L239.336 203.203C238.631 202.746 237.895 202.488 236.979 202.488C236.003 202.488 235.373 202.828 235.373 203.402C235.373 204.023 236.169 204.246 237.114 204.539L238.57 205.02C239.922 205.453 240.807 206.121 240.807 207.375C240.807 208.793 239.291 210 236.724 210Z" fill="black"/>
<path d="M244.636 206.262H247.278L246.948 205.312C246.602 204.41 246.302 203.414 245.972 202.477H245.912C245.627 203.426 245.296 204.41 244.966 205.312L244.636 206.262ZM248.539 209.836L247.758 207.609H244.155L243.375 209.836H241.123L244.681 201.164H247.293L250.866 209.836H248.539Z" fill="black"/>
<path d="M251.941 209.836V201.164H254.163V208.383H258.666V209.836H251.941Z" fill="black"/>
<path d="M265.778 202.535V205.184H267.219C268.645 205.184 269.426 204.715 269.426 203.789C269.426 202.852 268.645 202.535 267.219 202.535H265.778ZM272.083 209.836H269.606L267.324 206.555H265.778V209.836H263.556V201.164H267.429C269.756 201.164 271.603 201.797 271.603 203.789C271.603 205.09 270.762 205.898 269.486 206.285L272.083 209.836Z" fill="black"/>
<path d="M273.564 209.836V201.164H280.379V202.605H275.786V204.609H279.689V206.062H275.786V208.383H280.545V209.836H273.564Z" fill="black"/>
<path d="M282.575 209.836V201.164H286.223C288.685 201.164 290.576 201.832 290.576 203.883C290.576 205.863 288.67 206.754 286.283 206.754H284.796V209.836H282.575ZM284.796 205.383H286.133C287.664 205.383 288.399 204.879 288.399 203.883C288.399 202.875 287.589 202.535 286.058 202.535H284.796V205.383Z" fill="black"/>
<path d="M296.776 210C293.834 210 291.807 208.277 291.807 205.465C291.807 202.641 293.834 201 296.776 201C299.718 201 301.745 202.652 301.745 205.465C301.745 208.277 299.718 210 296.776 210ZM296.776 208.5C298.427 208.5 299.478 207.316 299.478 205.465C299.478 203.602 298.427 202.488 296.776 202.488C295.125 202.488 294.074 203.602 294.074 205.465C294.074 207.316 295.125 208.5 296.776 208.5Z" fill="black"/>
<path d="M305.911 202.535V205.184H307.353C308.779 205.184 309.559 204.715 309.559 203.789C309.559 202.852 308.779 202.535 307.353 202.535H305.911ZM312.217 209.836H309.74L307.458 206.555H305.911V209.836H303.69V201.164H307.563C309.89 201.164 311.736 201.797 311.736 203.789C311.736 205.09 310.896 205.898 309.619 206.285L312.217 209.836Z" fill="black"/>
<path d="M315.626 209.836V202.605H312.503V201.164H321V202.605H317.847V209.836H315.626Z" fill="black"/>
<g filter="url(#filter1_dd_426_11)">
<rect x="95" y="65" width="28" height="1" fill="url(#paint0_linear_426_11)"/>
</g>
<g filter="url(#filter2_dd_426_11)">
<rect x="377" y="65" width="28" height="1" fill="url(#paint1_linear_426_11)"/>
</g>
<path d="M140.472 252.159C142.292 252.159 143.592 253.264 143.592 254.902C143.592 256.527 142.292 257.645 140.472 257.645C138.665 257.645 137.352 256.527 137.352 254.902C137.352 253.264 138.665 252.159 140.472 252.159ZM140.472 253.069C139.263 253.069 138.392 253.81 138.392 254.902C138.392 255.981 139.263 256.735 140.472 256.735C141.681 256.735 142.552 255.981 142.552 254.902C142.552 253.81 141.681 253.069 140.472 253.069ZM145.126 251.301H146.192V262.988H145.126V251.301ZM136.897 260.427L136.767 259.53C138.886 259.53 141.811 259.517 144.359 259.127L144.45 259.92C141.824 260.414 139.003 260.427 136.897 260.427Z" fill="black"/>
<path d="M153.055 257.788V259.725C154.173 259.673 155.278 259.608 156.331 259.478L156.409 260.258C153.861 260.648 151.066 260.7 148.856 260.7L148.726 259.803C149.727 259.803 150.845 259.803 151.989 259.764V257.788H149.584V254.655H154.342V253.225H149.545V252.38H155.395V255.461H150.624V256.943H155.72V257.788H153.055ZM157.085 251.288H158.151V262.988H157.085V251.288Z" fill="black"/>
<path d="M170.175 251.314V259.829H169.109V251.314H170.175ZM161.92 254.98C161.92 256.137 162.778 256.943 163.909 256.943C165.066 256.943 165.924 256.137 165.924 254.98C165.924 253.849 165.066 253.043 163.909 253.043C162.778 253.043 161.92 253.849 161.92 254.98ZM166.964 254.98C166.964 256.67 165.651 257.866 163.909 257.866C162.18 257.866 160.88 256.67 160.88 254.98C160.88 253.303 162.18 252.12 163.909 252.12C165.651 252.12 166.964 253.303 166.964 254.98ZM163.74 261.831H170.526V262.702H162.674V258.958H163.74V261.831Z" fill="black"/>
<path d="M182.406 256.93C181.938 256.93 181.548 256.553 181.548 256.033C181.548 255.487 181.938 255.11 182.406 255.11C182.874 255.11 183.264 255.487 183.264 256.033C183.264 256.553 182.874 256.93 182.406 256.93ZM182.406 262.169C181.938 262.169 181.548 261.805 181.548 261.272C181.548 260.739 181.938 260.349 182.406 260.349C182.874 260.349 183.264 260.739 183.264 261.272C183.264 261.805 182.874 262.169 182.406 262.169Z" fill="black"/>
<path d="M198.919 253.888C200.973 253.888 202.572 255.227 202.572 257.086C202.572 258.958 200.973 260.297 198.919 260.297C196.878 260.297 195.279 258.958 195.279 257.086C195.279 255.227 196.878 253.888 198.919 253.888ZM198.919 254.798C197.45 254.798 196.306 255.773 196.306 257.086C196.306 258.425 197.45 259.387 198.919 259.387C200.401 259.387 201.545 258.425 201.545 257.086C201.545 255.773 200.401 254.798 198.919 254.798Z" fill="black"/>
<path d="M210.878 253.888C212.932 253.888 214.531 255.227 214.531 257.086C214.531 258.958 212.932 260.297 210.878 260.297C208.837 260.297 207.238 258.958 207.238 257.086C207.238 255.227 208.837 253.888 210.878 253.888ZM210.878 254.798C209.409 254.798 208.265 255.773 208.265 257.086C208.265 258.425 209.409 259.387 210.878 259.387C212.36 259.387 213.504 258.425 213.504 257.086C213.504 255.773 212.36 254.798 210.878 254.798Z" fill="black"/>
<path d="M222.837 253.888C224.891 253.888 226.49 255.227 226.49 257.086C226.49 258.958 224.891 260.297 222.837 260.297C220.796 260.297 219.197 258.958 219.197 257.086C219.197 255.227 220.796 253.888 222.837 253.888ZM222.837 254.798C221.368 254.798 220.224 255.773 220.224 257.086C220.224 258.425 221.368 259.387 222.837 259.387C224.319 259.387 225.463 258.425 225.463 257.086C225.463 255.773 224.319 254.798 222.837 254.798Z" fill="black"/>
<path d="M142.695 276.902H145.217V273.314H146.296V281.92H145.217V277.773H142.695V276.902ZM137.456 274.211H142.747C142.747 277.214 140.628 279.489 137.326 280.581L136.871 279.723C139.536 278.839 141.369 277.175 141.603 275.082H137.456V274.211ZM139.991 283.831H146.595V284.702H138.925V281.049H139.991V283.831Z" fill="black"/>
<path d="M165.808 278.514V275.043H162.584V278.514H165.808ZM169.526 276.057H166.848V277.5H169.526V276.057ZM166.848 278.358V279.359H161.531V274.185H166.848V275.199H169.526V273.314H170.605V280.204H169.526V278.358H166.848ZM166.744 284.117C168.512 284.117 169.578 283.61 169.578 282.752C169.578 281.894 168.512 281.387 166.744 281.387C165.002 281.387 163.936 281.894 163.936 282.752C163.936 283.61 165.002 284.117 166.744 284.117ZM166.744 280.555C169.149 280.555 170.631 281.348 170.631 282.752C170.631 284.143 169.149 284.949 166.744 284.949C164.352 284.949 162.87 284.143 162.87 282.752C162.87 281.348 164.352 280.555 166.744 280.555Z" fill="black"/>
<path d="M182.797 278.93C182.329 278.93 181.939 278.553 181.939 278.033C181.939 277.487 182.329 277.11 182.797 277.11C183.265 277.11 183.655 277.487 183.655 278.033C183.655 278.553 183.265 278.93 182.797 278.93ZM182.797 284.169C182.329 284.169 181.939 283.805 181.939 283.272C181.939 282.739 182.329 282.349 182.797 282.349C183.265 282.349 183.655 282.739 183.655 283.272C183.655 283.805 183.265 284.169 182.797 284.169Z" fill="black"/>
<path d="M199.31 275.888C201.364 275.888 202.963 277.227 202.963 279.086C202.963 280.958 201.364 282.297 199.31 282.297C197.269 282.297 195.67 280.958 195.67 279.086C195.67 277.227 197.269 275.888 199.31 275.888ZM199.31 276.798C197.841 276.798 196.697 277.773 196.697 279.086C196.697 280.425 197.841 281.387 199.31 281.387C200.792 281.387 201.936 280.425 201.936 279.086C201.936 277.773 200.792 276.798 199.31 276.798Z" fill="black"/>
<path d="M211.269 275.888C213.323 275.888 214.922 277.227 214.922 279.086C214.922 280.958 213.323 282.297 211.269 282.297C209.228 282.297 207.629 280.958 207.629 279.086C207.629 277.227 209.228 275.888 211.269 275.888ZM211.269 276.798C209.8 276.798 208.656 277.773 208.656 279.086C208.656 280.425 209.8 281.387 211.269 281.387C212.751 281.387 213.895 280.425 213.895 279.086C213.895 277.773 212.751 276.798 211.269 276.798Z" fill="black"/>
<path d="M223.228 275.888C225.282 275.888 226.881 277.227 226.881 279.086C226.881 280.958 225.282 282.297 223.228 282.297C221.187 282.297 219.588 280.958 219.588 279.086C219.588 277.227 221.187 275.888 223.228 275.888ZM223.228 276.798C221.759 276.798 220.615 277.773 220.615 279.086C220.615 280.425 221.759 281.387 223.228 281.387C224.71 281.387 225.854 280.425 225.854 279.086C225.854 277.773 224.71 276.798 223.228 276.798Z" fill="black"/>
<path d="M238.094 275.888C240.148 275.888 241.747 277.227 241.747 279.086C241.747 280.958 240.148 282.297 238.094 282.297C236.053 282.297 234.454 280.958 234.454 279.086C234.454 277.227 236.053 275.888 238.094 275.888ZM238.094 276.798C236.625 276.798 235.481 277.773 235.481 279.086C235.481 280.425 236.625 281.387 238.094 281.387C239.576 281.387 240.72 280.425 240.72 279.086C240.72 277.773 239.576 276.798 238.094 276.798Z" fill="black"/>
<path d="M250.053 275.888C252.107 275.888 253.706 277.227 253.706 279.086C253.706 280.958 252.107 282.297 250.053 282.297C248.012 282.297 246.413 280.958 246.413 279.086C246.413 277.227 248.012 275.888 250.053 275.888ZM250.053 276.798C248.584 276.798 247.44 277.773 247.44 279.086C247.44 280.425 248.584 281.387 250.053 281.387C251.535 281.387 252.679 280.425 252.679 279.086C252.679 277.773 251.535 276.798 250.053 276.798Z" fill="black"/>
<path d="M264.919 275.888C266.973 275.888 268.572 277.227 268.572 279.086C268.572 280.958 266.973 282.297 264.919 282.297C262.878 282.297 261.279 280.958 261.279 279.086C261.279 277.227 262.878 275.888 264.919 275.888ZM264.919 276.798C263.45 276.798 262.306 277.773 262.306 279.086C262.306 280.425 263.45 281.387 264.919 281.387C266.401 281.387 267.545 280.425 267.545 279.086C267.545 277.773 266.401 276.798 264.919 276.798Z" fill="black"/>
<path d="M276.878 275.888C278.932 275.888 280.531 277.227 280.531 279.086C280.531 280.958 278.932 282.297 276.878 282.297C274.837 282.297 273.238 280.958 273.238 279.086C273.238 277.227 274.837 275.888 276.878 275.888ZM276.878 276.798C275.409 276.798 274.265 277.773 274.265 279.086C274.265 280.425 275.409 281.387 276.878 281.387C278.36 281.387 279.504 280.425 279.504 279.086C279.504 277.773 278.36 276.798 276.878 276.798Z" fill="black"/>
<path d="M291.744 275.888C293.798 275.888 295.397 277.227 295.397 279.086C295.397 280.958 293.798 282.297 291.744 282.297C289.703 282.297 288.104 280.958 288.104 279.086C288.104 277.227 289.703 275.888 291.744 275.888ZM291.744 276.798C290.275 276.798 289.131 277.773 289.131 279.086C289.131 280.425 290.275 281.387 291.744 281.387C293.226 281.387 294.37 280.425 294.37 279.086C294.37 277.773 293.226 276.798 291.744 276.798Z" fill="black"/>
<path d="M303.703 275.888C305.757 275.888 307.356 277.227 307.356 279.086C307.356 280.958 305.757 282.297 303.703 282.297C301.662 282.297 300.063 280.958 300.063 279.086C300.063 277.227 301.662 275.888 303.703 275.888ZM303.703 276.798C302.234 276.798 301.09 277.773 301.09 279.086C301.09 280.425 302.234 281.387 303.703 281.387C305.185 281.387 306.329 280.425 306.329 279.086C306.329 277.773 305.185 276.798 303.703 276.798Z" fill="black"/>
<path d="M315.662 275.888C317.716 275.888 319.315 277.227 319.315 279.086C319.315 280.958 317.716 282.297 315.662 282.297C313.621 282.297 312.022 280.958 312.022 279.086C312.022 277.227 313.621 275.888 315.662 275.888ZM315.662 276.798C314.193 276.798 313.049 277.773 313.049 279.086C313.049 280.425 314.193 281.387 315.662 281.387C317.144 281.387 318.288 280.425 318.288 279.086C318.288 277.773 317.144 276.798 315.662 276.798Z" fill="black"/>
<path d="M327.621 275.888C329.675 275.888 331.274 277.227 331.274 279.086C331.274 280.958 329.675 282.297 327.621 282.297C325.58 282.297 323.981 280.958 323.981 279.086C323.981 277.227 325.58 275.888 327.621 275.888ZM327.621 276.798C326.152 276.798 325.008 277.773 325.008 279.086C325.008 280.425 326.152 281.387 327.621 281.387C329.103 281.387 330.247 280.425 330.247 279.086C330.247 277.773 329.103 276.798 327.621 276.798Z" fill="black"/>
<path d="M141.473 301.086V298.98H138.327V301.086H141.473ZM142.526 299.461V301.944H137.274V296.081H138.327V298.135H141.473V296.081H142.526V298.59H145.217V295.301H146.296V303.933H145.217V299.461H142.526ZM139.861 305.831H146.569V306.702H138.795V303.088H139.861V305.831Z" fill="black"/>
<path d="M170.982 297.004V297.875H161.518V297.004H165.743V295.483H166.809V297.004H170.982ZM163.52 300.878C163.52 301.749 164.573 302.269 166.276 302.269C167.953 302.269 168.993 301.749 168.993 300.878C168.993 300.02 167.953 299.5 166.276 299.5C164.573 299.5 163.52 300.02 163.52 300.878ZM166.809 304.726H171.567V305.597H160.998V304.726H165.743V303.088C163.689 302.971 162.441 302.178 162.441 300.878C162.441 299.474 163.91 298.668 166.276 298.668C168.603 298.668 170.072 299.474 170.072 300.878C170.072 302.178 168.837 302.958 166.809 303.088V304.726Z" fill="black"/>
<path d="M182.797 300.93C182.329 300.93 181.939 300.553 181.939 300.033C181.939 299.487 182.329 299.11 182.797 299.11C183.265 299.11 183.655 299.487 183.655 300.033C183.655 300.553 183.265 300.93 182.797 300.93ZM182.797 306.169C182.329 306.169 181.939 305.805 181.939 305.272C181.939 304.739 182.329 304.349 182.797 304.349C183.265 304.349 183.655 304.739 183.655 305.272C183.655 305.805 183.265 306.169 182.797 306.169Z" fill="black"/>
<path d="M196.437 308.561C195.241 306.611 194.526 304.518 194.526 301.957C194.526 299.409 195.241 297.303 196.437 295.366L197.178 295.704C196.047 297.563 195.514 299.747 195.514 301.957C195.514 304.167 196.047 306.364 197.178 308.21L196.437 308.561Z" fill="black"/>
<path d="M199.022 306V296.471H200.231V300.462H204.677V296.471H205.873V306H204.677V301.502H200.231V306H199.022Z" fill="black"/>
<path d="M208.48 306V296.471H209.689V306H208.48Z" fill="black"/>
<path d="M211.561 306V305.298C214.551 302.685 215.929 300.787 215.929 299.149C215.929 298.057 215.357 297.264 214.174 297.264C213.394 297.264 212.718 297.745 212.198 298.369L211.509 297.693C212.289 296.848 213.108 296.289 214.317 296.289C216.02 296.289 217.086 297.407 217.086 299.11C217.086 301.008 215.591 302.945 213.355 305.064C213.849 305.025 214.434 304.973 214.915 304.973H217.554V306H211.561Z" fill="black"/>
<path d="M221.593 306.169C220.111 306.169 219.201 305.545 218.564 304.908L219.149 304.128C219.695 304.674 220.384 305.181 221.489 305.181C222.607 305.181 223.517 304.323 223.517 302.932C223.517 301.567 222.737 300.761 221.541 300.761C220.904 300.761 220.501 300.956 219.955 301.32L219.318 300.93L219.617 296.471H224.258V297.485H220.657L220.423 300.241C220.839 300.007 221.268 299.864 221.84 299.864C223.426 299.864 224.713 300.8 224.713 302.893C224.713 304.986 223.205 306.169 221.593 306.169Z" fill="black"/>
<path d="M229.025 306.169C227.205 306.169 226.048 304.518 226.048 301.203C226.048 297.888 227.205 296.289 229.025 296.289C230.832 296.289 231.989 297.901 231.989 301.203C231.989 304.518 230.832 306.169 229.025 306.169ZM229.025 305.22C230.104 305.22 230.832 304.011 230.832 301.203C230.832 298.421 230.104 297.251 229.025 297.251C227.933 297.251 227.205 298.421 227.205 301.203C227.205 304.011 227.933 305.22 229.025 305.22Z" fill="black"/>
<path d="M236.054 306.169C234.559 306.169 233.623 305.545 232.999 304.869L233.597 304.089C234.156 304.674 234.884 305.181 235.963 305.181C237.094 305.181 237.9 304.505 237.9 303.413C237.9 302.269 237.133 301.502 234.936 301.502V300.592C236.899 300.592 237.575 299.799 237.575 298.772C237.575 297.849 236.951 297.264 235.963 297.238C235.196 297.264 234.52 297.654 233.987 298.187L233.35 297.433C234.065 296.77 234.91 296.289 236.015 296.289C237.614 296.289 238.784 297.147 238.784 298.681C238.784 299.838 238.095 300.605 237.081 300.982V301.034C238.212 301.294 239.109 302.152 239.109 303.452C239.109 305.155 237.744 306.169 236.054 306.169Z" fill="black"/>
<path d="M240.977 306V305.012H243.096V297.901H241.406V297.147C242.251 296.991 242.862 296.77 243.382 296.471H244.292V305.012H246.203V306H240.977Z" fill="black"/>
<path d="M248.538 302.425H251.45V299.5C251.45 299.032 251.502 298.265 251.528 297.771H251.476C251.242 298.239 250.982 298.707 250.709 299.175L248.538 302.425ZM253.842 302.425V303.374H252.581V306H251.45V303.374H247.303V302.594L251.268 296.471H252.581V302.425H253.842Z" fill="black"/>
<path d="M254.852 302.815V301.905H258.18V302.815H254.852Z" fill="black"/>
<path d="M262.375 306.169C260.555 306.169 259.398 304.518 259.398 301.203C259.398 297.888 260.555 296.289 262.375 296.289C264.182 296.289 265.339 297.901 265.339 301.203C265.339 304.518 264.182 306.169 262.375 306.169ZM262.375 305.22C263.454 305.22 264.182 304.011 264.182 301.203C264.182 298.421 263.454 297.251 262.375 297.251C261.283 297.251 260.555 298.421 260.555 301.203C260.555 304.011 261.283 305.22 262.375 305.22Z" fill="black"/>
<path d="M269.586 306.169C267.766 306.169 266.609 304.518 266.609 301.203C266.609 297.888 267.766 296.289 269.586 296.289C271.393 296.289 272.55 297.901 272.55 301.203C272.55 304.518 271.393 306.169 269.586 306.169ZM269.586 305.22C270.665 305.22 271.393 304.011 271.393 301.203C271.393 298.421 270.665 297.251 269.586 297.251C268.494 297.251 267.766 298.421 267.766 301.203C267.766 304.011 268.494 305.22 269.586 305.22Z" fill="black"/>
<path d="M276.797 306.169C274.977 306.169 273.82 304.518 273.82 301.203C273.82 297.888 274.977 296.289 276.797 296.289C278.604 296.289 279.761 297.901 279.761 301.203C279.761 304.518 278.604 306.169 276.797 306.169ZM276.797 305.22C277.876 305.22 278.604 304.011 278.604 301.203C278.604 298.421 277.876 297.251 276.797 297.251C275.705 297.251 274.977 298.421 274.977 301.203C274.977 304.011 275.705 305.22 276.797 305.22Z" fill="black"/>
<path d="M284.008 306.169C282.188 306.169 281.031 304.518 281.031 301.203C281.031 297.888 282.188 296.289 284.008 296.289C285.815 296.289 286.972 297.901 286.972 301.203C286.972 304.518 285.815 306.169 284.008 306.169ZM284.008 305.22C285.087 305.22 285.815 304.011 285.815 301.203C285.815 298.421 285.087 297.251 284.008 297.251C282.916 297.251 282.188 298.421 282.188 301.203C282.188 304.011 282.916 305.22 284.008 305.22Z" fill="black"/>
<path d="M288.892 308.561L288.164 308.21C289.282 306.364 289.828 304.167 289.828 301.957C289.828 299.747 289.282 297.563 288.164 295.704L288.892 295.366C290.101 297.303 290.816 299.409 290.816 301.957C290.816 304.518 290.101 306.611 288.892 308.561Z" fill="black"/>
<defs>
<filter id="filter0_i_426_11" x="113" y="232" width="272" height="95" filterUnits="userSpaceOnUse" color-interpolation-filters="sRGB">
<feFlood flood-opacity="0" result="BackgroundImageFix"/>
<feBlend mode="normal" in="SourceGraphic" in2="BackgroundImageFix" result="shape"/>
<feColorMatrix in="SourceAlpha" type="matrix" values="0 0 0 0 0 0 0 0 0 0 0 0 0 0 0 0 0 0 127 0" result="hardAlpha"/>
<feOffset dx="-1" dy="-1"/>
<feGaussianBlur stdDeviation="1.5"/>
<feComposite in2="hardAlpha" operator="arithmetic" k2="-1" k3="1"/>
<feColorMatrix type="matrix" values="0 0 0 0 0 0 0 0 0 0 0 0 0 0 0 0 0 0 0.3 0"/>
<feBlend mode="normal" in2="shape" result="effect1_innerShadow_426_11"/>
</filter>
<filter id="filter1_dd_426_11" x="93" y="64" width="32" height="3" filterUnits="userSpaceOnUse" color-interpolation-filters="sRGB">
<feFlood flood-opacity="0" result="BackgroundImageFix"/>
<feColorMatrix in="SourceAlpha" type="matrix" values="0 0 0 0 0 0 0 0 0 0 0 0 0 0 0 0 0 0 127 0" result="hardAlpha"/>
<feOffset dx="-1"/>
<feGaussianBlur stdDeviation="0.5"/>
<feComposite in2="hardAlpha" operator="out"/>
<feColorMatrix type="matrix" values="0 0 0 0 0 0 0 0 0 0 0 0 0 0 0 0 0 0 0.7 0"/>
<feBlend mode="normal" in2="BackgroundImageFix" result="effect1_dropShadow_426_11"/>
<feColorMatrix in="SourceAlpha" type="matrix" values="0 0 0 0 0 0 0 0 0 0 0 0 0 0 0 0 0 0 127 0" result="hardAlpha"/>
<feOffset dx="1"/>
<feGaussianBlur stdDeviation="0.5"/>
<feComposite in2="hardAlpha" operator="out"/>
<feColorMatrix type="matrix" values="0 0 0 0 0 0 0 0 0 0 0 0 0 0 0 0 0 0 0.7 0"/>
<feBlend mode="normal" in2="effect1_dropShadow_426_11" result="effect2_dropShadow_426_11"/>
<feBlend mode="normal" in="SourceGraphic" in2="effect2_dropShadow_426_11" result="shape"/>
</filter>
<filter id="filter2_dd_426_11" x="375" y="64" width="32" height="3" filterUnits="userSpaceOnUse" color-interpolation-filters="sRGB">
<feFlood flood-opacity="0" result="BackgroundImageFix"/>
<feColorMatrix in="SourceAlpha" type="matrix" values="0 0 0 0 0 0 0 0 0 0 0 0 0 0 0 0 0 0 127 0" result="hardAlpha"/>
<feOffset dx="-1"/>
<feGaussianBlur stdDeviation="0.5"/>
<feComposite in2="hardAlpha" operator="out"/>
<feColorMatrix type="matrix" values="0 0 0 0 0 0 0 0 0 0 0 0 0 0 0 0 0 0 0.7 0"/>
<feBlend mode="normal" in2="BackgroundImageFix" result="effect1_dropShadow_426_11"/>
<feColorMatrix in="SourceAlpha" type="matrix" values="0 0 0 0 0 0 0 0 0 0 0 0 0 0 0 0 0 0 127 0" result="hardAlpha"/>
<feOffset dx="1"/>
<feGaussianBlur stdDeviation="0.5"/>
<feComposite in2="hardAlpha" operator="out"/>
<feColorMatrix type="matrix" values="0 0 0 0 0 0 0 0 0 0 0 0 0 0 0 0 0 0 0.7 0"/>
<feBlend mode="normal" in2="effect1_dropShadow_426_11" result="effect2_dropShadow_426_11"/>
<feBlend mode="normal" in="SourceGraphic" in2="effect2_dropShadow_426_11" result="shape"/>
</filter>
<linearGradient id="paint0_linear_426_11" x1="95" y1="65.5" x2="123" y2="65.5" gradientUnits="userSpaceOnUse">
<stop stop-color="white"/>
<stop offset="1" stop-color="#DDDDDD"/>
</linearGradient>
<linearGradient id="paint1_linear_426_11" x1="377" y1="65.5" x2="405" y2="65.5" gradientUnits="userSpaceOnUse">
<stop stop-color="white"/>
<stop offset="1" stop-color="#DDDDDD"/>
</linearGradient>
</defs>
</svg>
