<svg width="694" height="200" viewBox="0 0 694 200" fill="none" xmlns="http://www.w3.org/2000/svg">
<path d="M583.044 0.00845106C583.464 0.0163552 583.884 0.0246836 584.304 0.0333941C584.751 0.0278764 585.199 0.0206318 585.647 0.0118016C586.858 -0.00666866 588.067 0.000415885 589.278 0.0133431C590.548 0.0236764 591.818 0.0140801 593.088 0.00770649C595.22 0.000318881 597.352 0.010028 599.484 0.0294231C601.945 0.0515548 604.405 0.0443855 606.866 0.0219963C608.984 0.003511 611.101 0.000953945 613.218 0.0115811C614.481 0.0179044 615.743 0.0188151 617.006 0.00533318C618.194 -0.00646504 619.38 0.00180972 620.568 0.0252349C621.002 0.0305869 621.437 0.0291075 621.871 0.0201005C623.221 -0.00529977 624.402 0.0486305 625.674 0.559556C626.699 1.55454 627.298 2.82873 627.877 4.11678C628.232 4.88098 628.665 5.59509 629.098 6.31702C629.414 6.8657 629.73 7.41459 630.045 7.96368C630.398 8.57646 630.75 9.18923 631.103 9.802C631.281 10.1113 631.459 10.4205 631.642 10.7392C632.343 11.9578 633.046 13.1753 633.75 14.3928C635.136 16.7927 636.518 19.1949 637.89 21.6028C639.205 23.9104 640.541 26.2052 641.882 28.4977C643.04 30.4792 644.182 32.4693 645.317 34.4637C646.348 36.2719 647.394 38.0708 648.445 39.8675C649.631 41.8945 650.808 43.9261 651.969 45.967C653.115 47.9791 654.274 49.9829 655.443 51.9818C657.288 55.1381 659.116 58.304 660.941 61.4721C661.462 62.375 661.983 63.2774 662.504 64.1797C664.064 66.8819 665.622 69.5853 667.167 72.2965C668.465 74.5721 669.781 76.836 671.103 79.0973C672.788 81.9807 674.455 84.874 676.122 87.7678C676.643 88.6706 677.164 89.573 677.685 90.4754C679.245 93.1775 680.803 95.881 682.348 98.5921C683.644 100.865 684.959 103.127 686.28 105.386C687.991 108.315 689.687 111.253 691.379 114.194C691.771 114.875 692.164 115.556 692.558 116.237C692.758 116.585 692.958 116.933 693.158 117.28C693.405 117.709 693.405 117.709 693.657 118.146C693.988 118.754 693.988 118.754 693.988 119.025C678.87 119.025 663.751 119.025 648.174 119.025C647.28 117.415 646.385 115.805 645.463 114.146C644.465 112.442 644.465 112.442 643.461 110.742C642.698 109.45 641.953 108.147 641.211 106.843C639.472 103.791 637.716 100.749 635.959 97.7074C635.256 96.4898 634.554 95.2717 633.851 94.0537C632.411 91.5563 630.969 89.0598 629.524 86.5653C628.464 84.7358 627.408 82.9045 626.352 81.073C623.417 75.9814 623.417 75.9814 620.462 70.9019C618.57 67.667 616.696 64.4221 614.84 61.1667C613.12 58.1517 611.386 55.1451 609.65 52.1398C608.761 50.6021 607.873 49.064 606.986 47.5257C606.816 47.2317 606.646 46.9376 606.471 46.6346C605.276 44.5627 604.085 42.4885 602.902 40.4096C601.354 42.8285 599.878 45.2703 598.497 47.789C597.74 49.1667 596.961 50.5281 596.159 51.8801C595.16 53.5654 594.18 55.2603 593.211 56.963C591.887 59.2888 590.543 61.603 589.192 63.9133C587.857 66.1973 586.534 68.4881 585.218 70.7829C584.905 71.3258 584.583 71.8627 584.25 72.3935C583.762 73.2202 583.45 74.0447 583.139 74.9518C582.445 76.7325 581.673 78.2639 580.131 79.4465C577.116 80.4875 573.718 80.1599 570.577 80.0512C569.31 80.0137 568.043 80.0104 566.776 80.0033C564.381 79.9849 561.987 79.936 559.593 79.876C556.865 79.8091 554.137 79.7765 551.409 79.7466C545.801 79.6844 540.195 79.5796 534.588 79.4465C534.964 78.2725 535.397 77.2878 536.037 76.2315C536.307 75.7817 536.307 75.7817 536.582 75.3228C536.677 75.1663 536.772 75.0098 536.869 74.8486C537.368 74.0251 537.862 73.1983 538.356 72.3717C538.453 72.2085 538.551 72.0453 538.651 71.8771C539.412 70.6016 540.144 69.313 540.857 68.0099C542.026 65.8761 543.247 63.7746 544.476 61.6751C545.661 59.6516 546.837 57.6228 548.007 55.5906C549.32 53.3097 550.642 51.034 551.971 48.7626C553.374 46.3666 554.747 43.9558 556.108 41.5363C557.073 39.8235 558.058 38.1242 559.06 36.4328C559.925 34.9707 560.771 33.4987 561.612 32.0228C564.622 26.7401 567.674 21.4809 570.722 16.22C571.08 15.6027 571.437 14.9854 571.795 14.3682C571.915 14.1612 572.035 13.9543 572.158 13.7411C572.894 12.4705 573.628 11.1986 574.36 9.92589C574.623 9.46806 574.623 9.46806 574.892 9.00098C575.232 8.41005 575.572 7.81895 575.911 7.22765C576.228 6.67705 576.55 6.12899 576.876 5.58395C577.259 4.93142 577.587 4.27287 577.897 3.58321C579.095 1.06943 580.115 0.0442515 583.044 0.00845106Z" fill="#0082C8"/>
<path d="M648.174 40.1385C648.353 40.1385 648.532 40.1385 648.716 40.1385C648.811 40.3098 648.906 40.481 649.004 40.6574C651.077 44.3857 653.184 48.0906 655.341 51.771C656.343 53.4804 657.334 55.1956 658.323 56.9122C658.492 57.205 658.661 57.4978 658.834 57.7995C659.176 58.3931 659.518 58.9868 659.86 59.5805C660.708 61.0522 661.557 62.5232 662.406 63.9944C662.745 64.5817 663.084 65.1691 663.423 65.7565C663.674 66.1926 663.674 66.1926 663.931 66.6375C667.15 72.2174 670.37 77.7973 673.589 83.3773C673.757 83.6681 673.924 83.959 674.097 84.2586C674.435 84.8449 674.774 85.4311 675.112 86.0174C675.969 87.5029 676.826 88.9882 677.684 90.4732C679.244 93.1762 680.803 95.8803 682.348 98.5921C683.644 100.865 684.959 103.127 686.28 105.386C687.991 108.315 689.687 111.253 691.379 114.194C691.771 114.875 692.164 115.556 692.558 116.237C692.758 116.585 692.958 116.933 693.158 117.28C693.323 117.566 693.487 117.851 693.657 118.145C693.988 118.754 693.988 118.754 693.988 119.025C678.87 119.025 663.751 119.025 648.174 119.025C647.28 117.415 646.385 115.805 645.463 114.146C644.465 112.442 644.465 112.442 643.461 110.742C642.698 109.45 641.953 108.147 641.211 106.843C639.471 103.791 637.716 100.749 635.959 97.7074C635.256 96.4896 634.553 95.2713 633.851 94.0531C633.023 92.6178 632.195 91.1828 631.367 89.7479C631.227 89.5056 631.087 89.2633 630.943 89.0137C630.682 88.562 630.421 88.1103 630.16 87.6587C629.918 87.2399 629.676 86.8209 629.436 86.4015C628.836 85.3614 628.224 84.3325 627.589 83.3137C627.461 83.1051 627.333 82.8965 627.201 82.6816C626.958 82.2879 626.712 81.8964 626.462 81.5076C626.3 81.2437 626.3 81.2437 626.135 80.9745C626.039 80.8227 625.943 80.671 625.844 80.5146C625.518 79.5087 625.823 78.6214 626.259 77.6921C626.391 77.4729 626.523 77.2537 626.659 77.0278C626.883 76.65 626.883 76.65 627.111 76.2645C627.274 75.995 627.437 75.7255 627.605 75.4479C627.954 74.8614 628.302 74.2747 628.65 73.6879C628.831 73.3854 629.011 73.0829 629.197 72.7712C630.064 71.3104 630.91 69.8381 631.756 68.3657C632.098 67.7727 632.44 67.1797 632.781 66.5867C632.951 66.2924 633.12 65.9982 633.295 65.695C633.801 64.8172 634.308 63.9398 634.814 63.0625C636.472 60.1929 638.126 57.3206 639.769 54.4422C640.582 53.0174 641.396 51.593 642.21 50.1688C642.302 50.0088 642.393 49.8487 642.488 49.6838C643.122 48.574 643.759 47.4652 644.396 46.3567C644.557 46.0748 644.718 45.793 644.885 45.5026C645.673 44.1322 646.477 42.7723 647.309 41.4273C647.462 41.1797 647.615 40.9322 647.772 40.6771C647.905 40.4994 648.037 40.3217 648.174 40.1385Z" fill="#00A3E4"/>
<path d="M584.18 0.248861C584.628 0.242813 585.076 0.235873 585.523 0.228108C586.738 0.210114 587.953 0.20614 589.168 0.205789C590.183 0.204533 591.198 0.197223 592.213 0.190164C594.61 0.173913 597.006 0.169821 599.402 0.172617C601.871 0.17523 604.339 0.154748 606.808 0.12327C608.93 0.0971918 611.052 0.086876 613.174 0.0887963C614.44 0.0897011 615.706 0.0844011 616.973 0.0633727C618.165 0.0441525 619.356 0.0446482 620.548 0.059987C620.984 0.0623219 621.42 0.0577821 621.856 0.0456774C623.21 0.0106042 624.395 0.0549091 625.674 0.559594C626.702 1.5523 627.299 2.8277 627.877 4.11633C628.232 4.88097 628.665 5.59505 629.098 6.31706C629.414 6.86573 629.73 7.41462 630.045 7.96371C630.398 8.5765 630.75 9.18927 631.103 9.80204C631.281 10.1113 631.459 10.4206 631.642 10.7392C632.343 11.9579 633.046 13.1754 633.75 14.3929C635.136 16.7928 636.518 19.1949 637.89 21.6029C639.203 23.9076 640.538 26.1998 641.877 28.4894C643.079 30.5461 644.266 32.6109 645.441 34.6829C646.225 36.0625 647.034 37.4224 647.871 38.7711C648.174 39.3253 648.174 39.3253 648.174 39.8675C618.295 39.8675 588.415 39.8675 557.63 39.8675C557.849 38.7719 557.978 38.2697 558.506 37.3631C558.632 37.1442 558.759 36.9253 558.889 36.6998C559.027 36.4648 559.165 36.2297 559.308 35.9875C559.452 35.7385 559.596 35.4895 559.745 35.2329C560.213 34.4271 560.683 33.623 561.155 32.8192C561.624 32.0166 562.093 31.2138 562.561 30.411C562.879 29.8674 563.197 29.3239 563.515 28.7805C564.772 26.6286 566.001 24.4615 567.223 22.2893C568.188 20.5765 569.173 18.8771 570.175 17.1855C571.039 15.7234 571.886 14.2514 572.727 12.7755C574.01 10.525 575.297 8.27717 576.59 6.0322C576.845 5.58852 576.845 5.58852 577.105 5.13588C577.267 4.85402 577.429 4.57217 577.597 4.28177C577.739 4.03408 577.882 3.78638 578.029 3.53118C578.186 3.26623 578.343 3.00128 578.504 2.72831C578.599 2.46007 578.599 2.46007 578.695 2.18642C579.702 -0.156255 581.986 0.240333 584.18 0.248861Z" fill="#0081C7"/>
<path d="M78.616 99.5071C83.3855 99.4826 88.155 99.4626 92.9246 99.4509C95.1393 99.4453 97.354 99.4377 99.5687 99.4253C101.5 99.4145 103.43 99.4075 105.361 99.4051C106.383 99.4037 107.405 99.4004 108.427 99.3925C109.39 99.3851 110.353 99.3828 111.316 99.3845C111.835 99.384 112.355 99.3782 112.875 99.3722C116.075 99.3874 118.035 100.609 120.364 102.76C122.941 105.551 123.784 107.638 123.723 111.41C123.721 111.771 123.719 112.133 123.718 112.494C123.714 113.439 123.703 114.384 123.691 115.329C123.68 116.296 123.675 117.262 123.67 118.229C123.658 120.121 123.64 122.013 123.617 123.905C123.882 123.902 124.147 123.899 124.421 123.897C125.407 123.887 126.393 123.88 127.379 123.875C127.806 123.873 128.232 123.869 128.659 123.864C129.272 123.858 129.886 123.855 130.5 123.852C130.69 123.849 130.88 123.847 131.076 123.844C132.065 123.843 132.822 123.872 133.647 124.447C134.356 125.632 134.27 126.904 134.257 128.243C134.259 128.458 134.261 128.673 134.263 128.895C134.26 130.04 134.251 131.029 133.647 132.038C132.895 132.498 132.33 132.647 131.455 132.645C131.236 132.646 131.018 132.647 130.793 132.647C130.557 132.645 130.32 132.644 130.075 132.642C129.698 132.642 129.698 132.642 129.314 132.642C128.484 132.641 127.653 132.637 126.823 132.633C126.247 132.632 125.672 132.631 125.096 132.631C123.58 132.629 122.065 132.623 120.55 132.617C119.004 132.612 117.457 132.609 115.911 132.606C112.877 132.601 109.843 132.591 106.809 132.58C106.809 135.801 106.809 139.021 106.809 142.339C107.925 142.327 109.042 142.314 110.191 142.301C111.084 142.294 111.977 142.288 112.87 142.283C113.81 142.277 114.751 142.27 115.692 142.257C116.773 142.243 117.853 142.238 118.934 142.233C119.27 142.228 119.605 142.222 119.951 142.216C122.947 142.216 122.947 142.216 124.159 143.424C124.795 144.614 124.781 145.788 124.78 147.106C124.782 147.337 124.783 147.568 124.785 147.806C124.791 148.568 124.792 149.33 124.792 150.092C124.794 150.622 124.796 151.152 124.798 151.683C124.801 152.793 124.802 153.904 124.802 155.014C124.802 156.438 124.809 157.861 124.818 159.285C124.824 160.379 124.825 161.474 124.825 162.569C124.826 163.094 124.828 163.619 124.832 164.144C124.838 164.877 124.836 165.61 124.833 166.343C124.836 166.56 124.839 166.777 124.842 167.001C124.831 167.971 124.786 168.523 124.192 169.308C122.803 170.302 120.935 170.049 119.296 170.058C118.899 170.066 118.899 170.066 118.494 170.075C117.009 170.083 115.954 170.014 114.671 169.177C114.581 169.088 114.492 168.998 114.4 168.906C114.4 162.912 114.4 156.918 114.4 150.743C102.412 150.743 90.4246 150.743 78.0738 150.743C78.0738 147.97 78.0738 145.196 78.0738 142.339C84.0676 142.339 90.0613 142.339 96.2367 142.339C96.2367 139.119 96.2367 135.898 96.2367 132.58C87.3803 132.58 78.5238 132.58 69.3989 132.58C69.3989 129.717 69.3989 126.855 69.3989 123.905C83.8019 123.905 98.2049 123.905 113.044 123.905C112.955 118.895 112.865 113.886 112.773 108.724C112.099 108.387 111.644 108.415 110.89 108.41C110.606 108.408 110.322 108.405 110.03 108.402C109.718 108.401 109.406 108.399 109.084 108.397C108.756 108.395 108.428 108.392 108.09 108.389C107.189 108.382 106.289 108.376 105.388 108.371C104.447 108.365 103.507 108.357 102.566 108.35C100.784 108.337 99.0023 108.324 97.2204 108.313C95.192 108.299 93.1636 108.285 91.1352 108.269C86.9621 108.239 82.7891 108.21 78.616 108.182C78.616 105.319 78.616 102.457 78.616 99.5071Z" fill="#1E1E20"/>
<path d="M148.015 139.899C162.507 139.899 177 139.899 191.931 139.899C191.948 144.11 191.965 148.32 191.982 152.658C191.993 154.648 191.993 154.648 192.004 156.679C192.008 158.306 192.008 158.306 192.009 159.068C192.01 159.598 192.013 160.128 192.017 160.658C192.023 161.463 192.024 162.268 192.024 163.073C192.026 163.308 192.029 163.542 192.032 163.784C192.024 165.394 191.8 166.736 190.73 168.013C189.442 168.998 188.395 169.513 186.768 169.524C186.499 169.527 186.23 169.53 185.953 169.534C185.661 169.534 185.369 169.535 185.068 169.535C184.758 169.538 184.448 169.541 184.128 169.544C183.103 169.552 182.077 169.555 181.052 169.558C180.337 169.561 179.623 169.564 178.909 169.568C177.602 169.573 176.296 169.576 174.989 169.578C173.072 169.58 171.155 169.59 169.238 169.605C167.573 169.618 165.907 169.623 164.242 169.624C163.536 169.625 162.83 169.63 162.125 169.637C161.134 169.646 160.145 169.645 159.155 169.641C158.721 169.649 158.721 169.649 158.28 169.657C155.471 169.626 153.284 168.366 151.246 166.483C144.202 158.909 148.015 152.911 148.015 139.899Z" fill="#1D1D1F"/>
<path d="M583.045 119.33C585.549 121.488 587.46 124.437 587.78 127.778C588.031 131.781 587.506 135.03 585.01 138.273C584.827 138.523 584.827 138.523 584.64 138.778C582.539 141.454 579.352 143.037 576.064 143.695C576.064 145.484 576.064 147.273 576.064 149.116C576.592 149.111 577.12 149.105 577.665 149.099C579.41 149.082 581.155 149.069 582.9 149.06C583.959 149.055 585.017 149.047 586.075 149.035C587.096 149.023 588.117 149.016 589.138 149.014C589.528 149.011 589.918 149.008 590.307 149.002C590.853 148.994 591.399 148.993 591.944 148.993C592.255 148.991 592.566 148.988 592.886 148.986C593.859 149.145 594.169 149.435 594.769 150.201C595.163 151.272 595.1 152.409 595.108 153.539C595.117 153.837 595.117 153.837 595.125 154.142C595.135 155.557 594.895 156.537 594.227 157.791C593.458 158.176 592.813 158.096 591.953 158.095C591.773 158.095 591.593 158.095 591.408 158.096C590.802 158.096 590.197 158.095 589.592 158.093C589.159 158.093 588.727 158.093 588.294 158.093C587.117 158.093 585.939 158.092 584.762 158.09C583.533 158.088 582.303 158.088 581.074 158.088C578.745 158.087 576.415 158.085 574.086 158.082C571.435 158.079 568.784 158.077 566.133 158.076C560.678 158.073 555.223 158.068 549.769 158.062C549.769 155.11 549.769 152.158 549.769 149.116C555.136 149.116 560.504 149.116 566.034 149.116C566.034 147.327 566.034 145.538 566.034 143.695C565.603 143.594 565.173 143.493 564.729 143.39C560.927 142.333 557.819 140.03 555.851 136.595C554.078 133.371 553.912 129.759 554.554 126.168C555.808 122.071 558.518 119.328 562.186 117.274C568.878 114.05 577.153 114.855 583.045 119.33Z" fill="#1D1D1F"/>
<path d="M275.426 100.591C280.325 100.561 285.224 100.536 290.123 100.521C292.398 100.514 294.673 100.505 296.947 100.489C298.929 100.476 300.911 100.467 302.894 100.464C303.944 100.462 304.993 100.458 306.043 100.448C307.031 100.439 308.019 100.436 309.006 100.438C309.543 100.438 310.079 100.43 310.615 100.423C310.933 100.425 311.252 100.427 311.579 100.428C311.857 100.427 312.134 100.426 312.419 100.425C313.108 100.591 313.108 100.591 313.603 101.238C313.936 101.981 314.026 102.468 314.029 103.277C314.03 103.523 314.031 103.77 314.032 104.024C314.027 104.405 314.027 104.405 314.023 104.793C314.026 105.047 314.029 105.301 314.032 105.563C314.026 106.914 314.016 107.915 313.108 108.995C311.57 109.764 309.676 109.266 307.957 109.266C307.957 114.187 307.957 119.107 307.957 124.176C309.836 124.176 311.714 124.176 313.65 124.176C315.149 125.675 315.061 126.614 315.073 128.598C315.082 128.941 315.082 128.941 315.09 129.29C315.099 130.681 314.978 131.652 314.192 132.851C313.472 133.211 312.93 133.155 312.123 133.155C311.799 133.155 311.474 133.156 311.14 133.156C310.778 133.155 310.416 133.154 310.055 133.153C309.675 133.153 309.296 133.153 308.917 133.153C307.885 133.153 306.853 133.152 305.822 133.15C304.744 133.148 303.667 133.148 302.589 133.147C300.548 133.147 298.507 133.144 296.466 133.142C294.143 133.139 291.819 133.137 289.496 133.136C284.716 133.133 279.935 133.128 275.155 133.122C275.155 130.17 275.155 127.218 275.155 124.176C277.123 124.176 279.091 124.176 281.119 124.176C281.119 119.256 281.119 114.336 281.119 109.266C279.241 109.266 277.362 109.266 275.426 109.266C275.426 106.404 275.426 103.541 275.426 100.591Z" fill="#1E1E20"/>
<path d="M494.738 142.339C498.137 142.339 501.537 142.339 505.039 142.339C505.039 144.128 505.039 145.917 505.039 147.761C512.733 147.761 520.426 147.761 528.353 147.761C528.353 145.972 528.353 144.183 528.353 142.339C531.842 142.339 535.331 142.339 538.925 142.339C538.969 147.913 538.969 147.913 538.978 150.301C538.985 151.927 538.992 153.552 539.007 155.177C539.019 156.488 539.025 157.8 539.028 159.111C539.03 159.609 539.034 160.108 539.04 160.607C539.1 165.931 539.1 165.931 537.841 167.821C536.534 169.079 535.329 169.479 533.529 169.488C533.127 169.491 533.127 169.491 532.718 169.494C532.426 169.495 532.134 169.495 531.834 169.496C531.525 169.498 531.216 169.5 530.898 169.501C529.876 169.507 528.854 169.51 527.832 169.513C527.308 169.514 527.308 169.514 526.774 169.516C525.116 169.521 523.458 169.525 521.801 169.527C519.891 169.53 517.982 169.537 516.072 169.548C514.415 169.557 512.758 169.56 511.101 169.561C510.397 169.563 509.694 169.566 508.991 169.571C508.006 169.578 507.021 169.577 506.036 169.575C505.746 169.579 505.457 169.582 505.158 169.586C501.966 169.564 500.011 168.055 497.72 165.924C495.87 163.928 494.63 162.138 494.645 159.358C494.645 159.173 494.645 158.987 494.645 158.796C494.646 158.19 494.652 157.585 494.658 156.979C494.66 156.556 494.661 156.134 494.662 155.711C494.665 154.603 494.673 153.496 494.682 152.388C494.692 151.057 494.695 149.725 494.7 148.394C494.708 146.375 494.724 144.357 494.738 142.339Z" fill="#1F1F21"/>
<path d="M252.655 138.815C252.961 138.95 253.267 139.084 253.583 139.223C257.748 141.251 260.669 144.558 262.403 148.83C263.817 152.972 263.541 157.01 261.795 161.034C260.842 162.929 259.567 164.427 258.077 165.924C257.917 166.094 257.756 166.264 257.591 166.439C254.24 169.708 249.172 171.158 244.59 171.176C239.053 171.072 234.024 169.341 229.951 165.484C226.449 161.782 225.36 157.583 225.463 152.628C225.657 148.388 227.857 144.83 230.905 142.003C236.579 137.013 245.768 135.668 252.655 138.815Z" fill="#1E1E20"/>
<path d="M325.576 140.989C329.153 143.745 331.479 147.334 332.27 151.793C332.305 152.166 332.332 152.538 332.355 152.912C332.373 153.147 332.39 153.383 332.408 153.626C332.579 157.89 331.062 161.742 328.238 164.89C324.724 168.63 320.119 170.905 314.95 171.141C309.148 171.287 303.659 169.789 299.34 165.755C296.393 162.862 294.675 159.014 294.594 154.903C294.561 150.052 295.848 146.225 299.241 142.617C306.378 135.907 317.65 135.64 325.576 140.989Z" fill="#1E1E20"/>
<path d="M670.945 79.7175C671.124 79.7175 671.303 79.7175 671.487 79.7175C671.566 79.8559 671.645 79.9943 671.726 80.1369C673.326 82.9485 674.936 85.7531 676.57 88.5449C678.057 91.0854 679.523 93.6374 680.98 96.1949C682.408 98.7009 683.854 101.196 685.311 103.686C686.449 105.631 687.571 107.586 688.685 109.545C689.434 110.861 690.192 112.172 690.958 113.479C691.132 113.776 691.307 114.073 691.486 114.379C691.826 114.959 692.167 115.538 692.509 116.117C692.663 116.379 692.816 116.64 692.974 116.91C693.111 117.142 693.248 117.374 693.389 117.613C693.717 118.212 693.717 118.212 693.988 119.025C678.869 119.025 663.751 119.025 648.174 119.025C648.89 117.773 649.605 116.521 650.343 115.23C651.017 114.025 651.017 114.025 651.689 112.818C653.412 109.722 655.176 106.654 656.967 103.598C657.969 101.888 658.96 100.173 659.949 98.4566C660.202 98.0173 660.202 98.0173 660.461 97.5692C660.803 96.9756 661.145 96.382 661.487 95.7883C662.501 94.0272 663.517 92.2667 664.534 90.5066C665.328 89.1306 666.121 87.7541 666.912 86.3757C667.285 85.7248 667.659 85.0741 668.032 84.4235C668.296 83.9642 668.559 83.5045 668.822 83.0447C668.981 82.7666 669.141 82.4884 669.306 82.2018C669.446 81.9571 669.587 81.7123 669.731 81.4602C670.107 80.8438 670.476 80.2663 670.945 79.7175Z" fill="#01A3E4"/>
<path d="M557.088 39.8676C557.86 40.7915 558.493 41.7204 559.084 42.768C559.256 43.0698 559.427 43.3716 559.603 43.6825C559.738 43.9217 559.738 43.9217 559.875 44.1657C560.259 44.8466 560.645 45.526 561.03 46.2055C561.23 46.557 561.429 46.9086 561.628 47.2603C562.597 48.9692 563.577 50.671 564.56 52.3715C564.896 52.9532 565.232 53.535 565.568 54.1167C565.817 54.5475 565.817 54.5475 566.071 54.9871C566.582 55.8714 567.092 56.756 567.601 57.6408C569.234 60.475 570.872 63.306 572.523 66.1293C573.949 68.5671 575.358 71.0137 576.759 73.4657C576.851 73.6259 576.942 73.7861 577.037 73.9512C578.08 75.7769 579.11 77.6084 580.131 79.4466C565.102 79.4466 550.072 79.4466 534.588 79.4466C535.007 78.1882 535.369 77.3353 536.037 76.2316C536.307 75.7818 536.307 75.7818 536.582 75.3228C536.677 75.1664 536.772 75.0099 536.869 74.8487C537.368 74.0251 537.862 73.1984 538.356 72.3718C538.502 72.127 538.502 72.127 538.651 71.8772C539.412 70.6017 540.144 69.313 540.857 68.01C542.026 65.8762 543.247 63.7747 544.476 61.6752C545.661 59.6517 546.837 57.6229 548.007 55.5907C549.327 53.299 550.654 51.0117 551.988 48.7288C553.709 45.7865 555.404 42.8304 557.088 39.8676Z" fill="#00A3E3"/>
<path d="M625.674 79.4465C640.613 79.4465 655.553 79.4465 670.945 79.4465C670.527 80.4939 670.102 81.3778 669.544 82.347C669.285 82.7997 669.285 82.7997 669.02 83.2616C668.832 83.5882 668.643 83.9148 668.455 84.2414C668.259 84.5817 668.064 84.9221 667.868 85.2625C667.366 86.1373 666.862 87.0115 666.358 87.8856C666.08 88.3679 665.802 88.8504 665.525 89.3329C663.58 92.7156 661.622 96.0904 659.652 99.4587C658.433 101.546 657.232 103.643 656.036 105.742C654.635 108.2 653.225 110.652 651.8 113.095C651.649 113.354 651.499 113.612 651.343 113.878C650.389 115.511 649.421 117.135 648.445 118.754C647.777 118.118 647.229 117.541 646.795 116.726C646.696 116.543 646.597 116.36 646.495 116.171C646.389 115.972 646.283 115.774 646.175 115.569C645.086 113.565 643.958 111.588 642.803 109.622C641.547 107.481 640.309 105.331 639.092 103.167C637.748 100.776 636.377 98.402 634.991 96.0349C633.65 93.743 632.322 91.4438 630.997 89.1419C630.128 87.6315 629.253 86.1243 628.369 84.6226C628.192 84.3225 628.016 84.0223 627.834 83.713C627.496 83.1385 627.156 82.5645 626.816 81.9912C626.666 81.7357 626.516 81.4803 626.361 81.2171C626.161 80.8798 626.161 80.8798 625.957 80.5357C625.674 79.9887 625.674 79.9887 625.674 79.4465Z" fill="#0082C8"/>
<path d="M580.402 1.10181C580.532 1.33402 580.532 1.33402 580.665 1.57092C582.523 4.87851 584.404 8.1712 586.321 11.445C587.341 13.1872 588.349 14.9351 589.348 16.6894C590.65 18.9762 591.971 21.2511 593.3 23.5228C594.645 25.8242 595.977 28.1324 597.307 30.4426C598.179 31.9553 599.054 33.4657 599.936 34.9721C600.113 35.2735 600.289 35.5749 600.471 35.8854C600.81 36.4632 601.149 37.0407 601.489 37.6178C601.639 37.8741 601.789 38.1305 601.944 38.3946C602.144 38.734 602.144 38.734 602.347 39.0803C602.631 39.5965 602.631 39.5965 602.631 39.8675C587.781 39.8675 572.931 39.8675 557.63 39.8675C557.849 38.7719 557.978 38.2697 558.506 37.3631C558.632 37.1443 558.759 36.9254 558.889 36.6998C559.027 36.4648 559.165 36.2298 559.308 35.9876C559.452 35.7386 559.596 35.4895 559.745 35.233C560.213 34.4272 560.683 33.6231 561.155 32.8192C561.624 32.0166 562.093 31.2138 562.561 30.4111C562.879 29.8674 563.197 29.3239 563.515 28.7806C564.772 26.6287 566.001 24.4615 567.223 22.2894C568.188 20.5765 569.173 18.8771 570.175 17.1855C571.039 15.7234 571.886 14.2514 572.727 12.7756C574.019 10.5072 575.319 8.24295 576.624 5.98141C576.798 5.67881 576.972 5.3762 577.152 5.06443C577.316 4.77996 577.481 4.49548 577.65 4.20239C577.868 3.82446 577.868 3.82446 578.09 3.43889C578.227 3.20441 578.363 2.96993 578.504 2.72834C578.645 2.47988 578.785 2.23142 578.93 1.97543C579.378 1.27846 579.573 1.10181 580.402 1.10181Z" fill="#005DAB"/>
<path d="M625.403 0.830688C625.582 0.830688 625.76 0.830688 625.945 0.830688C626.037 0.995433 626.13 1.16018 626.225 1.32991C627.831 4.18596 629.44 7.03888 631.11 9.85837C633.545 13.9767 635.913 18.1352 638.282 22.292C639.467 24.3661 640.671 26.428 641.877 28.4895C643.079 30.5461 644.266 32.611 645.441 34.6829C646.225 36.0625 647.034 37.4224 647.871 38.7711C648.174 39.3253 648.174 39.3253 648.174 39.8675C633.324 39.8675 618.474 39.8675 603.173 39.8675C603.561 38.706 603.855 37.9181 604.456 36.9067C604.678 36.5288 604.678 36.5288 604.906 36.1433C605.066 35.8739 605.227 35.6044 605.393 35.3268C605.739 34.7402 606.085 34.1536 606.431 33.5668C606.609 33.2643 606.788 32.9617 606.972 32.65C607.833 31.1869 608.68 29.7159 609.527 28.2446C609.868 27.6523 610.21 27.06 610.551 26.4677C610.72 26.1735 610.89 25.8794 611.064 25.5763C611.912 24.1046 612.761 22.6335 613.61 21.1624C613.949 20.575 614.288 19.9877 614.627 19.4003C615.305 18.2256 615.982 17.0509 616.66 15.8761C616.912 15.4395 616.912 15.4395 617.169 14.994C617.506 14.4102 617.843 13.8264 618.18 13.2425C618.965 11.8811 619.75 10.5196 620.535 9.15735C620.81 8.67859 621.086 8.1999 621.362 7.72122C621.706 7.12339 622.05 6.52545 622.394 5.92737C622.853 5.13105 623.314 4.33629 623.776 3.54158C623.928 3.276 624.079 3.01041 624.236 2.73678C624.38 2.48797 624.524 2.23917 624.673 1.98282C624.865 1.64944 624.865 1.64944 625.06 1.30933C625.173 1.15138 625.286 0.993427 625.403 0.830688Z" fill="#005DAB"/>
<path d="M208.197 100.591C212.671 100.561 217.146 100.536 221.621 100.521C223.699 100.514 225.776 100.505 227.854 100.489C229.665 100.476 231.475 100.467 233.286 100.464C234.245 100.462 235.204 100.458 236.163 100.448C237.233 100.437 238.302 100.437 239.372 100.438C239.691 100.433 240.01 100.428 240.339 100.423C240.63 100.425 240.92 100.427 241.22 100.428C241.473 100.427 241.726 100.426 241.987 100.425C242.625 100.591 242.625 100.591 243.113 101.238C243.455 101.983 243.543 102.463 243.546 103.277C243.547 103.523 243.548 103.77 243.549 104.024C243.545 104.405 243.545 104.405 243.54 104.793C243.543 105.047 243.546 105.301 243.549 105.563C243.544 106.914 243.533 107.915 242.625 108.995C241.707 109.454 240.666 109.299 239.658 109.293C239.418 109.292 239.178 109.292 238.931 109.292C238.163 109.29 237.395 109.287 236.627 109.283C236.107 109.282 235.587 109.281 235.067 109.28C233.791 109.277 232.515 109.272 231.239 109.266C231.404 109.823 231.571 110.38 231.738 110.936C231.877 111.401 231.877 111.401 232.018 111.876C233.915 117.564 239.058 122.217 243.72 125.72C245.541 127.138 245.541 127.138 245.751 128.067C245.55 129.069 245.016 129.736 244.387 130.513C244.264 130.667 244.141 130.822 244.014 130.981C241.836 133.661 241.836 133.661 240.727 134.207C236.911 134.023 232.903 128.949 230.46 126.328C229.382 125.099 228.441 123.776 227.518 122.429C226.935 121.535 226.935 121.535 226.088 120.923C226.022 121.114 225.956 121.305 225.888 121.501C223.747 126.368 216.75 133.183 211.992 135.562C211.149 135.722 210.598 135.709 209.862 135.243C208.156 133.816 205.77 131.666 205.35 129.412C205.661 127.351 208.071 126.038 209.599 124.804C210.797 123.823 211.943 122.792 213.076 121.736C213.303 121.528 213.529 121.319 213.762 121.104C217.346 117.681 219.189 114.093 220.396 109.266C216.37 109.266 212.344 109.266 208.197 109.266C208.197 106.404 208.197 103.541 208.197 100.591Z" fill="#1E1E20"/>
<path d="M456.243 99.5071C459.732 99.5071 463.221 99.5071 466.815 99.5071C466.815 106.664 466.815 113.821 466.815 121.194C470.573 121.194 474.33 121.194 478.201 121.194C478.201 124.146 478.201 127.099 478.201 130.14C474.444 130.14 470.686 130.14 466.815 130.14C466.822 131.153 466.83 132.165 466.837 133.209C466.859 136.55 466.874 139.891 466.886 143.233C466.893 145.259 466.902 147.285 466.918 149.311C466.931 151.078 466.94 152.844 466.943 154.61C466.945 155.545 466.949 156.48 466.959 157.415C466.97 158.459 466.97 159.503 466.969 160.546C466.974 160.857 466.979 161.167 466.984 161.487C466.97 163.582 466.97 163.582 466.162 164.485C464.66 165.243 463.235 165.169 461.58 165.178C461.204 165.187 461.204 165.187 460.82 165.195C459.263 165.204 458.15 165.069 456.785 164.297C456.233 163.47 456.175 163.314 456.176 162.385C456.175 162.16 456.174 161.936 456.173 161.705C456.174 161.458 456.176 161.212 456.178 160.957C456.177 160.696 456.177 160.434 456.176 160.164C456.175 159.282 456.178 158.401 456.181 157.519C456.181 156.888 456.181 156.258 456.181 155.628C456.181 153.913 456.184 152.198 456.188 150.483C456.191 148.873 456.191 147.264 456.192 145.654C456.193 142.466 456.197 139.277 456.202 136.089C456.207 132.991 456.211 129.894 456.213 126.796C456.213 126.605 456.213 126.415 456.213 126.218C456.214 125.26 456.215 124.303 456.216 123.345C456.221 115.399 456.231 107.453 456.243 99.5071Z" fill="#1E1E20"/>
<path d="M386.573 99.5071C389.973 99.5071 393.372 99.5071 396.875 99.5071C396.875 106.664 396.875 113.821 396.875 121.194C400.632 121.194 404.389 121.194 408.26 121.194C408.26 124.146 408.26 127.099 408.26 130.14C404.503 130.14 400.746 130.14 396.875 130.14C396.879 131.154 396.883 132.168 396.887 133.213C396.901 136.558 396.91 139.902 396.917 143.247C396.921 145.275 396.927 147.303 396.936 149.332C396.944 151.1 396.949 152.867 396.951 154.635C396.952 155.571 396.955 156.508 396.961 157.444C396.967 158.488 396.967 159.533 396.967 160.577C396.97 160.889 396.973 161.2 396.976 161.521C396.974 161.947 396.974 161.947 396.972 162.381C396.973 162.628 396.974 162.876 396.975 163.13C396.854 163.886 396.667 164.113 396.061 164.568C394.526 165.154 393.084 165.201 391.453 165.195C391.219 165.2 390.984 165.204 390.743 165.209C389.239 165.21 388.171 165.022 386.844 164.297C386.376 163.362 386.537 162.281 386.541 161.251C386.54 160.988 386.54 160.725 386.54 160.454C386.539 159.568 386.541 158.682 386.542 157.796C386.542 157.163 386.542 156.53 386.542 155.897C386.542 154.173 386.544 152.45 386.546 150.727C386.547 149.11 386.547 147.492 386.548 145.875C386.548 142.672 386.55 139.468 386.553 136.265C386.555 133.152 386.557 130.04 386.558 126.927C386.558 126.735 386.558 126.544 386.558 126.346C386.559 125.384 386.559 124.422 386.56 123.46C386.562 115.476 386.567 107.491 386.573 99.5071Z" fill="#1D1D1E"/>
<path d="M425.881 104.116C429.459 104.116 433.038 104.116 436.725 104.116C436.74 105.513 436.74 105.513 436.755 106.938C436.768 107.853 436.782 108.768 436.796 109.683C436.805 110.313 436.812 110.943 436.819 111.572C436.918 121.379 440.05 129.233 446.484 136.646C446.678 136.871 446.873 137.096 447.074 137.327C448.427 138.858 449.852 140.301 451.313 141.729C451.967 142.403 452.143 142.677 452.295 143.593C451.988 145.962 449.506 147.85 447.839 149.387C447.021 149.797 446.586 149.794 445.671 149.659C444.851 149.131 444.192 148.445 443.502 147.761C443.223 147.492 442.944 147.224 442.665 146.955C440.817 145.158 439.115 143.298 437.538 141.255C437.335 140.996 437.132 140.737 436.923 140.47C434.999 137.969 433.402 135.32 431.845 132.58C431.637 132.974 431.637 132.974 431.426 133.376C428.449 138.912 422.295 148.808 415.952 150.777C414.777 150.733 414.32 150.393 413.411 149.659C413.148 149.468 412.885 149.278 412.615 149.083C411.29 147.95 410.12 146.437 409.655 144.751C409.616 143.966 409.616 143.966 409.861 143.475C410.004 143.33 410.147 143.184 410.293 143.034C410.468 142.85 410.643 142.667 410.823 142.478C411.2 142.106 411.577 141.734 411.955 141.363C414.355 139.01 416.582 136.656 418.562 133.935C418.671 133.785 418.781 133.635 418.894 133.48C420.892 130.719 422.65 127.923 423.916 124.752C423.992 124.564 424.068 124.376 424.147 124.182C425.794 119.878 425.754 115.61 425.796 111.062C425.805 110.387 425.815 109.712 425.824 109.038C425.848 107.397 425.864 105.756 425.881 104.116Z" fill="#1E1E20"/>
<path d="M344.554 104.658C347.627 104.639 350.7 104.625 353.773 104.616C355.2 104.611 356.627 104.606 358.054 104.596C359.432 104.588 360.81 104.583 362.189 104.581C362.713 104.579 363.238 104.576 363.763 104.572C364.5 104.566 365.237 104.565 365.974 104.566C366.189 104.563 366.405 104.56 366.627 104.557C368.394 104.566 369.863 104.925 371.298 106.02C373.013 107.785 374.428 109.625 375.73 111.706C375.859 111.899 375.989 112.093 376.123 112.292C377.714 115.1 376.987 119.28 376.227 122.26C374.65 127.909 371.299 132.839 367.355 137.109C366.848 137.66 366.366 138.224 365.886 138.798C362.169 143.032 357.375 146.287 352.671 149.319C352.209 149.617 351.751 149.92 351.293 150.223C349.184 151.573 349.184 151.573 347.808 151.285C346.211 150.473 345.496 149.236 344.554 147.761C344.412 147.545 344.269 147.33 344.122 147.108C343.541 146.166 343.218 145.459 343.063 144.355C343.67 142.965 344.71 142.395 345.957 141.582C346.911 140.952 347.84 140.288 348.773 139.628C348.973 139.488 349.172 139.347 349.378 139.203C354.686 135.452 359.703 131.008 363.26 125.532C363.418 125.299 363.576 125.066 363.738 124.825C365.627 121.901 366.579 118.716 366.513 115.23C366.423 114.962 366.334 114.694 366.242 114.417C359.085 114.328 351.928 114.238 344.554 114.146C344.554 111.015 344.554 107.884 344.554 104.658Z" fill="#1E1E20"/>
<path d="M29.8197 118.212C32.7132 120.384 35.0115 123.284 35.7837 126.887C36.1762 131.579 35.3722 135.114 32.3527 138.825C29.6078 141.77 25.2138 143.592 21.219 143.786C16.1149 143.88 11.4147 142.777 7.58936 139.149C4.56009 135.764 3.56582 132.186 3.74778 127.761C3.99768 124.584 5.83119 121.725 8.11565 119.602C14.301 114.39 22.9789 114.071 29.8197 118.212Z" fill="#1E1E20"/>
<path d="M597.48 99.5071C600.969 99.5071 604.458 99.5071 608.053 99.5071C608.071 107.639 608.086 115.771 608.094 123.903C608.095 124.862 608.097 125.822 608.098 126.781C608.098 126.972 608.098 127.164 608.098 127.36C608.102 130.455 608.108 133.551 608.116 136.646C608.123 139.82 608.128 142.995 608.129 146.17C608.131 147.954 608.133 149.737 608.139 151.521C608.144 153.199 608.146 154.877 608.145 156.554C608.145 157.171 608.147 157.788 608.15 158.405C608.154 159.245 608.153 160.085 608.151 160.925C608.153 161.171 608.155 161.416 608.158 161.67C608.146 163.312 608.146 163.312 607.684 164.165C606.371 165.357 604.581 165.193 602.919 165.178C602.684 165.181 602.448 165.183 602.206 165.185C599.061 165.175 599.061 165.175 597.842 164.211C597.394 163.647 597.379 163.365 597.38 162.652C597.379 162.426 597.377 162.201 597.375 161.969C597.378 161.721 597.38 161.473 597.383 161.218C597.382 160.955 597.381 160.692 597.381 160.421C597.379 159.536 597.384 158.65 597.388 157.765C597.388 157.132 597.388 156.499 597.388 155.866C597.388 154.144 597.392 152.421 597.398 150.699C597.403 149.083 597.403 147.466 597.404 145.85C597.406 142.648 597.411 139.446 597.419 136.244C597.427 133.133 597.432 130.023 597.436 126.912C597.436 126.72 597.436 126.529 597.436 126.331C597.438 125.37 597.439 124.408 597.44 123.446C597.448 115.467 597.463 107.487 597.48 99.5071Z" fill="#1E1E20"/>
<path d="M512.291 116.925C515.012 119.201 516.986 121.786 517.329 125.408C517.369 129.13 516.531 131.967 513.985 134.749C512.136 136.413 510.096 137.482 507.75 138.273C507.496 138.36 507.242 138.446 506.98 138.536C501.6 140.062 495.611 139.273 490.724 136.657C488.028 134.936 486.089 132.429 485.148 129.361C484.468 125.941 485.093 122.85 486.952 119.943C489.341 116.63 492.989 114.949 496.906 114.078C502.046 113.263 508.003 113.764 512.291 116.925Z" fill="#1E1E20"/>
<path d="M45.001 98.6938C48.4005 98.6938 51.7999 98.6938 55.3024 98.6938C55.3024 105.314 55.3024 111.934 55.3024 118.754C59.0597 118.754 62.817 118.754 66.6882 118.754C66.6882 121.707 66.6882 124.659 66.6882 127.7C62.9309 127.7 59.1736 127.7 55.3024 127.7C55.315 129.136 55.3276 130.571 55.3405 132.051C55.3461 132.96 55.3513 133.869 55.3554 134.778C55.3618 136.222 55.3695 137.665 55.3842 139.108C55.396 140.272 55.4025 141.436 55.4053 142.599C55.4073 143.043 55.4112 143.487 55.4171 143.931C55.4249 144.553 55.426 145.175 55.4255 145.796C55.4279 146.15 55.4303 146.504 55.4328 146.869C55.3024 147.761 55.3024 147.761 54.8097 148.405C52.9942 149.757 50.4017 149.549 48.2541 149.388C46.9832 149.128 45.8024 148.835 45.001 147.761C44.9229 147.085 44.8947 146.477 44.9032 145.8C44.9025 145.599 44.9018 145.398 44.9011 145.191C44.8998 144.515 44.9043 143.84 44.9087 143.164C44.9089 142.681 44.9088 142.197 44.9083 141.714C44.9081 140.399 44.9129 139.085 44.9186 137.77C44.9236 136.397 44.9241 135.024 44.9251 133.651C44.9276 131.05 44.9343 128.45 44.9425 125.849C44.9515 122.888 44.956 119.927 44.9601 116.967C44.9686 110.876 44.9835 104.785 45.001 98.6938Z" fill="#1D1D1F"/>
<path d="M140.424 100.591C143.612 100.567 146.801 100.547 149.989 100.535C151.47 100.53 152.95 100.522 154.431 100.51C155.86 100.498 157.289 100.491 158.718 100.489C159.263 100.487 159.808 100.483 160.352 100.477C161.116 100.469 161.88 100.468 162.644 100.468C162.869 100.464 163.093 100.461 163.325 100.457C165.082 100.469 166.034 101.037 167.326 102.241C170.357 105.586 172.113 108.435 171.918 113.013C171.459 118.725 167.001 123.528 162.924 127.158C158.46 130.926 152.92 133.511 147.54 135.681C147.287 135.785 147.034 135.889 146.773 135.996C145.384 136.53 144.338 136.852 142.864 136.375C141.268 134.772 140.058 131.628 139.795 129.408C139.904 128.625 140.092 128.47 140.695 127.971C141.328 127.673 141.328 127.673 142.076 127.394C142.353 127.289 142.63 127.183 142.915 127.074C143.211 126.962 143.507 126.85 143.813 126.735C149.965 124.337 158.137 120.846 161.027 114.417C161.671 112.772 161.84 111.619 161.84 109.808C154.773 109.808 147.705 109.808 140.424 109.808C140.424 106.767 140.424 103.725 140.424 100.591Z" fill="#1E1E20"/>
<path d="M529.166 98.6938C532.655 98.6938 536.144 98.6938 539.739 98.6938C539.769 103.69 539.794 108.685 539.809 113.681C539.816 116 539.825 118.32 539.841 120.64C539.854 122.661 539.863 124.683 539.866 126.705C539.868 127.775 539.872 128.846 539.882 129.916C539.891 130.924 539.894 131.931 539.892 132.939C539.892 133.485 539.9 134.031 539.907 134.577C539.892 137.245 539.892 137.245 539.085 138.083C537.61 139.051 536.068 138.874 534.351 138.883C534.085 138.888 533.819 138.894 533.545 138.9C532.068 138.908 530.967 138.868 529.708 138.002C529.166 137.188 529.166 137.188 529.166 132.851C526.303 132.851 523.441 132.851 520.491 132.851C520.491 130.078 520.491 127.305 520.491 124.447C523.354 124.447 526.217 124.447 529.166 124.447C529.166 122.479 529.166 120.511 529.166 118.483C526.303 118.483 523.441 118.483 520.491 118.483C520.491 115.621 520.491 112.758 520.491 109.808C523.354 109.808 526.217 109.808 529.166 109.808C529.166 106.141 529.166 102.473 529.166 98.6938Z" fill="#1F1F21"/>
<path d="M323.409 98.6938C326.898 98.6938 330.387 98.6938 333.982 98.6938C334.006 103.513 334.026 108.332 334.038 113.151C334.043 115.388 334.051 117.626 334.063 119.863C334.074 121.813 334.081 123.764 334.084 125.714C334.085 126.747 334.088 127.779 334.096 128.812C334.104 129.784 334.106 130.756 334.104 131.728C334.105 132.255 334.11 132.781 334.116 133.308C334.115 133.622 334.113 133.936 334.112 134.26C334.113 134.533 334.114 134.805 334.115 135.086C333.944 136.043 333.566 136.495 332.897 137.188C331.583 137.819 330.294 137.821 328.865 137.815C328.657 137.82 328.45 137.824 328.237 137.829C326.607 137.83 324.973 137.647 323.759 136.467C323.271 135.583 323.317 134.896 323.33 133.889C323.331 133.704 323.332 133.519 323.333 133.328C323.338 132.74 323.348 132.152 323.358 131.563C323.362 131.163 323.366 130.764 323.369 130.364C323.378 129.385 323.394 128.408 323.409 127.429C320.725 127.429 318.041 127.429 315.276 127.429C315.276 124.656 315.276 121.883 315.276 119.026C318.05 119.026 320.823 119.026 323.68 119.026C323.68 117.057 323.68 115.089 323.68 113.062C320.907 113.062 318.134 113.062 315.276 113.062C315.276 110.288 315.276 107.515 315.276 104.658C317.96 104.658 320.644 104.658 323.409 104.658C323.409 102.69 323.409 100.722 323.409 98.6938Z" fill="#202021"/>
<path d="M254.282 98.6938C257.771 98.6938 261.26 98.6938 264.854 98.6938C264.879 103.553 264.899 108.412 264.91 113.271C264.916 115.527 264.924 117.783 264.936 120.039C264.947 122.005 264.954 123.971 264.956 125.938C264.958 126.979 264.961 128.02 264.969 129.061C264.976 130.041 264.978 131.021 264.977 132.001C264.977 132.532 264.983 133.064 264.989 133.595C264.988 133.911 264.986 134.228 264.985 134.553C264.986 134.828 264.987 135.103 264.988 135.386C264.817 136.302 264.486 136.613 263.77 137.188C262.436 137.797 261.176 137.821 259.737 137.815C259.53 137.82 259.323 137.824 259.109 137.829C257.598 137.83 256.475 137.541 255.095 136.917C254.553 136.375 254.553 136.375 254.488 135.682C254.489 135.243 254.489 135.243 254.491 134.796C254.491 134.465 254.491 134.134 254.491 133.793C254.494 133.43 254.497 133.067 254.5 132.705C254.501 132.335 254.502 131.965 254.502 131.595C254.504 130.621 254.51 129.647 254.516 128.672C254.521 127.678 254.524 126.684 254.526 125.691C254.532 123.74 254.542 121.789 254.553 119.839C250.259 119.839 245.965 119.839 241.541 119.839C241.541 116.887 241.541 113.934 241.541 110.893C245.745 110.893 249.95 110.893 254.282 110.893C254.282 106.867 254.282 102.842 254.282 98.6938Z" fill="#1E1E20"/>
<path d="M11.3857 146.948C14.7851 146.948 18.1846 146.948 21.6871 146.948C21.7035 147.802 21.7199 148.657 21.7368 149.538C21.7536 150.363 21.7708 151.189 21.788 152.014C21.7998 152.589 21.8111 153.164 21.8219 153.738C21.8375 154.563 21.8548 155.388 21.8724 156.213C21.8769 156.471 21.8814 156.73 21.8861 156.996C21.8942 157.354 21.8942 157.354 21.9025 157.719C21.9088 158.035 21.9088 158.035 21.9153 158.358C21.9277 158.899 21.9277 158.899 22.2292 159.418C23.0277 159.684 23.553 159.726 24.3856 159.732C24.6627 159.734 24.9398 159.737 25.2253 159.74C25.681 159.742 25.681 159.742 26.1459 159.744C26.466 159.747 26.786 159.75 27.1158 159.753C27.9934 159.76 28.871 159.766 29.7486 159.771C30.6658 159.777 31.5829 159.784 32.5001 159.792C34.2369 159.805 35.9736 159.817 37.7104 159.829C39.6877 159.842 41.6649 159.857 43.6422 159.872C47.7096 159.903 51.7769 159.932 55.8443 159.96C56.7605 162.04 56.7605 162.04 56.756 163.063C56.7558 163.374 56.7558 163.374 56.7555 163.693C56.7511 163.903 56.7468 164.114 56.7423 164.331C56.7431 164.544 56.744 164.757 56.7449 164.976C56.7315 166.423 56.6425 167.565 55.5732 168.635C54.951 168.705 54.951 168.705 54.1575 168.709C53.8573 168.712 53.5571 168.714 53.2478 168.717C52.9168 168.717 52.5859 168.718 52.2449 168.718C51.7239 168.721 51.7239 168.721 51.1923 168.725C50.2372 168.731 49.2821 168.733 48.327 168.734C47.7296 168.735 47.1323 168.737 46.5349 168.739C44.4489 168.746 42.3629 168.749 40.2769 168.75C38.3363 168.751 36.3959 168.759 34.4554 168.771C32.7873 168.78 31.1194 168.784 29.4513 168.784C28.456 168.785 27.4609 168.787 26.4656 168.795C25.3527 168.803 24.2401 168.801 23.1272 168.797C22.8007 168.801 22.4741 168.805 22.1377 168.809C18.737 168.78 16.6642 167.365 14.2893 165.071C13.3472 164.079 12.5869 163.055 11.9279 161.858C11.8336 161.696 11.7393 161.535 11.6422 161.369C11.3377 160.662 11.3203 160.15 11.3241 159.381C11.3242 159.104 11.3242 158.827 11.3243 158.542C11.3271 158.246 11.3299 157.949 11.3327 157.643C11.3335 157.338 11.3343 157.032 11.3351 156.718C11.3381 155.743 11.3449 154.768 11.3518 153.793C11.3545 153.131 11.357 152.47 11.3592 151.809C11.3647 150.189 11.3753 148.568 11.3857 146.948Z" fill="#1D1D1F"/>
<path d="M182.443 98.6938C185.842 98.6938 189.242 98.6938 192.744 98.6938C192.744 102.988 192.744 107.282 192.744 111.706C196.502 111.706 200.259 111.706 204.13 111.706C204.13 114.658 204.13 117.61 204.13 120.652C200.373 120.652 196.615 120.652 192.744 120.652C192.757 121.677 192.769 122.701 192.782 123.757C192.791 124.748 192.797 125.74 192.804 126.731C192.809 127.421 192.817 128.11 192.826 128.799C192.839 129.79 192.845 130.78 192.85 131.771C192.856 132.08 192.861 132.388 192.867 132.706C192.867 132.994 192.867 133.281 192.867 133.578C192.87 133.831 192.872 134.083 192.875 134.344C192.704 135.229 192.349 135.542 191.66 136.104C190.326 136.713 189.066 136.737 187.628 136.731C187.317 136.738 187.317 136.738 187 136.744C185.489 136.746 184.357 136.477 182.985 135.833C182.374 134.917 182.376 134.615 182.378 133.543C182.377 133.236 182.376 132.929 182.375 132.613C182.377 132.277 182.379 131.94 182.381 131.593C182.381 131.238 182.381 130.884 182.381 130.519C182.381 129.547 182.384 128.574 182.388 127.602C182.391 126.586 182.392 125.57 182.392 124.554C182.394 122.63 182.398 120.706 182.404 118.782C182.41 116.592 182.413 114.402 182.416 112.211C182.421 107.705 182.431 103.2 182.443 98.6938Z" fill="#1D1D1F"/>
<path d="M565.763 98.1516C569.162 98.1516 572.562 98.1516 576.064 98.1516C576.064 100.299 576.064 102.446 576.064 104.658C577.066 104.645 578.068 104.633 579.1 104.62C580.071 104.611 581.042 104.605 582.013 104.598C582.687 104.593 583.362 104.585 584.036 104.576C585.006 104.563 585.975 104.557 586.945 104.552C587.246 104.546 587.548 104.541 587.858 104.535C589.94 104.534 589.94 104.534 591.023 105.139C591.992 106.323 591.845 107.62 591.855 109.097C591.864 109.399 591.864 109.399 591.872 109.707C591.882 111.016 591.745 111.953 590.974 113.062C589.955 113.585 589.11 113.671 587.974 113.669C587.478 113.67 587.478 113.67 586.973 113.671C586.609 113.669 586.245 113.667 585.882 113.665C585.497 113.665 585.112 113.665 584.727 113.665C583.684 113.666 582.642 113.662 581.599 113.659C580.508 113.655 579.418 113.655 578.327 113.654C576.263 113.653 574.199 113.648 572.135 113.643C569.785 113.637 567.434 113.634 565.084 113.631C560.25 113.625 555.416 113.615 550.582 113.604C550.582 110.652 550.582 107.699 550.582 104.658C555.592 104.658 560.601 104.658 565.763 104.658C565.763 102.511 565.763 100.364 565.763 98.1516Z" fill="#222224"/>
<path d="M14.6388 98.1516C18.0383 98.1516 21.4377 98.1516 24.9402 98.1516C24.9402 100.299 24.9402 102.446 24.9402 104.658C25.9484 104.645 26.9565 104.633 27.9952 104.62C28.9696 104.611 29.9439 104.605 30.9183 104.598C31.5964 104.593 32.2746 104.585 32.9527 104.576C33.9265 104.563 34.9 104.557 35.8738 104.552C36.1779 104.546 36.4821 104.541 36.7954 104.535C37.0776 104.535 37.3598 104.535 37.6505 104.535C37.8991 104.532 38.1477 104.53 38.4039 104.527C39.0368 104.658 39.0368 104.658 39.5187 105.177C40.5346 106.909 40.4343 109.662 39.9486 111.572C39.7112 112.126 39.4679 112.63 39.0368 113.062C38.5325 113.088 38.0272 113.095 37.5222 113.094C37.1934 113.094 36.8646 113.095 36.5258 113.095C36.158 113.094 35.7903 113.093 35.4226 113.092C35.038 113.092 34.6533 113.092 34.2687 113.092C33.2213 113.092 32.174 113.091 31.1267 113.089C30.0333 113.087 28.9399 113.087 27.8466 113.087C25.7747 113.086 23.7028 113.084 21.631 113.081C19.2728 113.078 16.9147 113.077 14.5566 113.075C9.70437 113.072 4.85219 113.067 0 113.062C0 110.288 0 107.515 0 104.658C4.83081 104.658 9.66161 104.658 14.6388 104.658C14.6388 102.511 14.6388 100.364 14.6388 98.1516Z" fill="#1D1D1F"/>
<path d="M495.822 96.5251C499.221 96.5251 502.621 96.5251 506.123 96.5251C506.123 98.8511 506.123 101.177 506.123 103.573C506.975 103.564 507.826 103.555 508.704 103.545C509.527 103.539 510.351 103.534 511.175 103.529C511.748 103.525 512.321 103.519 512.894 103.512C513.717 103.502 514.539 103.498 515.362 103.494C515.748 103.488 515.748 103.488 516.14 103.481C516.499 103.481 516.499 103.481 516.864 103.481C517.074 103.479 517.284 103.478 517.5 103.476C518.196 103.599 518.429 103.843 518.864 104.387C519.248 105.368 519.181 106.412 519.186 107.453C519.19 107.799 519.194 108.145 519.198 108.501C519.119 109.816 519.009 111.019 518.051 111.977C517.413 112.044 517.413 112.044 516.597 112.042C516.288 112.043 515.979 112.044 515.661 112.045C515.321 112.043 514.981 112.041 514.63 112.039C514.095 112.039 514.095 112.039 513.548 112.039C512.567 112.039 511.587 112.036 510.606 112.032C509.582 112.029 508.558 112.028 507.533 112.028C505.593 112.026 503.653 112.022 501.712 112.016C499.504 112.01 497.295 112.007 495.086 112.005C490.542 111.999 485.998 111.989 481.454 111.977C481.454 109.204 481.454 106.431 481.454 103.573C486.195 103.573 490.937 103.573 495.822 103.573C495.822 101.248 495.822 98.9216 495.822 96.5251Z" fill="#1D1D1F"/>
<path d="M602.631 56.1328C603.492 56.9261 604.055 57.7169 604.627 58.7357C604.798 59.0384 604.97 59.341 605.146 59.6529C605.33 59.9818 605.514 60.3107 605.698 60.6397C605.891 60.9818 606.084 61.3238 606.277 61.6657C606.576 62.1927 606.874 62.7199 607.171 63.2475C608.137 64.9602 609.118 66.6636 610.103 68.3657C610.266 68.6492 610.43 68.9326 610.598 69.2246C611.391 70.5987 612.186 71.9715 612.985 73.342C613.367 73.9983 613.749 74.6551 614.13 75.312C614.401 75.7782 614.674 76.2437 614.947 76.7092C615.19 77.129 615.19 77.129 615.439 77.5573C615.583 77.8049 615.728 78.0525 615.877 78.3076C616.185 78.9043 616.185 78.9043 616.185 79.4465C607.329 79.4465 598.473 79.4465 589.348 79.4465C589.692 78.5858 589.999 77.8473 590.44 77.0533C590.547 76.8613 590.654 76.6693 590.763 76.4716C590.878 76.268 590.992 76.0643 591.11 75.8545C591.23 75.6392 591.35 75.4239 591.474 75.202C592.381 73.5851 593.314 71.9842 594.259 70.3896C595.141 68.9001 595.999 67.3978 596.853 65.892C598.721 62.604 600.674 59.3681 602.631 56.1328Z" fill="#01A3E4"/>
<path d="M158.316 148.845C166.009 148.845 173.703 148.845 181.63 148.845C181.63 152.692 181.63 156.539 181.63 160.502C175.968 160.524 175.968 160.524 173.562 160.529C171.917 160.532 170.273 160.536 168.628 160.543C167.303 160.549 165.977 160.552 164.652 160.554C164.146 160.555 163.639 160.557 163.133 160.559C162.425 160.563 161.718 160.564 161.01 160.564C160.799 160.566 160.588 160.568 160.371 160.57C158.92 160.564 158.92 160.564 158.316 159.96C158.316 156.292 158.316 152.624 158.316 148.845Z" fill="#FEFEFE"/>
<path d="M250.213 147.798C252.03 149.484 252.783 151.671 253.011 154.081C252.772 156.901 251.894 159.078 249.705 160.935C247.445 162.505 244.593 162.688 241.947 162.213C239.793 161.679 238.177 160.425 236.932 158.605C235.714 156.378 235.515 153.975 236.152 151.539C236.874 149.367 238.217 147.821 240.185 146.677C243.375 145.081 247.391 145.76 250.213 147.798Z" fill="#FDFDFD"/>
<path d="M313.193 146.016C313.421 146.018 313.648 146.02 313.883 146.023C316.146 146.084 317.852 146.529 319.563 148.066C321.469 150.211 322.042 152.288 321.896 155.122C321.652 157.369 320.799 159.277 319.072 160.773C316.714 162.363 313.84 162.699 311.074 162.302C308.884 161.795 307.181 160.406 305.93 158.553C304.868 156.532 304.647 154.191 305.119 151.962C305.778 149.846 306.923 148.19 308.771 146.948C310.276 146.159 311.505 145.994 313.193 146.016Z" fill="#FEFEFE"/>
<path d="M160.095 183.003C162.133 184.229 163.38 185.881 164.101 188.14C164.703 190.916 164.392 193.712 163.196 196.286C162.066 198.03 160.654 199.367 158.587 199.81C156.28 200.033 154.031 200.16 152.081 198.726C151.835 198.564 151.589 198.401 151.336 198.234C149.586 196.534 148.736 194.092 148.701 191.69C148.704 191.474 148.707 191.257 148.709 191.034C148.711 190.807 148.713 190.581 148.715 190.348C148.78 187.834 149.451 185.862 151.268 184.087C153.798 182.261 157.167 181.656 160.095 183.003Z" fill="#242425"/>
<path d="M38.4367 183.153C40.2894 184.362 41.4615 186.051 42.1218 188.147C42.7337 191.125 42.3687 194.011 40.85 196.642C39.783 198.221 38.4277 199.225 36.5973 199.81C35.8512 199.893 35.1878 199.94 34.4455 199.929C34.2549 199.927 34.0644 199.925 33.8681 199.924C32.3769 199.879 31.2789 199.623 30.0911 198.726C29.8671 198.568 29.6431 198.41 29.4124 198.247C28.643 197.558 28.2961 196.944 27.8547 196.015C27.7191 195.735 27.5835 195.456 27.4438 195.168C26.4175 192.777 26.3697 189.307 27.2955 186.865C28.2484 184.93 29.5403 183.732 31.4466 182.731C33.5802 182.02 36.4089 182.188 38.4367 183.153Z" fill="#232325"/>
<path d="M363.219 183.187C365.264 184.443 366.217 186.132 366.941 188.369C367.496 191.294 367.224 194.396 365.562 196.902C364.397 198.36 363.014 199.62 361.108 199.882C358.933 200.061 356.633 200.159 354.856 198.726C354.687 198.594 354.519 198.462 354.345 198.327C352.445 196.645 351.731 194.328 351.529 191.854C351.451 189.005 351.851 186.529 353.856 184.358C354.18 184.076 354.513 183.804 354.856 183.545C355.008 183.428 355.16 183.311 355.316 183.19C357.57 181.777 360.896 182.083 363.219 183.187Z" fill="#232324"/>
<path d="M288.608 183.019C290.463 184.123 291.837 185.808 292.384 187.92C292.877 191.087 292.784 194.329 291.082 197.111C290.054 198.48 288.718 199.333 287.083 199.81C284.532 200.128 282.167 200.058 280.035 198.455C279.366 197.882 278.88 197.299 278.408 196.557C278.241 196.298 278.241 196.298 278.069 196.033C276.763 193.488 276.842 189.816 277.624 187.119C278.643 184.936 279.999 183.546 282.225 182.628C284.174 182.001 286.76 182.17 288.608 183.019Z" fill="#222223"/>
<path d="M244.522 183.545C246.115 184.617 247.16 186.091 247.672 187.947C248.061 190.757 248.161 193.781 246.691 196.286C246.586 196.466 246.482 196.646 246.374 196.831C245.391 198.349 244.068 199.244 242.354 199.81C239.544 200.052 237.257 199.939 234.983 198.184C233.047 196.361 232.409 194.079 232.304 191.48C232.358 188.994 232.696 186.526 234.436 184.646C237.229 182.052 241.187 181.41 244.522 183.545Z" fill="#222223"/>
<path d="M46.8984 182.731C56.6125 182.731 56.6125 182.731 58.5892 184.629C59.4093 185.941 59.5678 187.149 59.3685 188.695C58.7305 190.675 57.5368 191.633 55.8444 192.762C56.0243 193.047 56.2043 193.331 56.3897 193.625C57.615 195.57 58.8244 197.511 59.9107 199.539C58.7365 199.83 57.8212 199.902 56.6576 199.539C55.5866 198.488 54.9154 197.086 54.238 195.763C53.9518 195.211 53.6444 194.678 53.3283 194.144C52.8624 193.304 52.8624 193.304 52.8624 192.762C51.8783 192.762 50.8943 192.762 49.8804 192.762C49.8804 194.998 49.8804 197.235 49.8804 199.539C48.8964 199.539 47.9123 199.539 46.8984 199.539C46.8984 193.992 46.8984 188.446 46.8984 182.731Z" fill="#232325"/>
<path d="M579.859 182.731C589.533 182.731 589.533 182.731 591.398 184.46C592.347 186.193 592.49 187.588 592.058 189.509C591.275 191.019 590.196 191.835 588.805 192.762C588.963 193.012 588.963 193.012 589.125 193.267C589.601 194.024 590.076 194.782 590.55 195.54C590.716 195.803 590.882 196.065 591.053 196.336C591.211 196.589 591.369 196.842 591.532 197.103C591.678 197.336 591.825 197.569 591.975 197.809C592.329 198.455 592.329 198.455 592.601 199.539C591.527 199.539 590.454 199.539 589.347 199.539C589.164 199.206 588.981 198.872 588.793 198.529C588.548 198.086 588.304 197.643 588.06 197.201C587.94 196.982 587.819 196.763 587.696 196.537C587.457 196.106 587.215 195.677 586.97 195.25C586.685 194.745 586.427 194.226 586.175 193.704C585.395 192.715 585.395 192.715 582.841 192.762C582.841 194.998 582.841 197.235 582.841 199.539C581.857 199.539 580.873 199.539 579.859 199.539C579.859 193.992 579.859 188.446 579.859 182.731Z" fill="#212123"/>
<path d="M404.194 182.731C413.54 182.731 413.54 182.731 415.292 184.222C416.505 185.694 416.541 186.679 416.514 188.552C416.338 189.943 415.813 190.768 414.766 191.677C414.23 192.047 413.688 192.41 413.14 192.762C413.312 193.041 413.312 193.041 413.488 193.325C414.006 194.165 414.522 195.005 415.037 195.845C415.218 196.138 415.399 196.431 415.586 196.733C415.757 197.012 415.928 197.292 416.105 197.58C416.343 197.967 416.343 197.967 416.587 198.363C416.935 198.997 416.935 198.997 416.935 199.539C415.737 199.897 414.867 199.973 413.682 199.539C412.204 197.891 411.175 195.613 410.379 193.561C409.697 192.713 409.697 192.713 407.176 192.762C407.176 194.998 407.176 197.235 407.176 199.539C406.192 199.539 405.208 199.539 404.194 199.539C404.194 193.992 404.194 188.446 404.194 182.731Z" fill="#232324"/>
<path d="M506.937 182.731C516.303 182.731 516.303 182.731 518.017 184.222C519.257 185.681 519.283 186.676 519.256 188.551C519.08 189.947 518.567 190.77 517.509 191.677C516.594 192.22 516.594 192.22 515.882 192.491C516.729 194.252 517.708 195.874 518.767 197.513C519.678 198.942 519.678 198.942 519.678 199.539C518.539 199.74 517.556 199.809 516.425 199.539C515.521 198.596 515.033 197.482 514.493 196.303C514.208 195.692 513.914 195.085 513.61 194.483C513.486 194.211 513.362 193.94 513.234 193.661C512.459 192.72 512.459 192.72 509.919 192.762C509.919 194.998 509.919 197.235 509.919 199.539C508.934 199.539 507.95 199.539 506.937 199.539C506.937 193.992 506.937 188.446 506.937 182.731Z" fill="#212122"/>
<path d="M335.608 182.731C344.88 182.731 344.88 182.731 346.994 184.494C347.949 185.687 347.916 186.982 347.902 188.471C347.753 189.678 347.258 190.511 346.452 191.406C345.634 192.03 345.311 192.22 344.283 192.22C345.469 194.329 346.673 196.407 348.011 198.425C348.35 198.997 348.35 198.997 348.35 199.539C347.211 199.74 346.228 199.809 345.097 199.539C344.193 198.596 343.705 197.482 343.165 196.303C342.88 195.692 342.586 195.085 342.282 194.483C342.158 194.211 342.034 193.94 341.906 193.661C341.131 192.72 341.131 192.72 338.59 192.762C338.59 194.998 338.59 197.235 338.59 199.539C337.606 199.539 336.622 199.539 335.608 199.539C335.608 193.992 335.608 188.446 335.608 182.731Z" fill="#202022"/>
<path d="M473.321 182.731C482.708 182.731 482.708 182.731 484.283 184.205C484.462 184.367 484.641 184.529 484.825 184.696C485.81 185.8 485.593 187.256 485.577 188.65C485.479 190.134 485.011 190.831 483.978 191.864C481.57 193.667 479.188 193.372 476.303 193.304C476.303 195.361 476.303 197.419 476.303 199.539C475.319 199.539 474.335 199.539 473.321 199.539C473.321 193.992 473.321 188.446 473.321 182.731Z" fill="#252526"/>
<path d="M490.129 182.731C498.991 182.731 498.991 182.731 501.108 184.205C502.2 185.325 502.415 186.118 502.447 187.679C502.417 189.349 502.151 190.469 500.972 191.677C498.743 193.52 495.841 193.361 493.111 193.304C493.111 195.361 493.111 197.419 493.111 199.539C492.127 199.539 491.143 199.539 490.129 199.539C490.129 193.992 490.129 188.446 490.129 182.731Z" fill="#232325"/>
<path d="M318.801 182.731C327.663 182.731 327.663 182.731 329.78 184.205C330.832 185.284 331.082 186.04 331.101 187.543C331.066 189.454 330.626 190.714 329.255 192.05C326.918 193.532 324.462 193.332 321.783 193.304C321.783 195.361 321.783 197.419 321.783 199.539C320.799 199.539 319.815 199.539 318.801 199.539C318.801 193.992 318.801 188.446 318.801 182.731Z" fill="#232325"/>
<path d="M371.934 182.731C380.931 182.731 380.931 182.731 382.761 184.172C384.041 185.84 384.374 187.164 384.133 189.238C383.589 190.903 382.415 191.944 380.909 192.773C378.914 193.586 376.755 193.357 374.645 193.304C374.645 195.361 374.645 197.419 374.645 199.539C373.75 199.539 372.856 199.539 371.934 199.539C371.934 193.992 371.934 188.446 371.934 182.731Z" fill="#202021"/>
<path d="M252.655 182.731C253.639 182.731 254.623 182.731 255.637 182.731C256.364 183.585 256.778 184.197 257.263 185.171C257.503 185.577 257.745 185.981 257.989 186.384C258.228 186.798 258.466 187.213 258.703 187.628C258.83 187.848 258.957 188.068 259.087 188.295C262.307 193.904 262.307 193.904 262.956 195.202C262.956 191.086 262.956 186.971 262.956 182.731C263.851 182.731 264.745 182.731 265.667 182.731C265.667 188.278 265.667 193.824 265.667 199.539C264.683 199.539 263.699 199.539 262.685 199.539C261.941 198.713 261.555 198.15 261.075 197.184C260.944 196.943 260.812 196.702 260.677 196.453C260.398 195.942 260.124 195.428 259.854 194.912C259.291 193.852 258.689 192.817 258.086 191.779C257.673 191.067 257.262 190.354 256.856 189.638C256.744 189.442 256.633 189.247 256.518 189.046C256.115 188.307 255.742 187.551 255.366 186.798C255.366 191.002 255.366 195.207 255.366 199.539C254.471 199.539 253.576 199.539 252.655 199.539C252.655 193.992 252.655 188.446 252.655 182.731Z" fill="#222224"/>
<path d="M574.98 124.718C575.759 125.345 575.759 125.345 576.335 126.074C576.537 126.314 576.738 126.555 576.945 126.802C577.775 128.374 577.888 129.964 577.437 131.682C576.8 133.303 575.622 134.336 574.05 135.046C571.747 135.818 569.727 135.84 567.489 134.857C566.123 134.05 565.239 132.912 564.56 131.496C564.135 129.229 564.457 127.719 565.763 125.803C568.133 123.335 572.033 123.426 574.98 124.718Z" fill="#FDFDFD"/>
<path d="M105.725 182.731C106.888 182.731 108.051 182.731 109.249 182.731C110.6 186.311 111.858 189.921 113.093 193.542C113.216 193.904 113.34 194.267 113.463 194.629C113.578 194.966 113.694 195.303 113.812 195.651C114.07 196.39 114.34 197.121 114.624 197.85C114.942 198.726 114.942 198.726 114.942 199.539C113.958 199.539 112.974 199.539 111.96 199.539C111.837 199.164 111.714 198.79 111.587 198.404C111.352 197.696 111.109 197.009 110.824 196.32C110.604 195.744 110.604 195.744 110.604 194.93C108.547 195.02 106.489 195.109 104.369 195.202C104.196 195.766 104.023 196.331 103.844 196.913C103.574 197.791 103.304 198.667 103.014 199.539C102.03 199.539 101.046 199.539 100.032 199.539C100.612 197.314 101.303 195.151 102.065 192.982C102.171 192.677 102.277 192.373 102.386 192.059C102.877 190.651 103.377 189.248 103.905 187.854C104.272 186.875 104.616 185.887 104.962 184.9C105.073 184.585 105.073 184.585 105.186 184.264C105.366 183.753 105.545 183.242 105.725 182.731Z" fill="#252526"/>
<path d="M197.895 182.731C199.058 182.731 200.221 182.731 201.419 182.731C202.162 184.883 202.904 187.034 203.646 189.186C203.99 190.185 204.335 191.184 204.68 192.182C205.012 193.145 205.345 194.109 205.676 195.072C205.803 195.44 205.93 195.809 206.058 196.177C206.235 196.691 206.412 197.205 206.589 197.719C206.691 198.012 206.792 198.305 206.896 198.607C207.112 199.268 207.112 199.268 207.112 199.539C206.039 199.539 204.965 199.539 203.859 199.539C203.677 198.924 203.496 198.308 203.317 197.692C203.216 197.349 203.116 197.007 203.012 196.653C202.775 195.744 202.775 195.744 202.775 194.93C200.628 194.93 198.481 194.93 196.268 194.93C196.09 195.736 195.911 196.541 195.726 197.37C195.552 198.095 195.368 198.817 195.184 199.539C194.2 199.539 193.216 199.539 192.202 199.539C192.39 198.04 192.853 196.68 193.342 195.259C193.428 195.004 193.515 194.749 193.604 194.487C193.788 193.948 193.972 193.41 194.157 192.872C194.436 192.059 194.712 191.245 194.988 190.431C195.877 187.824 196.789 185.255 197.895 182.731Z" fill="#262627"/>
<path d="M528.006 182.705C528.454 182.71 528.454 182.71 528.912 182.714C529.211 182.717 529.511 182.719 529.819 182.722C530.051 182.725 530.282 182.728 530.521 182.731C531.367 184.544 532.064 186.388 532.719 188.277C532.871 188.71 532.871 188.71 533.025 189.152C533.236 189.758 533.446 190.365 533.656 190.971C533.978 191.9 534.304 192.828 534.629 193.757C534.834 194.347 535.039 194.938 535.244 195.529C535.341 195.806 535.439 196.083 535.539 196.369C535.628 196.627 535.717 196.885 535.808 197.151C535.926 197.49 535.926 197.49 536.046 197.836C536.214 198.455 536.214 198.455 536.214 199.539C535.23 199.539 534.246 199.539 533.232 199.539C533.05 198.924 532.869 198.308 532.69 197.692C532.589 197.349 532.489 197.007 532.385 196.653C532.148 195.744 532.148 195.744 532.148 194.93C530.001 194.93 527.854 194.93 525.642 194.93C525.463 195.736 525.284 196.541 525.099 197.37C524.859 198.111 524.576 198.815 524.286 199.539C523.391 199.539 522.497 199.539 521.575 199.539C521.924 197.839 522.377 196.236 522.962 194.603C523.043 194.374 523.124 194.144 523.208 193.908C523.464 193.181 523.723 192.454 523.981 191.728C524.237 191.006 524.492 190.284 524.747 189.562C524.911 189.098 525.076 188.633 525.24 188.169C525.783 186.636 526.304 185.097 526.801 183.548C527.093 182.735 527.108 182.737 528.006 182.705Z" fill="#262627"/>
<path d="M461.59 182.705C462.038 182.71 462.038 182.71 462.495 182.714C462.795 182.717 463.094 182.719 463.403 182.722C463.634 182.725 463.866 182.728 464.105 182.731C465.012 184.646 465.691 186.608 466.344 188.62C466.729 189.804 467.119 190.987 467.51 192.169C467.586 192.402 467.662 192.634 467.741 192.874C468.208 194.287 468.725 195.665 469.302 197.036C469.612 197.873 469.72 198.652 469.798 199.539C468.813 199.539 467.829 199.539 466.816 199.539C466.633 198.975 466.453 198.41 466.273 197.845C466.173 197.53 466.072 197.216 465.968 196.892C465.731 196.015 465.731 196.015 465.731 194.93C463.584 194.93 461.437 194.93 459.225 194.93C459.046 195.736 458.867 196.541 458.683 197.37C458.443 198.111 458.159 198.815 457.87 199.539C456.975 199.539 456.08 199.539 455.159 199.539C455.263 198.362 455.507 197.364 455.923 196.256C456.468 194.786 456.988 193.309 457.5 191.828C457.681 191.307 457.861 190.787 458.042 190.267C458.322 189.458 458.603 188.649 458.882 187.839C459.155 187.051 459.429 186.262 459.703 185.474C459.787 185.23 459.871 184.986 459.958 184.734C460.035 184.51 460.113 184.287 460.194 184.056C460.262 183.859 460.33 183.661 460.401 183.458C460.695 182.713 460.746 182.735 461.59 182.705Z" fill="#242425"/>
<path d="M82.9531 182.731C84.1161 182.731 85.2791 182.731 86.4773 182.731C87.3541 184.864 88.1229 187.021 88.8663 189.204C89.1042 189.9 89.3426 190.596 89.581 191.292C89.669 191.549 89.669 191.549 89.7588 191.811C90.1232 192.875 90.4941 193.935 90.8708 194.994C90.9595 195.244 91.0481 195.493 91.1395 195.75C91.303 196.209 91.4675 196.667 91.6331 197.126C91.9309 197.963 92.1702 198.643 92.1702 199.539C91.1861 199.539 90.202 199.539 89.1882 199.539C88.9607 198.924 88.735 198.308 88.5105 197.692C88.4458 197.518 88.3812 197.344 88.3145 197.164C88.0304 196.381 87.8327 195.771 87.8327 194.93C85.7752 194.93 83.7176 194.93 81.5977 194.93C81.3293 195.915 81.0609 196.899 80.7844 197.912C80.6092 198.456 80.4317 199 80.2422 199.539C79.2582 199.539 78.2741 199.539 77.2603 199.539C77.8145 197.663 78.4014 195.802 79.0223 193.948C79.1024 193.707 79.1824 193.466 79.2648 193.217C79.6756 191.987 80.104 190.767 80.5653 189.555C81.0391 188.282 81.4756 186.996 81.9196 185.713C82.0194 185.426 82.1191 185.138 82.2219 184.842C82.4659 184.139 82.7095 183.435 82.9531 182.731Z" fill="#242425"/>
<path d="M11.1147 182.731C12.0988 182.731 13.0829 182.731 14.0967 182.731C14.1862 185.147 14.2756 187.562 14.3678 190.051C16.2746 187.945 16.2746 187.945 18.0953 185.781C18.299 185.535 18.5027 185.288 18.7127 185.035C19.2386 184.396 19.2386 184.396 19.5873 183.808C19.8743 183.358 19.8743 183.358 20.6029 182.731C21.7005 182.6 22.7564 182.637 23.8559 182.731C23.094 183.782 22.321 184.804 21.467 185.781C21.3332 185.935 21.1995 186.089 21.0617 186.247C20.7931 186.554 20.5224 186.859 20.2494 187.162C19.4931 188.028 19.0582 188.627 18.9763 189.78C19.253 190.484 19.253 190.484 19.7134 191.171C19.8769 191.435 20.0404 191.698 20.2089 191.97C20.3837 192.242 20.5584 192.515 20.7384 192.796C20.9047 193.062 21.0711 193.328 21.2425 193.603C21.9266 194.695 22.6196 195.781 23.3222 196.862C23.4956 197.129 23.6689 197.397 23.8475 197.673C24.0052 197.915 24.163 198.156 24.3256 198.405C24.6692 198.997 24.6692 198.997 24.6692 199.539C23.5957 199.539 22.5222 199.539 21.4161 199.539C21.2879 199.312 21.1596 199.085 21.0275 198.852C19.6576 196.438 18.2444 194.052 16.8076 191.677C16.3495 192.123 15.8989 192.576 15.4522 193.033C15.2495 193.23 15.0468 193.426 14.838 193.629C14.1504 194.739 14.1855 195.766 14.1645 197.048C14.1565 197.288 14.1484 197.527 14.1401 197.774C14.1211 198.362 14.1083 198.951 14.0967 199.539C13.1127 199.539 12.1286 199.539 11.1147 199.539C11.1147 193.993 11.1147 188.446 11.1147 182.731Z" fill="#242425"/>
<path d="M23.8559 124.989C25.3961 126.598 25.8567 127.974 25.8276 130.18C25.6718 131.806 24.9572 132.927 23.7881 134.037C22.0894 135.358 20.3946 135.402 18.3102 135.146C16.6768 134.847 15.7209 134.084 14.7087 132.82C13.8111 131.474 13.5863 129.827 13.8256 128.243C14.3515 126.57 15.3418 125.391 16.8075 124.447C19.1287 123.484 21.756 123.543 23.8559 124.989Z" fill="#FDFDFD"/>
<path d="M291.149 109.266C293.386 109.266 295.622 109.266 297.927 109.266C297.927 114.187 297.927 119.107 297.927 124.176C295.69 124.176 293.454 124.176 291.149 124.176C291.149 119.256 291.149 114.336 291.149 109.266Z" fill="#FBFBFB"/>
<path d="M287.185 185.188C288.556 186.2 289.447 187.564 289.794 189.238C290.01 191.496 289.756 193.442 288.71 195.473C287.896 196.445 287.109 197.3 285.807 197.461C284.545 197.477 283.538 197.47 282.356 196.997C280.455 195.05 279.935 192.714 279.958 190.08C280.122 188.287 280.955 186.73 282.204 185.442C283.695 184.518 285.565 184.678 287.185 185.188Z" fill="#FBFBFB"/>
<path d="M388.471 182.731C391.96 182.731 395.449 182.731 399.043 182.731C399.043 183.447 399.043 184.163 399.043 184.9C396.538 184.9 394.033 184.9 391.453 184.9C391.453 186.421 391.453 187.942 391.453 189.509C393.6 189.509 395.747 189.509 397.959 189.509C397.959 190.314 397.959 191.119 397.959 191.948C395.812 191.948 393.665 191.948 391.453 191.948C391.453 193.738 391.453 195.527 391.453 197.37C394.047 197.37 396.641 197.37 399.314 197.37C399.314 198.086 399.314 198.802 399.314 199.539C395.736 199.539 392.158 199.539 388.471 199.539C388.471 193.992 388.471 188.446 388.471 182.731Z" fill="#242425"/>
<path d="M241.812 184.9C243.243 185.442 243.931 186.475 244.57 187.811C244.952 188.858 244.966 189.861 244.946 190.966C244.942 191.305 244.942 191.305 244.938 191.65C244.863 193.873 244.302 195.379 242.76 196.997C241.146 197.632 239.304 197.805 237.675 197.109C236.245 196.04 235.672 194.46 235.306 192.762C235.046 190.532 235.2 188.474 236.39 186.527C237.962 184.791 239.565 184.653 241.812 184.9Z" fill="#FBFBFB"/>
<path d="M557.58 183.07C558.477 183.557 558.873 183.95 559.257 184.9C558.72 185.347 558.184 185.795 557.63 186.256C557.34 186.077 557.049 185.898 556.749 185.713C555.283 184.971 553.817 185.026 552.209 185.171C551.94 185.261 551.672 185.35 551.395 185.442C551.351 185.825 551.32 186.21 551.294 186.594C551.275 186.808 551.256 187.022 551.237 187.243C551.347 187.958 551.347 187.958 552.089 188.455C553.048 188.981 554.015 189.388 555.038 189.763C557.087 190.551 558.769 191.256 559.799 193.304C560.084 194.907 560.064 196.408 559.121 197.777C558.217 198.923 556.848 199.647 555.424 199.922C554.822 199.975 554.236 199.988 553.632 199.979C553.421 199.978 553.209 199.977 552.991 199.975C551.066 199.906 549.41 199.382 547.871 198.184C547.515 197.586 547.515 197.586 547.329 197.099C547.939 196.404 547.939 196.404 548.685 195.744C549.504 195.716 549.881 196.096 550.548 196.574C552.005 197.444 553.829 197.32 555.462 197.099C556.117 196.789 556.117 196.789 556.546 196.286C556.766 195.17 556.766 195.17 556.546 194.117C555.551 193.267 554.524 192.819 553.325 192.324C549.554 190.763 549.554 190.763 548.413 188.966C548.046 187.863 548 186.867 548.142 185.713C549.934 182.196 554.144 181.442 557.58 183.07Z" fill="#242425"/>
<path d="M158.706 185.222C160.136 186.233 160.91 187.536 161.298 189.238C161.544 191.644 161.363 194.184 159.824 196.15C158.734 197.213 157.972 197.453 156.452 197.472C155.041 197.443 154.21 197.305 153.165 196.286C151.969 194.617 151.761 193.177 151.759 191.169C151.754 190.887 151.754 190.887 151.749 190.598C151.744 188.646 152.24 187.251 153.436 185.713C154.854 184.425 157 184.633 158.706 185.222Z" fill="#FCFCFC"/>
<path d="M36.0548 184.9C37.5571 185.556 38.3315 186.715 39.0368 188.153C39.7715 190.399 39.4481 193.075 38.4946 195.201C37.8675 196.209 37.1701 196.932 36.0548 197.37C34.5717 197.548 33.234 197.555 31.8529 196.964C30.2268 195.337 29.7709 193.43 29.7689 191.186C29.7656 190.996 29.7623 190.807 29.7588 190.612C29.7533 188.652 30.2458 187.257 31.4463 185.713C32.9122 184.647 34.3033 184.693 36.0548 184.9Z" fill="#FCFCFC"/>
<path d="M605.562 183.07C606.459 183.557 606.856 183.95 607.239 184.9C606.703 185.347 606.166 185.795 605.613 186.256C605.317 186.077 605.02 185.898 604.715 185.713C603.348 185.029 601.965 184.912 600.462 185.171C599.832 185.497 599.832 185.497 599.378 185.984C599.152 186.922 599.152 186.922 599.378 187.882C600.747 188.978 602.31 189.529 603.935 190.147C605.652 190.823 606.974 191.561 607.782 193.304C608.001 194.775 607.972 196.121 607.375 197.489C606.006 198.892 604.49 199.838 602.52 199.875C599.599 199.887 597.648 199.481 595.312 197.641C595.657 196.87 595.976 196.249 596.667 195.744C597.477 195.773 597.869 196.099 598.531 196.574C600.018 197.453 601.784 197.332 603.444 197.099C604.251 196.738 604.36 196.552 604.8 195.744C604.954 194.908 604.954 194.908 604.529 194.117C603.387 193.054 601.865 192.548 600.445 191.965C598.694 191.233 597.295 190.519 596.277 188.882C595.966 187.396 595.882 186.191 596.582 184.815C598.868 182.159 602.359 181.553 605.562 183.07Z" fill="#242425"/>
<path d="M361.091 184.9C362.476 185.599 363.243 186.725 363.802 188.153C364.457 190.232 364.415 192.879 363.48 194.846C362.798 196.012 362.033 196.763 360.82 197.37C359.506 197.48 358.266 197.553 357.041 197.031C356.857 196.875 356.672 196.718 356.482 196.557C356.292 196.412 356.102 196.266 355.906 196.116C354.34 194.133 354.383 191.659 354.585 189.238C354.904 187.409 355.606 186.353 357.024 185.171C358.366 184.724 359.694 184.71 361.091 184.9Z" fill="#FCFCFC"/>
<path d="M141.791 182.684C142.772 183.074 143.611 183.501 144.49 184.087C144.328 184.997 143.99 185.545 143.406 186.256C142.128 185.759 142.128 185.759 141.563 185.43C140.798 185.099 140.172 185.08 139.34 185.07C139.06 185.062 138.781 185.054 138.492 185.046C137.524 185.202 137.21 185.478 136.629 186.256C136.496 187.223 136.496 187.223 136.9 188.153C137.64 188.637 138.251 188.92 139.069 189.238C143.82 191.122 143.82 191.122 145.033 193.033C145.468 194.34 145.408 195.393 145.016 196.709C144.242 198.083 143.309 198.969 141.849 199.578C140.839 199.843 139.886 199.914 138.848 199.912C138.562 199.911 138.562 199.911 138.269 199.91C136.029 199.858 134.485 199.133 132.833 197.641C133.178 196.58 133.514 196.072 134.46 195.473C134.651 195.615 134.651 195.615 134.847 195.76C135.1 195.945 135.1 195.945 135.358 196.133C135.608 196.317 135.608 196.317 135.863 196.505C136.859 197.156 137.758 197.143 138.916 197.15C139.377 197.156 139.377 197.156 139.847 197.162C140.662 197.102 141.109 197.009 141.779 196.557C142.164 195.787 142.136 195.241 142.051 194.388C141.02 192.987 139.299 192.572 137.736 191.972C135.967 191.267 134.638 190.587 133.681 188.865C133.293 187.615 133.089 186.663 133.614 185.421C134.393 184.034 135.201 183.405 136.629 182.731C138.068 182.012 140.283 182.275 141.791 182.684Z" fill="#232325"/>
<path d="M129.038 184.087C129.038 185.146 128.63 185.474 127.954 186.256C127.803 186.177 127.652 186.099 127.496 186.018C126.252 185.413 125.27 185.087 123.871 185.07C123.593 185.062 123.316 185.054 123.031 185.046C122.074 185.202 121.764 185.5 121.177 186.256C120.996 186.933 120.996 186.933 121.177 187.611C122.089 188.809 123.264 189.122 124.633 189.593C126.659 190.334 128.465 191.093 129.626 193.015C130.136 194.281 129.987 195.609 129.563 196.879C128.503 198.418 127.334 199.334 125.514 199.81C124.794 199.874 124.115 199.913 123.396 199.912C123.11 199.911 123.11 199.911 122.817 199.91C120.577 199.858 119.032 199.133 117.381 197.641C117.708 196.965 118.047 196.372 118.466 195.744C119.249 195.907 119.806 196.154 120.482 196.574C121.978 197.348 123.6 197.286 125.243 197.099C126.111 196.77 126.111 196.77 126.598 196.015C126.726 194.855 126.726 194.855 126.199 193.858C125.262 193.1 124.252 192.719 123.142 192.27C119.136 190.578 119.136 190.578 118.195 188.695C118.058 187.203 118.001 185.875 118.618 184.494C121.613 181.422 125.649 182.035 129.038 184.087Z" fill="#222224"/>
<path d="M63.9771 182.731C67.466 182.731 70.9549 182.731 74.5495 182.731C74.5495 183.447 74.5495 184.163 74.5495 184.9C71.9552 184.9 69.3609 184.9 66.6879 184.9C66.6879 186.421 66.6879 187.942 66.6879 189.509C68.835 189.509 70.982 189.509 73.1941 189.509C73.1941 190.314 73.1941 191.119 73.1941 191.948C71.0471 191.948 68.9 191.948 66.6879 191.948C66.6879 193.738 66.6879 195.527 66.6879 197.37C69.3717 197.37 72.0555 197.37 74.8206 197.37C74.8206 198.086 74.8206 198.802 74.8206 199.539C71.2422 199.539 67.6639 199.539 63.9771 199.539C63.9771 193.992 63.9771 188.446 63.9771 182.731Z" fill="#1F1F21"/>
<path d="M505.039 156.436C512.822 156.436 520.605 156.436 528.623 156.436C528.623 157.778 528.623 159.12 528.623 160.502C520.93 160.502 513.236 160.502 505.31 160.502C504.702 159.287 505.039 157.794 505.039 156.436Z" fill="#F7F7F7"/>
<path d="M564.407 182.731C567.807 182.731 571.206 182.731 574.709 182.731C574.709 183.447 574.709 184.163 574.709 184.9C572.204 184.9 569.699 184.9 567.118 184.9C567.118 186.51 567.118 188.121 567.118 189.78C569.265 189.78 571.412 189.78 573.624 189.78C573.624 190.495 573.624 191.211 573.624 191.948C571.477 191.948 569.33 191.948 567.118 191.948C567.118 193.738 567.118 195.527 567.118 197.37C569.802 197.37 572.486 197.37 575.251 197.37C575.251 198.086 575.251 198.802 575.251 199.539C571.672 199.539 568.094 199.539 564.407 199.539C564.407 193.992 564.407 188.446 564.407 182.731Z" fill="#1D1D1F"/>
<path d="M505.532 123.129C506.429 123.814 506.947 124.435 507.208 125.532C507.337 126.956 507.178 127.854 506.395 129.056C504.791 130.659 503.333 130.977 501.125 131.038C499.01 131.002 497.386 130.573 495.822 129.056C495.035 127.784 495.114 126.437 495.28 124.989C495.954 123.507 496.845 122.962 498.262 122.279C500.623 121.531 503.432 121.815 505.532 123.129Z" fill="#FDFDFD"/>
<path d="M180.023 183.413C180.602 183.859 180.819 184.228 181.088 184.9C180.551 185.347 180.014 185.795 179.461 186.256C179.092 185.987 179.092 185.987 178.716 185.713C177.316 184.92 175.873 184.933 174.31 185.171C173.085 185.626 172.377 186.432 171.752 187.56C170.973 189.585 170.967 192.078 171.577 194.148C172.206 195.521 172.871 196.523 174.31 197.099C176.109 197.309 177.634 197.297 179.19 196.286C179.552 196.105 179.913 195.924 180.274 195.744C180.632 196.191 180.99 196.638 181.359 197.099C180.877 198.326 180.032 198.983 178.868 199.563C176.85 200.216 174.196 200.152 172.26 199.268C170.195 198.034 169.019 196.397 168.346 194.117C167.622 191.066 167.948 188.344 169.508 185.655C170.557 184.086 171.942 183.142 173.739 182.567C176.013 182.142 177.983 182.331 180.023 183.413Z" fill="#232324"/>
<path d="M297.385 182.731C300.874 182.731 304.363 182.731 307.957 182.731C307.957 183.447 307.957 184.163 307.957 184.9C305.452 184.9 302.948 184.9 300.367 184.9C300.367 186.6 300.367 188.3 300.367 190.051C302.514 190.051 304.661 190.051 306.873 190.051C306.873 190.856 306.873 191.661 306.873 192.491C304.726 192.491 302.579 192.491 300.367 192.491C300.367 194.817 300.367 197.143 300.367 199.539C299.383 199.539 298.399 199.539 297.385 199.539C297.385 193.992 297.385 188.446 297.385 182.731Z" fill="#242426"/>
<path d="M434.014 182.731C434.998 182.731 435.982 182.731 436.996 182.731C438.159 185.236 439.322 187.741 440.52 190.322C441.006 189.349 441.006 189.349 441.503 188.357C442.44 186.482 443.378 184.606 444.315 182.731C445.299 182.731 446.283 182.731 447.297 182.731C447.05 183.264 446.802 183.796 446.553 184.328C446.334 184.795 446.117 185.263 445.901 185.731C445.372 186.861 444.836 187.952 444.162 189.002C442.042 192.374 442.071 195.623 442.146 199.539C441.162 199.539 440.178 199.539 439.164 199.539C439.201 199.183 439.238 198.826 439.277 198.459C439.558 193.143 437.27 189.178 434.751 184.657C434.014 183.328 434.014 183.328 434.014 182.731Z" fill="#232324"/>
<path d="M419.104 182.731C423.487 182.731 427.871 182.731 432.387 182.731C432.387 183.447 432.387 184.163 432.387 184.9C430.687 184.9 428.987 184.9 427.236 184.9C427.236 189.731 427.236 194.562 427.236 199.539C426.252 199.539 425.268 199.539 424.254 199.539C424.254 194.708 424.254 189.877 424.254 184.9C422.554 184.9 420.855 184.9 419.104 184.9C419.104 184.184 419.104 183.469 419.104 182.731Z" fill="#232325"/>
<path d="M207.383 182.731C211.677 182.731 215.971 182.731 220.396 182.731C220.396 183.447 220.396 184.163 220.396 184.9C218.785 184.9 217.175 184.9 215.516 184.9C215.516 189.731 215.516 194.562 215.516 199.539C214.532 199.539 213.548 199.539 212.534 199.539C212.534 194.708 212.534 189.877 212.534 184.9C210.834 184.9 209.135 184.9 207.383 184.9C207.383 184.184 207.383 183.469 207.383 182.731Z" fill="#232324"/>
<path d="M185.696 182.731C186.68 182.731 187.664 182.731 188.678 182.731C188.678 188.278 188.678 193.824 188.678 199.539C187.694 199.539 186.71 199.539 185.696 199.539C185.696 193.992 185.696 188.446 185.696 182.731Z" fill="#272728"/>
<path d="M540.009 182.731C540.904 182.731 541.798 182.731 542.72 182.731C542.72 188.278 542.72 193.824 542.72 199.539C541.826 199.539 540.931 199.539 540.009 199.539C540.009 193.992 540.009 188.446 540.009 182.731Z" fill="#1D1D1E"/>
<path d="M224.733 182.731C225.628 182.731 226.522 182.731 227.444 182.731C227.444 188.278 227.444 193.824 227.444 199.539C226.549 199.539 225.655 199.539 224.733 199.539C224.733 193.992 224.733 188.446 224.733 182.731Z" fill="#1D1D1E"/>
<path d="M374.645 184.9C379.384 184.744 379.384 184.744 380.88 185.985C381.385 186.994 381.304 188.138 381.151 189.238C380.323 190.407 379.523 190.767 378.169 191.135C377.239 191.188 377.239 191.188 376.305 191.169C375.484 191.152 375.484 191.152 374.645 191.135C374.645 189.078 374.645 187.02 374.645 184.9Z" fill="#F8F8F8"/>
<path d="M476.304 184.9C480.475 184.781 480.475 184.781 482.522 186.035C483.017 186.88 482.934 187.758 482.81 188.695C482.45 189.886 482.175 190.223 481.082 190.83C479.527 191.328 477.916 191.186 476.304 191.135C476.304 189.078 476.304 187.02 476.304 184.9Z" fill="#FBFBFB"/>
<path d="M493.111 184.9C497.719 184.768 497.719 184.768 499.329 186.171C499.76 187.109 499.82 187.969 499.617 188.966C498.788 190.284 498.117 190.75 496.635 191.135C495.705 191.188 495.705 191.188 494.771 191.169C493.949 191.152 493.949 191.152 493.111 191.135C493.111 189.078 493.111 187.02 493.111 184.9Z" fill="#FAFAFA"/>
<path d="M321.783 184.9C326.428 184.767 326.428 184.767 328.001 186.188C328.418 187.072 328.391 187.729 328.289 188.695C327.798 189.831 327.217 190.316 326.12 190.864C324.72 191.331 323.249 191.15 321.783 191.135C321.783 189.078 321.783 187.02 321.783 184.9Z" fill="#FAFAFA"/>
<path d="M509.647 184.9C510.738 184.875 510.738 184.875 511.85 184.849C512.076 184.842 512.302 184.835 512.534 184.827C513.85 184.812 514.749 184.974 515.883 185.713C516.561 186.731 516.547 187.217 516.425 188.424C515.855 189.503 515.414 190.189 514.256 190.593C513.464 190.657 512.678 190.644 511.884 190.627C510.777 190.61 510.777 190.61 509.647 190.593C509.647 188.714 509.647 186.836 509.647 184.9Z" fill="#F6F6F6"/>
<path d="M338.319 184.9C339.41 184.875 339.41 184.875 340.522 184.849C340.748 184.842 340.974 184.834 341.206 184.827C342.525 184.812 343.408 184.99 344.554 185.713C345.267 186.621 345.214 187.579 345.097 188.695C344.439 189.791 343.864 190.227 342.657 190.593C341.893 190.63 341.165 190.644 340.403 190.627C339.372 190.61 339.372 190.61 338.319 190.593C338.319 188.714 338.319 186.836 338.319 184.9Z" fill="#F6F6F6"/>
<path d="M407.176 184.9C411.914 184.744 411.914 184.744 413.411 185.985C413.845 186.854 413.814 187.752 413.682 188.695C413.097 189.657 412.564 190.206 411.513 190.593C410.755 190.631 410.033 190.644 409.277 190.627C408.583 190.616 407.89 190.605 407.176 190.593C407.176 188.714 407.176 186.836 407.176 184.9Z" fill="#FBFBFB"/>
<path d="M49.8804 184.9C54.305 184.783 54.305 184.783 55.8443 185.713C56.4901 186.359 56.4733 186.54 56.4882 187.425C56.4662 188.335 56.3962 188.678 55.929 189.492C54.6744 190.611 53.4519 190.667 51.8288 190.627C51.1858 190.616 50.5428 190.604 49.8804 190.593C49.8804 188.714 49.8804 186.836 49.8804 184.9Z" fill="#FDFDFD"/>
<path d="M582.841 184.9C587.321 184.781 587.321 184.781 588.805 185.713C589.479 186.723 589.451 187.228 589.347 188.424C588.853 189.568 588.297 190.066 587.179 190.593C586.399 190.65 585.699 190.671 584.925 190.644C584.238 190.627 583.55 190.61 582.841 190.593C582.841 188.714 582.841 186.836 582.841 184.9Z" fill="#FCFCFC"/>
<path d="M557.359 39.3253C557.449 39.5042 557.538 39.6832 557.63 39.8675C587.599 39.8675 617.568 39.8675 648.445 39.8675C648.445 39.957 648.445 40.0464 648.445 40.1386C633.327 40.1386 618.208 40.1386 602.631 40.1386C602.452 40.4964 602.273 40.8543 602.089 41.2229C602 40.9546 601.91 40.6862 601.818 40.4097C587.147 40.3202 572.475 40.2308 557.359 40.1386C557.359 39.8702 557.359 39.6018 557.359 39.3253Z" fill="#1F8DCA"/>
<path d="M107.351 184.9C107.989 185.857 108.26 186.823 108.571 187.916C108.631 188.123 108.691 188.329 108.753 188.542C109.153 189.939 109.506 191.336 109.791 192.762C108.27 192.762 106.75 192.762 105.183 192.762C105.666 190.06 106.48 187.499 107.351 184.9Z" fill="#EEEEEE"/>
<path d="M84.5798 184.9C85.0631 185.625 85.2771 186.106 85.5212 186.922C85.5917 187.156 85.6621 187.391 85.7346 187.633C85.8064 187.877 85.8782 188.122 85.9522 188.373C86.0251 188.615 86.098 188.856 86.173 189.105C86.5391 190.336 86.8066 191.484 87.0196 192.762C85.4988 192.762 83.978 192.762 82.4111 192.762C82.7882 190.962 83.2616 189.216 83.8005 187.459C83.8756 187.211 83.9507 186.963 84.0281 186.708C84.2112 186.105 84.3951 185.503 84.5798 184.9Z" fill="#EEEEEE"/>
<path d="M462.207 184.9C462.749 185.171 462.749 185.171 462.942 185.726C463.031 186.089 463.031 186.089 463.122 186.459C463.505 187.961 463.96 189.431 464.438 190.905C464.647 191.677 464.647 191.677 464.647 192.762C463.126 192.762 461.605 192.762 460.038 192.762C460.144 192.421 460.251 192.08 460.36 191.728C461.04 189.47 461.614 187.182 462.207 184.9Z" fill="#EEEEEE"/>
<path d="M199.251 184.9C199.793 185.171 199.793 185.171 200.029 185.786C200.105 186.052 200.182 186.318 200.261 186.592C200.345 186.881 200.429 187.17 200.515 187.468C200.644 187.925 200.644 187.925 200.776 188.39C200.864 188.693 200.952 188.995 201.042 189.306C201.69 191.564 201.69 191.564 201.69 192.491C200.259 192.491 198.828 192.491 197.353 192.491C197.524 191.292 197.676 190.295 198.006 189.162C198.079 188.912 198.151 188.661 198.226 188.403C198.301 188.147 198.377 187.891 198.454 187.628C198.569 187.234 198.569 187.234 198.686 186.831C198.873 186.187 199.061 185.543 199.251 184.9Z" fill="#F3F3F3"/>
<path d="M528.624 185.171C528.803 185.171 528.982 185.171 529.166 185.171C529.257 185.485 529.349 185.799 529.443 186.122C529.565 186.539 529.688 186.957 529.81 187.374C529.87 187.58 529.93 187.786 529.992 187.999C530.256 188.9 530.525 189.79 530.837 190.676C531.063 191.406 531.063 191.406 531.063 192.491C529.632 192.491 528.201 192.491 526.726 192.491C526.916 191.16 527.088 190.206 527.522 188.983C527.959 187.721 528.323 186.473 528.624 185.171Z" fill="#F5F5F5"/>
</svg>
