<svg width="951" height="455" viewBox="0 0 951 455" fill="none" xmlns="http://www.w3.org/2000/svg">
<path d="M30.484 0.49086C26.1007 1.38238 23.5004 2.94254 20.3801 6.36002C15.551 11.7091 15.9225 18.1726 21.4202 23.1503C25.7292 27.0135 28.9238 28.2022 35.4616 28.2022C39.6963 28.2765 41.9251 27.8308 44.9711 26.5678C49.1316 24.7104 52.9948 20.9215 53.7377 17.9498C54.1835 16.241 54.555 16.0924 58.1953 16.0924H62.2072V22.7788V29.4652H67.4077H72.6082V15.3495V1.23379H67.4077H62.2815L62.0586 5.46851L61.8357 9.77751L58.121 10.0004C54.4807 10.2233 54.2578 10.0747 51.8804 7.10295C47.4971 1.75385 38.2105 -1.14359 30.484 0.49086ZM40.5135 7.62301C42.8166 9.10887 44.5997 13.4179 44.0053 16.0924C43.411 18.9156 39.9192 22.0359 36.7989 22.4816C30.1125 23.596 24.7634 15.6467 28.5523 10.149C31.5241 5.83997 36.2045 4.87416 40.5135 7.62301Z" fill="black"/>
<path d="M346.751 0.490704C338.876 2.19945 333.006 8.36578 333.601 14.3835C335.012 28.1278 361.015 31.8424 370.079 19.5841C372.456 16.3152 372.233 10.446 369.633 6.95421C365.547 1.67939 355.22 -1.21804 346.751 0.490704ZM356.706 6.73133C362.204 9.03442 363.244 14.6064 359.083 18.7668C356.855 20.9956 356.112 21.2928 352.843 21.2928C346.082 21.2928 342.07 15.6465 344.893 10.1488C346.899 6.21128 351.951 4.72542 356.706 6.73133Z" fill="black"/>
<path d="M85.9822 13.1209V25.0078H109.013H132.044V13.1209V1.23399H109.013H85.9822V13.1209ZM121.643 13.1209V19.0644H109.236H96.7547L96.9033 13.3438C96.9776 10.1492 97.0519 7.47462 97.1262 7.32603C97.1262 7.25174 102.624 7.17744 109.385 7.17744H121.643V13.1209Z" fill="black"/>
<path d="M150.394 12.8235C147.571 19.287 145.119 24.9333 144.896 25.5276C144.599 26.2705 145.714 26.4934 149.948 26.4934H155.446L159.161 16.9839L162.95 7.54864L165.55 7.32576L168.224 7.10288L171.568 16.6124L174.837 26.1219L180.186 26.3448C183.157 26.4934 185.535 26.2705 185.535 25.9734C185.535 25.6019 183.38 20.0299 180.78 13.4921L176.025 1.60518L165.699 1.38231L155.446 1.15943L150.394 12.8235Z" fill="black"/>
<path d="M189.248 14.2354V27.2368H194.82H200.392V14.2354V1.23413H194.82H189.248V14.2354Z" fill="black"/>
<path d="M253.142 5.69172V10.2236L247.05 10.0007C243.038 9.85214 240.884 9.48068 240.661 8.81204C240.512 8.21769 241.181 7.92052 242.667 7.92052C244.821 7.92052 244.97 7.77193 244.97 4.94879V1.97706H227.139H209.309V4.94879C209.309 7.77193 209.458 7.92052 211.538 7.92052C212.801 7.92052 213.767 8.1434 213.767 8.51487C213.767 8.81204 212.429 13.5668 210.795 19.0645C209.161 24.5622 207.823 29.317 207.823 29.6141C207.823 29.9856 210.275 30.2085 213.321 30.2085H218.819L219.933 25.1565C220.527 22.4077 221.642 17.4301 222.385 14.0126L223.648 7.92052H227.214H230.78L231.969 13.6411C232.711 16.8357 233.826 21.7391 234.495 24.6365L235.757 29.837L241.107 30.0599C245.118 30.2085 246.456 30.0599 246.456 29.317C246.456 28.7969 245.638 25.7509 244.673 22.5563L242.89 16.8357H248.016H253.142V23.8936V30.9514H258.343H263.543V16.0928V1.23413H258.343H253.142V5.69172Z" fill="black"/>
<path d="M377.952 14.9779V28.7222H356.482H335.011L334.714 31.3224C334.565 32.8083 334.565 34.1456 334.788 34.2942C334.937 34.5171 337.908 34.6656 341.326 34.6656H347.492V43.9523V53.2389H352.693H357.893V43.9523V34.6656H367.923H377.952V44.3238V53.9819H383.376H388.725V27.6078V1.2337H383.376H377.952V14.9779Z" fill="black"/>
<path d="M306.705 5.24567C305.368 6.58294 302.47 8.58886 300.242 9.70326C296.378 11.6349 296.23 11.7835 296.23 14.6809C296.23 17.4297 296.378 17.6526 297.939 17.2069C298.83 16.9097 301.133 15.721 303.139 14.5323C305.071 13.3436 306.779 12.3778 307.002 12.3778C307.225 12.3778 307.374 19.3614 307.374 27.9794V43.581H301.059H294.744V46.5527V49.5244H311.906H328.993L328.77 46.7013L328.547 43.9524L322.827 43.7295L317.032 43.5067V23.1503V2.7197H313.094C309.603 2.7197 308.86 3.01687 306.705 5.24567Z" fill="black"/>
<path d="M155.075 31.6939V34.6656H172.163H189.25V36.523V38.3803H172.163H155.075V46.1811V53.9819H177.809H200.468L200.245 51.3073L200.023 48.7071L182.935 48.5585L165.848 48.4099L165.625 46.3297L165.402 44.3238H182.935H200.468L200.245 36.6716L200.023 29.0936L177.586 28.8708L155.075 28.7222V31.6939Z" fill="black"/>
<path d="M27.2876 42.4664V53.9819H49.947H72.6065V42.4664V30.951H67.4059H62.2054V33.5512V36.1515H50.3185H38.4316V33.5512V30.951H32.8596H27.2876V42.4664ZM62.0568 45.2153L61.8339 48.4099L50.1699 48.6328L38.4316 48.8556V45.4382V42.095H50.3928H62.2797L62.0568 45.2153Z" fill="black"/>
<path d="M82.2656 33.9227V36.8944H93.0381H103.811V45.4382V53.9819H109.457H115.029L114.806 45.4382L114.583 36.8944L125.356 36.7458L136.128 36.523L136.351 33.6998L136.574 30.951H109.457H82.2656V33.9227Z" fill="black"/>
<path d="M220.005 33.1055C219.857 33.2541 219.708 34.5171 219.708 35.8543V38.3803L236.276 38.5289L252.769 38.7518L252.992 46.3297L253.214 53.9819H258.341H263.541V43.5808V33.2541L241.922 33.0312C230.035 32.8826 220.154 32.9569 220.005 33.1055Z" fill="black"/>
<path d="M0 100.787V121.589H30.4602H60.9204V133.476V145.363H38.261H15.6016V156.507V167.651H23.4767H31.3517L27.5628 171.811C16.5674 183.846 11.3669 196.773 9.65812 216.238C8.17225 233.251 10.7725 248.927 17.0874 261.631C23.7738 275.004 33.2834 284.588 46.4333 291.052C56.9086 296.178 63.3721 297.738 76.8935 298.184C89.6719 298.629 95.7639 297.887 105.719 294.692C114.783 291.795 122.881 286.891 130.162 279.982C139.746 270.844 146.209 259.774 149.404 247.07C151.41 238.972 152.152 220.25 150.815 210.518C148.735 194.99 142.866 182.212 133.133 171.885L129.047 167.651H138.408H147.843V156.507V145.363H124.813H101.782V133.476V121.589H526.367H950.953V100.787V79.9846H475.477H0V100.787ZM91.7521 171.365C96.8041 173.743 103.788 181.023 107.131 187.338C116.789 205.763 117.383 237.412 108.468 255.465C101.559 269.432 92.9408 275.599 80.6081 275.673C75.7048 275.673 73.8475 275.301 69.9842 273.518C63.8922 270.77 57.5029 264.009 53.8626 256.505C44.8731 237.709 44.9474 207.323 54.0855 188.527C57.7258 181.023 65.5266 173 71.3215 170.697C76.9678 168.542 86.403 168.765 91.7521 171.365Z" fill="black"/>
<path d="M310.547 134.665C294.351 137.636 282.761 143.357 272.731 153.386C255.421 170.771 246.654 198.78 249.552 227.605C253.118 262.449 272.88 288.303 302.003 296.252C309.506 298.258 326.594 299.001 334.766 297.664C363.815 292.983 385.434 270.398 392.343 237.486C394.424 227.382 394.572 208.735 392.715 198.111C388.109 172.554 373.547 150.935 354.305 141.277C344.647 136.373 337.664 134.813 324.291 134.59C317.753 134.442 311.587 134.516 310.547 134.665ZM331.869 156.878C344.87 162.673 352.522 182.212 353.414 211.855C354.231 239.344 349.328 259.031 339.001 270.25C333.875 275.747 329.194 277.828 321.913 277.828C305.569 277.753 294.648 262.449 291.305 234.886C290.264 226.268 290.264 205.615 291.305 196.996C292.419 187.71 295.168 177.457 297.991 171.663C305.197 157.027 318.793 151.083 331.869 156.878Z" fill="black"/>
<path d="M166.417 228.571V319.209H83.2084H0V340.011V360.813H475.477H950.953V340.011V319.209H824.283H697.613V228.571V137.933H679.04H660.467V228.571V319.209H653.78H647.094V228.571V137.933H629.263H611.433V163.936V189.938H598.803H586.173V195.51V201.082H561.285H536.397V181.395V161.707L567.303 161.558L598.135 161.336V150.563V139.79H548.878H499.622V216.684V293.577L555.565 293.8L611.433 293.949V306.579V319.209L534.911 319.06L458.389 318.837V228.348V137.933H438.33H418.271V228.571V319.209H312.403H206.535V263.86V208.512H221.394H236.252V196.996V185.481H221.394H206.535V161.707V137.933H186.476H166.417V228.571ZM611.285 242.092L611.433 271.661H573.915H536.397V247.516V223.37H564.628H592.86V218.318C592.86 215.495 593.083 212.969 593.38 212.672C593.677 212.449 597.763 212.301 602.444 212.375L611.062 212.598L611.285 242.092Z" fill="black"/>
<path d="M745.906 153.906V164.679H813.884H881.862V180.652V196.625H815.37H748.877V207.398V218.17H815.37H881.862V248.63V279.09H807.569H733.276V290.234V301.378H835.058H936.914L936.691 290.383L936.468 279.462L929.261 279.239L921.981 279.016V211.112V143.134H833.943H745.906V153.906Z" fill="black"/>
<path d="M579.412 391.57C568.937 394.393 563.439 404.349 567.525 413.264C572.726 424.705 593.899 427.38 603.855 417.796C607.346 414.452 608.684 411.555 608.684 407.246C608.684 395.211 594.345 387.484 579.412 391.57ZM591.893 398.479C595.311 400.04 597.688 405.017 596.945 408.881C596.277 412.744 592.413 416.533 588.699 417.053C580.527 418.093 574.955 408.658 579.709 401.6C582.681 397.216 586.916 396.102 591.893 398.479Z" fill="black"/>
<path d="M820.197 392.759V394.988H813.139H806.081V397.959C806.081 400.783 806.23 400.931 808.31 400.931C810.613 400.931 811.356 401.971 809.499 402.64C808.087 403.16 805.338 409.103 805.338 411.629C805.338 416.83 810.241 422.03 817.374 424.408L820.94 425.597V429.608V433.62H813.51H806.081V436.963V440.307H830.226H854.372V446.25V452.194H860.315H866.259V422.476V392.759H860.315H854.372V413.19V433.62H843.228H832.084V429.608V425.597L835.724 424.334C840.776 422.699 845.977 418.019 847.017 414.155C847.611 411.704 847.611 410.515 846.571 407.989C845.977 406.206 844.714 404.2 843.971 403.531C841.965 401.748 842.113 400.931 844.342 400.931C845.977 400.931 846.199 400.634 846.199 397.959V395.062L839.364 394.839L832.455 394.616V392.536L832.529 390.53H826.363H820.197V392.759ZM830.226 401.971C833.198 403.234 835.798 407.023 835.798 410.218C835.798 415.567 830.152 420.173 824.803 419.133C823.243 418.836 821.088 417.573 819.677 416.161C817.671 414.155 817.225 413.19 817.225 410.366C817.225 406.503 819.231 403.531 822.723 401.971C825.694 400.708 827.106 400.708 830.226 401.971Z" fill="black"/>
<path d="M250.888 391.719C250.591 392.016 250.368 399.742 250.368 408.88V425.448H256.683H262.998V417.647V409.846H267.455H271.913V406.132V402.417H267.455H263.072L262.849 396.994L262.626 391.644L257.054 391.422C253.934 391.347 251.185 391.422 250.888 391.719Z" fill="black"/>
<path d="M326.891 396.845V402.491L320.056 402.268C314.187 402.046 313.147 401.823 312.924 400.708C312.701 399.668 313.221 399.445 315.301 399.445C317.976 399.445 317.976 399.445 317.976 396.102V392.759H297.545H277.115V396.102C277.115 399.445 277.115 399.445 279.789 399.445C282.167 399.445 282.39 399.594 281.87 401.08C279.121 409.623 275.629 421.51 275.629 422.253C275.629 423.368 287.144 423.665 287.813 422.625C288.036 422.328 289.076 418.167 290.116 413.487C293.608 398.034 292.939 399.445 297.471 399.445H301.483L303.489 408.138C304.529 412.967 305.866 418.167 306.312 419.802L307.204 422.625L313.37 422.773C316.713 422.773 319.462 422.699 319.462 422.476C319.462 422.253 318.645 419.43 317.605 416.161C316.564 412.892 315.747 409.995 315.747 409.623C315.747 409.326 318.273 409.103 321.319 409.103H326.891V417.276V425.448H332.835H338.778V408.36V391.273H332.835H326.891V396.845Z" fill="black"/>
<path d="M399.474 391.719C399.176 392.016 398.954 393.056 398.954 394.022C398.954 395.582 398.656 395.731 394.867 395.731C391.301 395.731 390.781 395.582 390.781 394.245C390.781 392.759 390.261 392.759 370.351 392.759H349.92V396.102C349.92 399.297 349.994 399.445 352.149 399.445H354.378V407.989V416.533H351.332H348.36L348.583 419.579L348.806 422.55L373.768 422.476C398.285 422.476 398.805 422.476 399.176 423.962C399.548 425.299 400.142 425.448 405.566 425.448H411.583L411.435 408.509L411.212 391.644L405.64 391.422C402.52 391.347 399.771 391.422 399.474 391.719ZM372.951 408.063V416.607L369.831 416.384L366.636 416.161L366.413 407.766L366.19 399.445H369.608H372.951V408.063ZM388.552 401.303C388.552 403.086 388.701 403.16 393.753 403.16C398.805 403.16 398.954 403.234 398.954 405.017C398.954 406.8 398.805 406.875 393.753 406.875H388.552V410.218V413.561H393.753C398.433 413.561 398.954 413.71 398.954 415.047C398.954 416.458 398.433 416.533 392.267 416.533H385.581V407.989C385.581 399.965 385.655 399.445 387.067 399.445C388.181 399.445 388.552 399.965 388.552 401.303Z" fill="black"/>
<path d="M468.045 421.733V452.194H473.989H479.932L480.081 432.729L480.304 413.19L484.761 413.115L489.219 413.041L489.442 409.624L489.665 406.206L484.984 405.983L480.304 405.76L480.081 398.48L479.858 391.273H473.989H468.045V421.733Z" fill="black"/>
<path d="M544.57 396.474V401.674H538.626H532.683V397.217V392.759H526.739H520.796V396.845V400.932H513.738H506.68V396.845V392.759H500.737H494.793V407.989V423.22H513.738H532.683V416.162V409.104H538.626H544.57V416.682V424.334L550.29 424.185L556.085 424.111L556.308 407.692L556.457 391.273H550.513H544.57V396.474ZM520.796 412.076V416.533H513.738H506.68V412.076V407.618H513.738H520.796V412.076Z" fill="black"/>
<path d="M617.154 391.719C616.857 392.016 616.634 401.6 616.634 412.967V433.695L622.577 433.472L628.595 433.249V412.447V391.645L623.098 391.422C620.126 391.348 617.451 391.422 617.154 391.719Z" fill="black"/>
<path d="M205.049 396.102V399.446H217.679H230.309V411.333V423.219H236.252H242.196V407.989V392.759H223.622H205.049V396.102Z" fill="black"/>
<path d="M422.654 392.908C422.654 393.056 422.58 394.542 422.506 396.325L422.357 399.445H435.21H447.988V419.133V438.821H453.932H459.875L459.727 415.938L459.504 393.13L441.153 392.908C430.975 392.833 422.729 392.833 422.654 392.908Z" fill="black"/>
<path d="M783.794 408.732C783.794 417.499 783.794 424.928 783.794 425.225C783.794 425.597 786.394 425.82 789.589 425.82H795.309L795.532 409.252L795.681 392.759H789.737H783.794V408.732Z" fill="black"/>
<path d="M921.98 422.476V452.194H927.923H933.867L934.015 433.026L934.238 413.933L938.547 413.71L942.782 413.487V410.218V406.875H938.324H933.867V399.817V392.759H927.923H921.98V422.476Z" fill="black"/>
<path d="M739.588 408.287C736.394 416.459 733.868 423.368 733.942 423.591C733.942 423.888 736.617 424.111 739.737 424.111H745.457L749.618 412.298L753.853 400.56L756.899 400.337L759.945 400.114L762.916 409.624C764.551 414.824 766.111 420.025 766.408 421.214C766.631 422.328 767.151 423.442 767.597 423.665C768.414 424.185 779.335 424.483 779.335 423.963C779.409 423.74 776.958 416.83 773.986 408.584L768.563 393.502H756.973H745.383L739.588 408.287Z" fill="black"/>
<path d="M668.64 397.588V400.931H672.726C674.955 400.931 676.812 401.08 676.812 401.303C676.812 401.526 674.658 406.057 671.983 411.332C668.343 418.539 667.377 421.139 668.12 421.436C668.714 421.659 671.463 421.733 674.286 421.585L679.338 421.362L683.573 411.778C685.95 406.577 688.105 401.971 688.551 401.526C688.922 401.154 691.597 400.931 694.569 401.08L699.918 401.303L704.449 411.481L708.981 421.733H714.851C719.011 421.733 720.645 421.436 720.645 420.767C720.571 420.322 718.491 415.79 715.891 410.738C713.365 405.76 711.433 401.526 711.582 401.303C711.805 401.08 713.736 400.931 715.965 400.931H719.902V397.588V394.245H694.271H668.64V397.588Z" fill="black"/>
<path d="M886.837 394.765C886.614 395.136 884.088 404.869 881.116 416.533C878.219 428.197 875.619 437.929 875.47 438.226C875.247 438.598 877.922 438.821 881.413 438.821H887.728L888.248 435.998C888.546 434.512 890.18 426.042 891.815 417.276L894.861 401.303L897.907 401.08L900.953 400.857L903.404 414.824C904.742 422.476 906.227 430.946 906.673 433.62L907.565 438.449L913.657 438.672C919.749 438.895 919.823 438.895 919.377 437.186C919.154 436.22 916.851 426.414 914.177 415.418C911.502 404.349 909.348 395.136 909.348 394.765C909.348 394.468 904.37 394.245 898.278 394.245C892.112 394.245 886.985 394.468 886.837 394.765Z" fill="black"/>
<path d="M306.533 424.78C304.155 425.151 300.515 426.191 298.361 427.231C291.749 430.277 288.851 434.066 288.851 439.49C288.851 445.805 292.863 450.337 301.332 453.383C306.904 455.389 321.317 455.24 327.112 453.16C341.896 447.662 343.679 434.215 330.455 427.751C323.62 424.408 315.745 423.442 306.533 424.78ZM320.574 431.54C323.249 432.952 326.072 435.998 326.518 438.152C327.112 440.678 325.329 444.616 322.803 446.473C319.831 448.628 313.739 449.594 309.876 448.479C298.509 445.433 299.029 432.952 310.545 430.575C313.516 429.98 318.345 430.426 320.574 431.54Z" fill="black"/>
<path d="M378.671 424.705C362.773 427.231 355.789 439.638 365.299 448.628C373.991 456.948 397.616 457.171 406.828 448.999C413.515 443.204 413.218 434.958 406.16 429.609C400.588 425.374 388.478 423.219 378.671 424.705ZM393.604 431.912C397.096 433.546 398.953 436.295 398.953 439.712C398.953 449.519 380.529 452.639 375.18 443.799C369.682 434.809 382.237 426.637 393.604 431.912Z" fill="black"/>
<path d="M664.183 428.791V432.134H676.07H687.882L688.105 441.941L688.328 451.822L694.123 452.045L699.844 452.268V442.164V432.134H712.102H724.36V428.791V425.448H694.272H664.183V428.791Z" fill="black"/>
<path d="M505.196 439.564V452.194H530.827H556.458V439.564V426.934H550.589H544.645L544.423 429.683L544.2 432.506L530.678 432.729L517.083 432.877V429.906V426.934H511.139H505.196V439.564ZM544.571 442.164V445.507H530.827H517.083V442.164V438.821H530.827H544.571V442.164Z" fill="black"/>
<path d="M213.965 439.935V452.194L238.333 452.045L262.627 451.822L262.85 439.712L262.999 427.677H238.482H213.965V439.935ZM250.369 439.935V445.507H238.11H225.852V439.935V434.363H238.11H250.369V439.935Z" fill="black"/>
<path d="M746.648 431.392V434.363L765.072 434.512L783.423 434.735L783.571 443.279L783.646 451.822H789.515H795.31L795.533 440.084L795.756 428.42H771.164H746.648V431.392Z" fill="black"/>
<path d="M578.745 440.307V451.451H604.004H629.264V448.108V444.764H609.948H590.632V436.964V429.163H584.688H578.745V440.307Z" fill="black"/>
</svg>
