<svg width="951" height="463" viewBox="0 0 951 463" fill="none" xmlns="http://www.w3.org/2000/svg">
<path d="M269.584 405.299H303.82C303.82 421.988 292.23 432.856 270.804 437.513L266 429.298C281.021 426.258 288.722 420.371 290.476 413.514H269.584V405.299ZM288.875 445.923V454.073H311.826V445.923H288.875ZM276.751 462.159V437.837H323.95V462.159H276.751ZM332.871 414.42V422.894H323.95V435.702H311.597V402.065H323.95V414.42H332.871Z" fill="white"/>
<path d="M372.591 416.166H381.589V402.129H393.941V438.095H381.589V424.511H372.591V416.166ZM377.166 428.78L371.143 436.931C363.594 434.861 358.638 430.915 355.511 426.064C352.461 431.691 347.124 436.22 338.965 438.419L332.713 430.139C343.845 426.969 348.115 420.242 348.878 413.579H335.915V405.364H374.498V413.579H361.764C362.526 419.66 366.644 425.87 377.166 428.78ZM369.313 455.108C377.853 455.108 381.894 453.944 381.894 451.098C381.894 448.187 377.853 447.022 369.313 447.022C360.849 447.022 356.808 448.187 356.808 451.098C356.808 453.944 360.849 455.108 369.313 455.108ZM369.313 439.13C384.639 439.13 394.246 443.594 394.246 451.098C394.246 458.601 384.639 463 369.313 463C354.063 463 344.455 458.601 344.455 451.098C344.455 443.594 354.063 439.13 369.313 439.13Z" fill="white"/>
<path d="M447.92 439.001V431.174H441.439V422.959H447.92V419.466H441.439V411.25H447.92V402.129H460.273V439.001H447.92ZM418.107 414.032V428.975L422.605 428.845V414.032H418.107ZM439.457 427.745L440.143 435.379C427.18 437.255 412.159 437.513 400.874 437.513L399.73 429.169H406.288V414.032H401.408V405.817H439.304V414.032H434.424V428.198C436.102 428.069 437.855 427.94 439.457 427.745ZM435.72 455.108C444.26 455.108 448.225 454.008 448.225 451.421C448.225 448.704 444.26 447.669 435.72 447.669C427.104 447.669 423.139 448.704 423.139 451.421C423.139 454.008 427.104 455.108 435.72 455.108ZM435.72 439.777C451.047 439.777 460.578 444.047 460.578 451.421C460.578 458.666 451.047 462.935 435.72 462.935C420.318 462.935 410.787 458.666 410.787 451.421C410.787 444.047 420.318 439.777 435.72 439.777Z" fill="white"/>
<path d="M469.112 408.145H503.424C503.424 426.905 495.876 442.494 471.704 452.844L464.842 444.952C480.626 437.966 488.937 429.363 490.919 416.49H469.112V408.145ZM532.018 424.446V432.985H522.792V462.677H510.439V402H522.792V424.446H532.018Z" fill="white"/>
<path d="M580.736 453.944V449.998H556.717V453.944H580.736ZM580.736 442.106V437.707H592.936V462.094H544.517V437.707H556.717V442.106H580.736ZM557.861 425.611V419.789H547.415V425.611H557.861ZM580.583 402.065L592.936 402.129V435.379H580.583V423.67H569.908V433.826H535.215V405.105H547.415V411.897H557.861V405.17H569.908V415.39H580.583V402.065Z" fill="white"/>
<path d="M658.734 402.129V445.34H646.381V402.129H658.734ZM611.611 421.406C611.611 425.805 615.042 428.069 619.465 428.069C623.887 428.069 627.319 425.805 627.319 421.406C627.319 416.943 623.887 414.743 619.465 414.743C615.042 414.743 611.611 416.943 611.611 421.406ZM639.366 421.406C639.366 430.398 630.597 437.06 619.465 437.06C608.332 437.06 599.564 430.398 599.564 421.406C599.564 412.35 608.332 405.752 619.465 405.752C630.597 405.752 639.366 412.35 639.366 421.406ZM622.439 453.685H660.411V461.9H610.086V441.136H622.439V453.685Z" fill="white"/>
<path d="M685.988 432.403L681.566 424.252C696.511 422.829 702.382 417.719 703.678 412.997H684.387V404.846H737.838V412.997H718.852C720.148 417.719 726.019 422.829 740.964 424.252L736.542 432.403C723.579 431.045 715.421 426.905 711.227 421.212C707.033 426.905 698.951 431.045 685.988 432.403ZM743.633 434.99V443.206H717.098V462.871H704.746V443.206H678.821V434.99H743.633Z" fill="white"/>
<path d="M789.377 427.357L783.43 435.573C775.5 433.567 770.391 429.751 767.188 424.964C763.986 430.204 758.572 434.473 750.261 436.543L744.237 428.328C756.895 425.158 760.86 417.46 760.86 410.539V404.782H773.441V410.539C773.441 417.396 777.177 424.446 789.377 427.357ZM755.598 448.769V440.554H805.008V462.871H792.656V448.769H755.598ZM792.656 402.129H805.008V438.16H792.656V402.129Z" fill="white"/>
<path d="M855.937 408.404V416.49H813.085V408.404H828.335V402.453H840.687V408.404H855.937ZM834.587 426.064C830.699 426.064 828.106 427.228 828.106 429.751C828.106 432.338 830.699 433.503 834.587 433.503C838.4 433.503 840.992 432.338 840.992 429.751C840.992 427.228 838.4 426.064 834.587 426.064ZM840.611 440.683V444.629C845.949 444.37 851.286 443.982 856.395 443.464L857.31 450.904C841.831 453.426 825.59 453.491 813.161 453.491L811.712 445.146C816.745 445.146 822.464 445.146 828.335 445.017V440.683C821.091 439.195 816.364 435.12 816.364 429.751C816.364 422.959 823.912 418.236 834.587 418.236C845.186 418.236 852.735 422.959 852.735 429.751C852.735 435.12 847.931 439.26 840.611 440.683ZM859.597 402.129H871.95V462.741H859.597V402.129Z" fill="white"/>
<path d="M905.418 406.528V414.161C905.418 425.223 908.849 436.22 921.049 441.265L913.653 449.545C906.561 446.505 901.986 441.33 899.165 434.926C896.191 441.847 891.083 447.54 883.381 450.645L876.061 442.171C888.948 437.19 892.989 425.611 892.989 414.161V406.528H905.418ZM944 424.835V433.373H934.393V462.806H922.04V402.129H934.393V424.835H944Z" fill="white"/>
<path d="M52.5824 26.0689L46.4046 34.0901C39.4914 32.1495 34.7846 28.527 31.9163 23.8696C28.901 29.3033 23.8999 33.6373 16.3248 35.8367L10 27.6861C22.1349 24.2577 25.7386 16.1718 25.7386 8.5387V3.4931H37.8734V9.50901C37.8734 16.3012 41.2565 23.158 52.5824 26.0689ZM43.3157 52.9141C51.3321 52.9141 55.23 51.7497 55.23 48.8388C55.23 45.9279 51.3321 44.6988 43.3157 44.6988C35.3729 44.6988 31.475 45.9279 31.475 48.8388C31.475 51.7497 35.3729 52.9141 43.3157 52.9141ZM43.3157 36.7423C57.804 36.7423 67.0707 41.2057 67.0707 48.8388C67.0707 56.4072 57.804 60.9353 43.3157 60.9353C28.901 60.9353 19.6344 56.4072 19.6344 48.8388C19.6344 41.2057 28.901 36.7423 43.3157 36.7423ZM66.2617 13.3902H74.8664V21.8643H66.2617V35.5133H54.3474V0.194059H66.2617V13.3902Z" fill="white"/>
<path d="M134.873 17.5949L130.534 25.6808C118.546 24.2577 110.677 20.3765 106.485 14.878C102.219 20.3118 94.4236 24.3224 82.5829 25.6808L78.2437 17.5949C95.4532 15.7837 100.454 8.73277 100.454 2.65217V1.35843H112.663V2.65217C112.663 9.12089 117.296 15.7837 134.873 17.5949ZM82.3622 48.7741V40.6235H130.534V60.8706H118.62V48.7741H82.3622ZM112.516 29.0445H137.962V37.2598H75.449V29.0445H100.601V21.9289H112.516V29.0445Z" fill="white"/>
<path d="M149.797 55.631C145.237 55.631 142.001 52.4613 142.001 48.4507C142.001 44.5048 145.237 41.3351 149.797 41.3351C154.283 41.3351 157.593 44.5048 157.593 48.4507C157.593 52.4613 154.283 55.631 149.797 55.631Z" fill="white"/>
<path d="M167.785 26.1336L163.74 18.0477C176.243 17.2068 181.685 14.0371 183.597 10.9968H167.197V2.84623H218.457V10.9968H201.91C203.822 14.0371 209.264 17.1421 221.84 18.0477L217.795 26.1336C204.116 25.228 196.247 21.088 192.717 15.7837C189.26 21.088 181.464 25.228 167.785 26.1336ZM192.643 52.9788C200.954 52.9788 204.704 52.0732 204.704 49.5504C204.704 47.0276 200.954 46.122 192.643 46.122C184.259 46.122 180.508 47.0276 180.508 49.5504C180.508 52.0732 184.259 52.9788 192.643 52.9788ZM192.643 38.1654C207.573 38.1654 216.766 42.3054 216.766 49.5504C216.766 56.7953 207.573 60.9353 192.643 60.9353C177.64 60.9353 168.447 56.7953 168.447 49.5504C168.447 42.3054 177.64 38.1654 192.643 38.1654ZM161.534 27.6861H224.047V35.8367H161.534V27.6861Z" fill="white"/>
<path d="M262.578 30.5323H272.213V20.2471H262.358C262.725 21.9936 262.872 23.9989 262.872 26.0042C262.872 27.6214 262.799 29.0445 262.578 30.5323ZM244.707 38.5536C248.899 38.5536 251.62 34.6076 251.62 26.0689C251.62 17.5302 248.899 13.5843 244.707 13.5843C240.515 13.5843 237.794 17.5302 237.794 26.0689C237.794 34.6076 240.515 38.5536 244.707 38.5536ZM272.213 0L284.127 0.0646863V61H272.213V38.877H259.931C256.768 44.6988 251.252 47.9979 244.707 48.0626C234.264 48.0626 226.541 39.6532 226.541 26.0689C226.541 12.4846 234.264 4.07529 244.707 4.07529C250.738 4.07529 255.886 6.85684 259.122 11.9024H272.213V0Z" fill="white"/>
<path d="M299.86 55.631C295.3 55.631 292.064 52.4613 292.064 48.4507C292.064 44.5048 295.3 41.3351 299.86 41.3351C304.346 41.3351 307.655 44.5048 307.655 48.4507C307.655 52.4613 304.346 55.631 299.86 55.631Z" fill="white"/>
<path d="M367.858 20.9586V28.7858H318.951V1.42311H367.196V9.25026H330.792V11.3203H365.725V18.824H330.792V20.9586H367.858ZM318.436 50.5207V42.4348H366.681V60.9353H354.767V50.5207H318.436ZM311.449 31.438H374.036V39.5885H311.449V31.438Z" fill="white"/>
<path d="M436.322 20.894L431.763 29.2386C419.334 27.6861 411.317 23.0286 406.905 16.948C402.492 23.0286 394.475 27.6861 382.046 29.2386L377.487 20.894C395.137 18.824 400.58 10.6087 400.58 4.33404V1.74655H413.229V4.33404C413.229 10.6087 418.672 18.824 436.322 20.894ZM438.088 32.5376L438.161 40.8823H412.567V60.9353H400.653V40.8823H375.648V32.5376H438.088Z" fill="white"/>
<path d="M485.959 37.0657V29.2386H479.708V21.0233H485.959V17.5302H479.708V9.31495H485.959V0.194059H497.874V37.0657H485.959ZM457.203 12.0965V27.0392L461.543 26.9099V12.0965H457.203ZM477.796 25.8102L478.458 33.4433C465.955 35.3192 451.467 35.5779 440.582 35.5779L439.479 27.2333H445.804V12.0965H441.097V3.88123H477.649V12.0965H472.942V26.263C474.56 26.1336 476.251 26.0042 477.796 25.8102ZM474.192 53.1729C482.429 53.1729 486.254 52.0732 486.254 49.4857C486.254 46.7688 482.429 45.7338 474.192 45.7338C465.882 45.7338 462.057 46.7688 462.057 49.4857C462.057 52.0732 465.882 53.1729 474.192 53.1729ZM474.192 37.842C488.975 37.842 498.168 42.1113 498.168 49.4857C498.168 56.7306 488.975 61 474.192 61C459.336 61 450.143 56.7306 450.143 49.4857C450.143 42.1113 459.336 37.842 474.192 37.842Z" fill="white"/>
<path d="M506.399 6.20996H539.494C539.494 24.9692 532.213 40.5589 508.9 50.9088L502.281 43.017C517.504 36.0308 525.521 27.4274 527.433 14.5546H506.399V6.20996ZM567.073 22.5111V31.0498H558.174V60.7412H546.26V0.0646863H558.174V22.5111H567.073Z" fill="white"/>
<path d="M604.796 15.2662H613.916V0.194059H625.83V44.3107H613.916V23.6108H604.796V15.2662ZM609.65 28.9798L603.913 37.1304C596.559 35.1251 591.705 31.1145 588.763 26.1336C585.748 31.632 580.673 35.9661 572.731 38.2301L566.773 29.9502C578.541 26.6511 582.365 19.0827 582.512 12.0318H569.862V3.81654H607.15V12.0318H594.647C594.794 18.6299 598.471 25.7455 609.65 28.9798ZM591.337 51.7497H627.301V59.965H579.423V40.6882H591.337V51.7497Z" fill="white"/>
<path d="M674.437 17.6596V10.6087H650.609V17.6596H674.437ZM686.131 2.5228V25.7455H638.915V2.5228H686.131ZM650.241 42.176V51.7497H687.16V59.965H638.327V42.176H650.241ZM631.487 29.6267H694V37.7773H669.73V46.8982H657.816V37.7773H631.487V29.6267Z" fill="white"/>
<path d="M0 111.787V132.589H30.4602H60.9204V144.476V156.363H38.261H15.6016V167.507V178.651H23.4767H31.3517L27.5628 182.811C16.5674 194.847 11.3669 207.774 9.65812 227.238C8.17225 244.252 10.7725 259.927 17.0874 272.632C23.7738 286.004 33.2834 295.588 46.4333 302.052C56.9086 307.178 63.3721 308.738 76.8935 309.184C89.6719 309.63 95.7639 308.887 105.719 305.692C114.783 302.795 122.881 297.891 130.162 290.982C139.746 281.844 146.209 270.774 149.404 258.07C151.41 249.972 152.152 231.25 150.815 221.518C148.735 205.991 142.866 193.212 133.133 182.885L129.047 178.651H138.408H147.843V167.507V156.363H124.813H101.782V144.476V132.589H526.367H950.953V111.787V90.9846H475.477H0V111.787ZM91.7521 182.365C96.8041 184.743 103.788 192.023 107.131 198.338C116.789 216.763 117.383 248.412 108.468 266.465C101.559 280.432 92.9408 286.599 80.6081 286.673C75.7048 286.673 73.8475 286.301 69.9842 284.518C63.8922 281.77 57.5029 275.009 53.8626 267.505C44.8731 248.709 44.9474 218.323 54.0855 199.527C57.7258 192.023 65.5266 184 71.3215 181.697C76.9678 179.542 86.403 179.765 91.7521 182.365Z" fill="white"/>
<path d="M310.547 145.665C294.351 148.636 282.761 154.357 272.731 164.386C255.421 181.771 246.654 209.78 249.552 238.605C253.118 273.449 272.88 299.303 302.003 307.252C309.506 309.258 326.594 310.001 334.766 308.664C363.815 303.983 385.434 281.398 392.343 248.486C394.424 238.383 394.572 219.735 392.715 209.111C388.109 183.554 373.547 161.935 354.305 152.277C344.647 147.373 337.664 145.813 324.291 145.59C317.753 145.442 311.587 145.516 310.547 145.665ZM331.869 167.878C344.87 173.673 352.522 193.212 353.414 222.855C354.231 250.344 349.328 270.031 339.001 281.25C333.875 286.747 329.194 288.828 321.913 288.828C305.569 288.753 294.648 273.449 291.305 245.886C290.264 237.268 290.264 216.615 291.305 207.997C292.419 198.71 295.168 188.457 297.991 182.663C305.197 168.027 318.793 162.083 331.869 167.878Z" fill="white"/>
<path d="M166.417 239.571V330.209H83.2084H0V351.011V371.813H475.477H950.953V351.011V330.209H824.283H697.613V239.571V148.933H679.04H660.467V239.571V330.209H653.78H647.094V239.571V148.933H629.263H611.433V174.936V200.938H598.803H586.173V206.51V212.082H561.285H536.397V192.395V172.707L567.303 172.558L598.135 172.336V161.563V150.791H548.878H499.622V227.684V304.578L555.565 304.8L611.433 304.949V317.579V330.209L534.911 330.06L458.389 329.837V239.348V148.933H438.33H418.271V239.571V330.209H312.403H206.535V274.86V219.512H221.394H236.252V207.996V196.481H221.394H206.535V172.707V148.933H186.476H166.417V239.571ZM611.285 253.092L611.433 282.661H573.915H536.397V258.516V234.37H564.628H592.86V229.318C592.86 226.495 593.083 223.969 593.38 223.672C593.677 223.449 597.763 223.301 602.444 223.375L611.062 223.598L611.285 253.092Z" fill="white"/>
<path d="M745.906 164.907V175.679H813.884H881.862V191.652V207.625H815.37H748.877V218.398V229.17H815.37H881.862V259.63V290.091H807.569H733.276V301.235V312.379H835.058H936.914L936.691 301.383L936.468 290.462L929.261 290.239L921.981 290.016V222.112V154.134H833.943H745.906V164.907Z" fill="white"/>
</svg>
