<?xml version="1.0" encoding="utf-8"?>
<!-- Generator: Adobe Illustrator 25.0.1, SVG Export Plug-In . SVG Version: 6.00 Build 0)  -->
<svg version="1.2" baseProfile="tiny" id="레이어_1"
	 xmlns="http://www.w3.org/2000/svg" xmlns:xlink="http://www.w3.org/1999/xlink" x="0px" y="0px" viewBox="0 0 2048 833.1"
	 overflow="visible" xml:space="preserve">
<g>
	<g>
		<path fill="#FFFFFF" d="M810.5249,424.9696c0,165.8971-134.4998,300.3849-300.3849,300.3849
			c-165.9011,0-300.3848-134.4877-300.3848-300.3849c0-165.8891,134.4837-300.3768,300.3848-300.3768
			C676.0251,124.5927,810.5249,259.0804,810.5249,424.9696z"/>
		<g>
			<g>
				<g>
					<g>
						<g>
							<g>
								<path fill="#003764" d="M651.1276,404.0326c-47.7793-32.4717-108.9493-19.249-141.1123,29.5735
									c-26.7527,40.8075-67.2443,45.8849-82.8414,45.8849c-51.1584,0-86.0637-35.9597-96.4385-73.1497
									c0,0-0.5072-1.8831-0.64-2.3087c-4.0782-15.5459-5.1094-22.9289-5.1094-39.4243
									c0-88.8876,91.2707-187.9044,222.6137-187.9044c134.5581,0,211.5676,102.4303,231.4655,159.3741
									c-0.3984-1.0704-0.7224-2.0231-1.0464-3.0271c-38.1748-111.3597-143.7578-191.4003-268.1363-191.4003
									c-156.3854,0-283.2446,126.7928-283.2446,283.311c0,139.8669,100.8792,259.578,240.8395,259.578
									c111.5709,0,186.5837-62.5527,220.9426-148.8039C707.3138,488.542,693.9702,433.1293,651.1276,404.0326z"/>
							</g>
							<g>
								<path fill="#E4032E" d="M780.7994,341.5778c-16.597-55.5526-94.1026-164.8739-233.1998-164.8739
									c-131.343,0-222.6137,99.0169-222.6137,187.9044c0,16.4955,1.0312,23.8784,5.1094,39.4243
									c-1.7071-6.8086-2.5783-13.5851-2.5783-20.2137c0-92.5987,92.6923-156.7414,187.99-156.7414
									c129.0391,0,233.6174,104.5823,233.6174,233.567c0,101.1096-58.2014,188.6892-142.7219,230.7269v0.0781
									c108.9965-39.4753,186.8301-143.8861,186.8301-266.4878C793.2327,395.9433,789.3423,370.3505,780.7994,341.5778z"/>
							</g>
						</g>
					</g>
				</g>
			</g>
		</g>
	</g>
	<g>
		<path fill="#575757" d="M928.2294,429.666h260.2051v29.9225H928.2294V429.666z M945.7944,478.7794h221.8234v88.4684h-35.127
			v-58.8714H945.7944V478.7794z M949.0461,410.4724V286.226h218.2463v29.5999H984.1732v17.889h181.8188v28.9461H984.1732v18.5427
			h184.0956v29.2687H949.0461z"/>
		<path fill="#575757" d="M1427.7031,321.0304v30.248h-179.5406v-30.248h72.5322v-33.1771h37.7292v33.1771H1427.7031z
			 M1413.0659,439.0987c0,9.5431-1.9514,18.489-5.8541,26.832c-3.9026,8.3516-9.2175,15.7777-15.9376,22.2813
			c-6.5049,6.2913-14.2593,11.2751-23.2562,14.9598c-8.9996,3.6904-18.4889,5.53-28.4594,5.53c-9.976,0-19.4639-1.8395-28.4592-5.53
			c-9.0011-3.6848-16.7513-8.6685-23.2562-14.9598c-6.7244-6.5035-12.035-13.9297-15.9391-22.2813
			c-3.9027-8.3431-5.854-17.289-5.854-26.832c0-9.5402,1.9513-18.5399,5.854-26.9962c3.9041-8.4591,9.2147-15.939,15.9391-22.4454
			c6.5049-6.2856,14.2551-11.2722,23.2562-14.9598c8.9954-3.6848,18.4833-5.53,28.4592-5.53c9.9705,0,19.4597,1.8452,28.4594,5.53
			c8.9969,3.6876,16.7513,8.6742,23.2562,14.9598c6.7201,6.5064,12.035,13.9863,15.9376,22.4454
			C1411.1145,420.5588,1413.0659,429.5585,1413.0659,439.0987z M1379.5647,439.0987c0-11.06-3.9026-20.4926-11.7095-28.298
			c-7.8053-7.8054-17.238-11.7109-28.2966-11.7109c-11.0585,0-20.4912,3.9055-28.2965,11.7109
			c-7.8069,7.8054-11.7095,17.238-11.7095,28.298c0,11.0572,3.9026,20.4389,11.7095,28.1339
			c7.8053,7.7007,17.238,11.5468,28.2965,11.5468c11.0586,0,20.4913-3.8461,28.2966-11.5468
			C1375.6621,459.5376,1379.5647,450.1559,1379.5647,439.0987z M1464.4574,283.2997h35.1271v283.2972h-35.1271V433.8942h-40.333
			v-33.1771h40.333V283.2997z"/>
		<path fill="#575757" d="M1571.2391,337.2921v-29.597h66.3542v-27.6499h37.4038v27.6499h63.0996v29.597h-68.3042l70.9065,72.2068
			l-23.4191,21.7917l-61.1482-63.4222l-60.1732,68.6267l-24.0685-22.4426l70.9049-76.7604H1571.2391z M1797.2937,506.4236
			c0,9.5458-1.9528,18.489-5.8555,26.8348c-3.9027,8.3459-9.1072,15.6646-15.6107,21.9558
			c-6.7244,6.2856-14.5863,11.2722-23.5818,14.9626c-9.001,3.6848-18.4889,5.5272-28.4607,5.5272
			c-9.9761,0-19.5149-1.8423-28.6221-5.5272c-9.1072-3.6904-17.0258-8.677-23.7444-14.9626
			c-6.505-6.2913-11.7095-13.6099-15.6122-21.9558c-3.9027-8.3459-5.8555-17.289-5.8555-26.8348
			c0-9.5374,1.9528-18.5371,5.8555-26.9934s9.1072-15.8258,15.6122-22.1171c6.7186-6.2885,14.6372-11.2722,23.7444-14.9627
			c9.1072-3.6848,18.646-5.53,28.6221-5.53c9.9718,0,19.4597,1.8452,28.4607,5.53c8.9955,3.6904,16.8574,8.6742,23.5818,14.9627
			c6.5035,6.2913,11.708,13.6608,15.6107,22.1171S1797.2937,496.8862,1797.2937,506.4236z M1762.8162,506.0982
			c0-10.6213-3.9027-19.7823-11.7095-27.4801c-7.8054-7.695-17.0258-11.5468-27.6471-11.5468
			c-10.627,0-19.7894,3.8517-27.483,11.5468c-7.6992,7.6978-11.5468,16.8588-11.5468,27.4801
			c0,10.627,3.8475,19.7342,11.5468,27.3216c7.6936,7.5903,16.8561,11.3854,27.483,11.3854
			c10.6213,0,19.8417-3.7951,27.6471-11.3854C1758.9135,525.8323,1762.8162,516.7252,1762.8162,506.0982z M1786.2336,441.6996
			v-64.4014h-49.4387v-30.248h49.4387v-63.7505h35.1285v158.3999H1786.2336z"/>
	</g>
</g>
</svg>
