<svg width="951" height="282" viewBox="0 0 951 282" fill="none" xmlns="http://www.w3.org/2000/svg">
<path d="M0 21.7866V42.5887H30.4602H60.9204V54.4756V66.3625H38.261H15.6016V77.5065V88.6505H23.4767H31.3517L27.5628 92.8109C16.5674 104.846 11.3669 117.773 9.65812 137.238C8.17225 154.251 10.7725 169.927 17.0874 182.631C23.7738 196.004 33.2834 205.588 46.4333 212.052C56.9086 217.178 63.3721 218.738 76.8935 219.184C89.6719 219.629 95.7639 218.886 105.719 215.692C114.783 212.794 122.881 207.891 130.162 200.982C139.746 191.844 146.209 180.774 149.404 168.07C151.41 159.972 152.152 141.25 150.815 131.518C148.735 115.99 142.866 103.212 133.133 92.8852L129.047 88.6505H138.408H147.843V77.5065V66.3625H124.813H101.782V54.4756V42.5887H526.367H950.953V21.7866V0.984518H475.477H0V21.7866ZM91.7521 92.3652C96.8041 94.7425 103.788 102.023 107.131 108.338C116.789 126.763 117.383 158.412 108.468 176.465C101.559 190.432 92.9408 196.599 80.6081 196.673C75.7048 196.673 73.8475 196.301 69.9842 194.518C63.8922 191.769 57.5029 185.009 53.8626 177.505C44.8731 158.709 44.9474 128.323 54.0855 109.527C57.7258 102.023 65.5266 93.9996 71.3215 91.6965C76.9678 89.542 86.403 89.7649 91.7521 92.3652Z" fill="white"/>
<path d="M310.547 55.6645C294.351 58.6362 282.761 64.3568 272.731 74.3864C255.421 91.771 246.654 119.78 249.552 148.605C253.118 183.449 272.88 209.303 302.003 217.252C309.506 219.258 326.594 220.001 334.766 218.664C363.815 213.983 385.434 191.398 392.343 158.486C394.424 148.382 394.572 129.735 392.715 119.111C388.109 93.554 373.547 71.9347 354.305 62.2766C344.647 57.3732 337.664 55.8131 324.291 55.5902C317.753 55.4416 311.587 55.5159 310.547 55.6645ZM331.869 77.8781C344.87 83.673 352.522 103.212 353.414 132.855C354.231 160.344 349.328 180.031 339.001 191.25C333.875 196.747 329.194 198.827 321.913 198.827C305.569 198.753 294.648 183.449 291.305 155.886C290.264 147.268 290.264 126.614 291.305 117.996C292.419 108.71 295.168 98.4574 297.991 92.6625C305.197 78.0267 318.793 72.0833 331.869 77.8781Z" fill="white"/>
<path d="M166.417 149.571V240.209H83.2084H0V261.011V281.813H475.477H950.953V261.011V240.209H824.283H697.613V149.571V58.9334H679.04H660.467V149.571V240.209H653.78H647.094V149.571V58.9334H629.263H611.433V84.936V110.939H598.803H586.173V116.511V122.083H561.285H536.397V102.395V82.7072L567.303 82.5586L598.135 82.3357V71.5632V60.7907H548.878H499.622V137.684V214.578L555.565 214.801L611.433 214.949V227.579V240.209L534.911 240.06L458.389 239.837V149.348V58.9334H438.33H418.271V149.571V240.209H312.403H206.535V184.86V129.512H221.394H236.252V117.996V106.481H221.394H206.535V82.7072V58.9334H186.476H166.417V149.571ZM611.285 163.092L611.433 192.661H573.915H536.397V168.516V144.371H564.628H592.86V139.319C592.86 136.495 593.083 133.97 593.38 133.672C593.677 133.449 597.763 133.301 602.444 133.375L611.062 133.598L611.285 163.092Z" fill="white"/>
<path d="M745.906 74.9064V85.6789H813.884H881.862V101.652V117.625H815.37H748.877V128.398V139.17H815.37H881.862V169.63V200.09H807.569H733.276V211.234V222.378H835.058H936.914L936.691 211.383L936.468 200.462L929.261 200.239L921.981 200.016V132.112V64.1339H833.943H745.906V74.9064Z" fill="white"/>
</svg>
