<svg width="618" height="98" viewBox="0 0 618 98" fill="none" xmlns="http://www.w3.org/2000/svg">
<path d="M271.692 71.8782C271.692 78.9295 265.921 84.6987 258.869 84.6987C251.656 84.6987 246.045 78.9295 246.045 71.8782C246.045 64.6667 251.816 59.0577 258.869 59.0577C266.082 58.8974 271.692 64.6667 271.692 71.8782Z" fill="#002C80"/>
<path d="M271.692 25.8846C271.692 32.9359 265.921 38.7051 258.869 38.7051C251.656 38.7051 246.045 32.9359 246.045 25.8846C246.045 18.6731 251.816 13.0641 258.869 13.0641C266.082 13.0641 271.692 18.6731 271.692 25.8846Z" fill="#002C80"/>
<path d="M44.5606 39.0256C28.3713 34.859 25.0052 32.9359 25.0052 27.3269V27.0064C25.0052 22.5192 29.4934 19.4743 36.3858 19.4743C43.5989 19.4743 51.2928 22.359 60.1088 28.4487L60.5896 28.7692L71.8099 12.5833L71.3291 12.4231C61.5514 4.5705 49.8502 0.564087 36.7064 0.564087C17.3113 0.564087 3.84696 12.2628 3.84696 29.0897V29.4102C3.84696 48.8013 17.3113 53.7692 34.9432 58.2564C50.6517 62.2628 53.2163 64.8269 53.2163 69.4743V69.7949C53.2163 74.9231 48.4076 77.9679 40.3931 77.9679C30.936 77.9679 22.2803 74.4423 13.1438 66.9102L12.6629 66.5897L0 81.8141L0.48087 82.1346C11.2203 91.75 25.3258 97.0384 40.0725 97.0384C61.3911 97.0384 74.5349 85.8205 74.5349 67.7115V67.391C74.3746 50.4038 62.5131 43.8333 44.5606 39.0256Z" fill="#002C80"/>
<path d="M107.875 57.7756H145.543V39.1859H107.875V22.0385H152.436V3.44873H87.1978V94.1539H153.077V75.4039H107.875V57.7756Z" fill="#002C80"/>
<path d="M186.898 75.4039V57.7756H225.849V39.1859H186.898V22.0385H232.741V3.44873H166.221V94.1539H233.382V75.4039H186.898Z" fill="#002C80"/>
<path d="M359.05 33.7372V33.4167C359.05 14.5064 346.226 3.28845 324.747 3.28845H284.515V94.1538H305.352V65.4679H318.656L337.891 94.1538H362.255L340.135 61.9423C352.317 57.1346 359.05 47.1987 359.05 33.7372ZM305.192 22.359H322.984C332.602 22.359 337.891 26.6859 337.891 34.5384V34.859C337.891 42.391 332.281 46.8782 323.305 46.8782H305.192V22.359Z" fill="#1172BE"/>
<path d="M392.55 57.7756H430.378V39.1859H392.55V22.0385H437.271V3.44873H371.873V94.1539H437.912V75.4039H392.55V57.7756Z" fill="#1172BE"/>
<path d="M572.876 75.0833V3.44873H552.039V94.1539H617.437V75.0833H572.876Z" fill="#1172BE"/>
<path d="M504.272 3.44873H498.021H467.726V22.0385H477.664L447.69 94.1539H469.009L476.863 74.1218H512.928L520.782 94.1539H541.941L504.272 3.44873ZM484.076 55.5321L494.815 27.968L505.715 55.5321H484.076Z" fill="#1172BE"/>
</svg>
