<svg width="712" height="200" viewBox="0 0 712 200" fill="none" xmlns="http://www.w3.org/2000/svg">
<path d="M200.003 99.9985C200.003 155.227 155.227 200 100.001 200C44.7713 200 0 155.228 0 99.9985C0 44.7722 44.7709 0 100.001 0C155.227 0 200.003 44.7722 200.003 99.9985Z" fill="white"/>
<path d="M146.938 93.0284C131.031 82.2182 110.667 86.6203 99.9597 102.874C91.0533 116.459 77.5734 118.149 72.3808 118.149C55.3498 118.149 43.7295 106.178 40.2756 93.7971C40.2756 93.7971 40.1065 93.1703 40.0626 93.0284C38.7047 87.853 38.3616 85.395 38.3616 79.9037C38.3616 50.3121 68.7466 17.3482 112.472 17.3482C157.268 17.3482 182.905 51.4482 189.53 70.4057C189.406 70.0725 189.29 69.7366 189.181 69.3981C176.473 32.3254 141.323 5.67883 99.9162 5.67883C47.8537 5.67883 5.62109 47.8897 5.62109 99.9961C5.62109 146.559 39.2047 186.413 85.7993 186.413C122.942 186.413 147.915 165.588 159.353 136.874C165.642 121.163 161.2 102.715 146.938 93.0284Z" fill="#003764"/>
<path d="M190.107 72.2364C184.582 53.7425 158.779 17.3481 112.472 17.3481C68.7463 17.3481 38.3613 50.312 38.3613 79.9037C38.3613 85.395 38.7045 87.853 40.0623 93.0284C39.4941 90.7616 39.2041 88.5058 39.2041 86.2989C39.2041 55.472 70.0624 34.118 101.788 34.118C144.747 34.118 179.562 68.9344 179.562 111.875C179.562 145.536 160.186 174.692 132.048 188.686V188.712C168.334 175.57 194.246 140.811 194.246 99.9956C194.246 90.3352 192.951 81.8151 190.107 72.2364Z" fill="#E4032E"/>
<path d="M282.231 111.461V98.167H246.118V88.2238H329.859V98.167H293.641V111.461H323.159V143.283H311.855V121.406H251.771V111.461H282.231ZM322.95 53.7849V80.8963H311.645V63.7293H252.608V53.7849H322.95ZM348.28 109.786V56.4023H418.517V66.3468H359.585V78.0705H418.099V87.8054H359.585V99.8421H418.831V109.786H389.103V126.326H425.321V136.375H341.581V126.326H377.693V109.786H348.28V109.786ZM482.787 98.0624H493.882V126.326H520.783V136.375H437.043V126.326H456.722V98.0624H467.817V126.326H482.787V98.0624ZM502.57 110.414V66.9744H443.533V56.9253H513.875V110.414H502.57ZM539.205 89.7942V52.8438H609.442V62.0547H550.51V66.8698H609.024V75.7673H550.51V80.7917H609.756V89.7942H580.028V95.6559H616.246V104.971H532.506V95.6559H568.619V89.7942H539.205ZM596.671 127.058C596.671 129.78 596.112 132.344 594.996 134.751C593.88 137.16 592.31 139.305 590.287 141.19C588.193 143.003 585.801 144.45 583.116 145.533C580.428 146.614 577.516 147.156 574.376 147.156C571.304 147.156 568.41 146.614 565.688 145.533C562.966 144.45 560.593 143.003 558.57 141.19C556.476 139.305 554.87 137.16 553.755 134.751C552.638 132.344 552.08 129.779 552.08 127.058C552.08 124.268 552.638 121.667 553.755 119.26C554.87 116.852 556.476 114.706 558.57 112.822C560.593 111.008 562.966 109.561 565.688 108.478C568.41 107.397 571.305 106.855 574.376 106.855C577.516 106.855 580.428 107.397 583.116 108.478C585.801 109.561 588.193 111.008 590.287 112.822C592.31 114.706 593.88 116.852 594.996 119.26C596.112 121.667 596.671 124.268 596.671 127.058ZM585.472 126.953C585.472 123.954 584.372 121.389 582.174 119.26C579.976 117.131 577.376 116.067 574.376 116.067C571.374 116.067 568.776 117.131 566.577 119.26C564.38 121.389 563.28 123.954 563.28 126.953C563.28 129.954 564.38 132.519 566.577 134.646C568.776 136.775 571.374 137.84 574.376 137.84C577.375 137.84 579.976 136.775 582.174 134.646C584.372 132.519 585.472 129.954 585.472 126.953ZM627.969 109.577H711.709V119.626H675.491V143.073H664.081V119.626H627.969V109.577ZM645.867 64.9851H693.809V53.4714H705.009V97.3306H634.668V53.4714H645.867V64.9851ZM693.809 74.825H645.867V87.3861H693.809V74.825Z" fill="#575757"/>
</svg>
